<?xml version="1.0" standalone="no"?>
<!DOCTYPE svg PUBLIC "-//W3C//DTD SVG 1.1//EN" "http://www.w3.org/Graphics/SVG/1.1/DTD/svg11.dtd" >
<svg>
<metadata>
Created by FontForge 20090914 at Thu Oct  8 11:25:19 2020
 By www-data
TrueType font: Copyright &#194;&#169; 1993 TeamAXis Corp. Hinted used T-Design system: Copyright &#194;&#169; 1992, 1993 by Dmitry Komissarov. The digitaly encoded machine readable outline data for producing the TrueType font copyrighted &#194;&#169; 1991, 1993 ParaGraph.
</metadata>
<defs>
<font id="AXP-ZhikharevC" horiz-adv-x="504" >
  <font-face 
    font-family="AXP ZhikharevC"
    font-weight="400"
    font-stretch="normal"
    units-per-em="1000"
    panose-1="0 0 0 0 0 0 0 0 0 0"
    ascent="800"
    descent="-200"
    x-height="403.999"
    cap-height="701.999"
    bbox="-91.001 -238 1164 859"
    underline-thickness="56"
    underline-position="-210"
    unicode-range="U+0020-U+2219"
  />
<missing-glyph horiz-adv-x="859" 
d="M53 0v859h753v-859h-753zM753 53v753h-647v-753h647z" />
    <glyph glyph-name=".notdef" horiz-adv-x="859" 
d="M53 0v859h753v-859h-753zM753 53v753h-647v-753h647z" />
    <glyph glyph-name="space" unicode=" " horiz-adv-x="351" 
 />
    <glyph glyph-name="exclam" unicode="!" horiz-adv-x="406" 
d="M532 664c-2.66699 -16 -31.6699 -76.667 -87.0029 -182l-104 -192l-53 -95c-7.33301 -12 -13.666 -18.667 -18.999 -20s-9.16602 -2 -11.499 -2h-4.5c-6.66699 0 -12.667 0.5 -18 1.5s-9.33301 1.83301 -12 2.5c-8.66699 3.33301 -13 9 -13 17
c0 6.66699 16.667 44.334 50 113.001c38 78 68.667 143 92 195c12.667 29.333 30.667 73.333 54 132c20 51.333 37.333 74.666 52 69.999l60 -21c8.66699 -3.33301 13.334 -7 14.001 -11v-8zM235.997 69c0 -15.333 -7.83301 -32.1689 -23.5 -50.502
s-33.167 -27.5 -52.5 -27.5c-9.33301 0 -16 1 -20 3c-9.33301 4.66699 -14 12.667 -14 24c0 14.667 4.66699 30.834 14 48.501s20 26.5 32 26.5h34c10 0 17.5 -2.16699 22.5 -6.5s7.5 -10.166 7.5 -17.499z" />
    <glyph glyph-name="quotedbl" unicode="&#x22;" horiz-adv-x="526" 
d="M531 742l-42 -182h-56l-42 182h140zM335 742l-42 -182h-56l-42 182h140z" />
    <glyph glyph-name="numbersign" unicode="#" horiz-adv-x="916" 
d="M888 508l-18 -90h-130l-37 -190h130l-17 -90h-131l-26 -138h-60l27 138h-209l-26 -138h-60l27 138h-130l17 90h130l37 190h-130l18 90h129l26 132h60l-26 -132h208l26 132h60l-26 -132h131zM680 418h-208l-37 -190h208z" />
    <glyph glyph-name="dollar" unicode="$" horiz-adv-x="546" 
d="M630 546l-79.001 -15.999c0 14.667 -4 27.667 -12 39s-18.333 19 -31 23l-104 -214c36.667 -40 62 -71.333 76 -94c21.333 -34.667 32 -70 32 -106c0 -48 -20.333 -89.667 -61 -125s-93.334 -53 -158.001 -53c-21.333 0 -43.666 2.66699 -66.999 8l-39 -85l-54 22l41 85
c-22 12 -42 27 -60 45c-15.333 15.333 -30 33.333 -44 54l70 47c14.667 -31.333 37.334 -56.333 68.001 -75l116 241c-30 33.333 -51.333 64.666 -64 93.999c-9.33301 22.667 -14 46 -14 70c0 51.333 19.667 93.333 59 126c36 30 77.667 45 125 45l54 -4l35 73l53 -21
l-34 -70c24 -8.66699 43.833 -22.5 59.5 -41.5s26.5 -41.5 32.5 -67.5zM452.999 608.001l-11 1c-30 0 -56.167 -8.5 -78.5 -25.5s-33.5 -39.5 -33.5 -67.5c0 -14 1.83301 -28 5.5 -42s13.167 -30.667 28.5 -50zM427.999 186.001c0 18 -5.83105 37.167 -17.498 57.5
s-26.5 38.833 -44.5 55.5l-109 -226c3.33301 -1.33301 12.666 -3 27.999 -5s24.666 -3 27.999 -3c34.667 0 63 13.333 85 40c20 24 30 51 30 81z" />
    <glyph glyph-name="percent" unicode="%" horiz-adv-x="714" 
d="M681 612c-80.667 -96 -160.669 -202.333 -240.002 -319c-84.667 -124.667 -153.667 -239.667 -207 -345l-94 27c33.333 64.667 71 127 113 187c30 43.333 74 101.666 132 174.999l174 226l-4 6c-6.66699 -5.33301 -16.5 -10 -29.5 -14s-29.5 -6 -49.5 -6
c-8 0 -15.667 1.33301 -23 4s-11.666 4.33398 -12.999 5.00098c-3.33301 -39.333 -21.833 -73.166 -55.5 -101.499s-69.5 -42.5 -107.5 -42.5c-29.333 0 -53.166 10.167 -71.499 30.5s-27.5 47.5 -27.5 81.5c0 45.333 19.333 85.666 58 120.999s85.667 53 141 53
c9.33301 0 16.666 -0.333008 21.999 -1v-47c-52 -6 -92 -26 -120 -60c-21.333 -26.667 -32 -54 -32 -82c0 -12.667 2.83301 -23 8.5 -31s11.167 -12 16.5 -12c24.667 0 46.834 9.5 66.501 28.5s29.5 44.833 29.5 77.5c0 8 -0.5 14 -1.5 18s-2.83301 10.333 -5.5 19l61 31
c8.66699 -8 15.667 -16.667 21 -26c8 -4 17.333 -6.66699 28 -8s21.667 -2 33 -2c19.333 0 40.333 5.66699 63 17c18 8.66699 36.333 21 55 37zM699.998 156c0 -42.667 -14.665 -81.6689 -43.998 -117.002c-32.667 -40 -73.334 -60 -122.001 -60
c-30.667 0 -55.167 8.83301 -73.5 26.5s-27.5 41.834 -27.5 72.501c0 49.333 19.667 93 59 131s87.666 57 144.999 57c10 0 17.667 -0.333008 23 -1l3 -47c-56.667 -6 -99.667 -25.333 -129 -58c-22.667 -25.333 -34 -53 -34 -83c0 -16 4.16699 -28.167 12.5 -36.5
s18.833 -12.5 31.5 -12.5c21.333 0 40 11 56 33s24 47.333 24 76c0 14.667 -2.66699 28.334 -8 41.001l70 27c4 -5.33301 7.33301 -13 10 -23s4 -18.667 4 -26z" />
    <glyph glyph-name="ampersand" unicode="&#x26;" horiz-adv-x="756" 
d="M756 16c-18.667 -8.66699 -35.668 -14.499 -51.001 -17.499s-34.333 -4.5 -57 -4.5c-38.667 0 -68.334 4.66699 -89.001 14s-38.334 23.333 -53.001 42c-26.667 -18.667 -58.5 -34.334 -95.5 -47.001s-72.833 -19 -107.5 -19c-55.333 0 -101 16.333 -137 49
s-54 78 -54 136c0 44.667 14.667 84.334 44 119.001c36 42.667 99.333 86.667 190 132c-3.33301 13.333 -5.66602 27 -6.99902 41s-2 28 -2 42c0 56.667 18 103 54 139c33.333 33.333 72 50 116 50c24 0 45.5 -9.83301 64.5 -29.5s28.5 -44.834 28.5 -75.501
s-13.667 -61.834 -41 -93.501s-66.666 -63.167 -117.999 -94.5c11.333 -45.333 25 -87.666 41 -126.999s34 -76 54 -110c24 18 46.333 38 67 60c28.667 31.333 52.667 65.666 72 102.999l68 -30c-14.667 -26.667 -31.667 -53 -51 -79
c-33.333 -43.333 -71.666 -81.666 -114.999 -114.999c12 -17.333 27 -29.333 45 -36c11.333 -4 25 -6 41 -6c13.333 0 25 1.5 35 4.5s20.333 7.83301 31 14.5zM515.999 572.001c0 12.667 -3.83301 22.501 -11.5 29.501s-16.5 10.5 -26.5 10.5c-14.667 0 -27 -7 -37 -21
c-12.667 -18 -19 -45 -19 -81c0 -7.33301 0.5 -14.833 1.5 -22.5s2.83301 -16.834 5.5 -27.501c20.667 11.333 39.667 27.333 57 48c20 24 30 45.333 30 64zM461.999 116.002c-20 31.333 -39.333 68.334 -58 111.001s-33.334 85 -44.001 127
c-55.333 -27.333 -95 -58 -119 -92c-18.667 -26.667 -28 -55.334 -28 -86.001c0 -30 7.33301 -55.333 22 -76c18.667 -26 46.334 -39 83.001 -39c22.667 0 47 5.5 73 16.5s49.667 23.833 71 38.5z" />
    <glyph glyph-name="quotesingle" unicode="'" horiz-adv-x="330" 
d="M335 700l-42 -182h-56l-42 182h140z" />
    <glyph glyph-name="parenleft" unicode="(" horiz-adv-x="532" 
d="M686 643c-128.667 -101.333 -231.833 -217.5 -309.5 -348.5s-116.5 -252.833 -116.5 -365.5c0 -25.333 1 -45.333 3 -60c3.33301 -16 5.66602 -28 6.99902 -36l-89 -32c-5.33301 20.667 -8.83301 40.334 -10.5 59.001s-2.5 41.667 -2.5 69c0 100.667 26 202.667 78 306
c44 87.333 105.333 174.666 184 261.999c60.667 67.333 131.334 134 212.001 200z" />
    <glyph glyph-name="parenright" unicode=")" horiz-adv-x="532" 
d="M518 570c0 -100 -26.335 -201.998 -79.002 -305.998c-44 -86 -105.667 -173.333 -185 -262c-59.333 -66 -129.666 -133 -210.999 -201l-43 55c128.667 103.333 231.667 219.666 309 348.999s116 250.666 116 363.999c0 25.333 -1 45.333 -3 60
c-3.33301 16 -5.66602 28 -6.99902 36l89 32c4.66699 -20 8.16699 -40.5 10.5 -61.5s3.5 -42.833 3.5 -65.5z" />
    <glyph glyph-name="asterisk" unicode="*" horiz-adv-x="398" 
d="M510 561c-1.33301 -6.66699 -6.00293 -10.333 -14.0029 -11h-11l-30 2c-15.333 0 -24.666 -0.166992 -27.999 -0.5s-6 -1.16602 -8 -2.49902c0 -3.33301 11.667 -15.666 35 -36.999c11.333 -10.667 17 -20.334 17 -29.001c0 -4.66699 -3 -9.33398 -9 -14.001l-35 -26
c-4 -3.33301 -8 -5 -12 -5c-5.33301 0 -9.66602 13.833 -12.999 41.5s-12 41.5 -26 41.5c-8 0 -16 -12.333 -24 -37s-16 -37 -24 -37c-2.66699 0 -6 1 -10 3l-37 23c-4 2.66699 -6.16699 5.16699 -6.5 7.5s-0.5 4.83301 -0.5 7.5c0 10.667 6.33301 20.667 19 30
c28.667 20.667 43 32.667 43 36c0 6 -4.66699 9.5 -14 10.5s-21.666 1.5 -36.999 1.5c-8 0.666992 -15 1.83398 -21 3.50098s-10 4.5 -12 8.5v9l15 43c2 5.33301 5.66699 8 11 8c7.33301 0 16.666 -3.33301 27.999 -10c28.667 -16.667 44 -25 46 -25
c2 3.33301 3.33301 7.33301 4 12s1 9 1 13s-0.666992 10 -2 18l-7 37v10c2 8 8.33301 12 19 12l40 -3c8.66699 -0.666992 13 -7.66699 13 -21c0 -6.66699 -1.33301 -13.334 -4 -20.001c-5.33301 -14 -8.5 -22.667 -9.5 -26s-1.83301 -7 -2.5 -11s-1 -9 -1 -15
c0 -2.66699 0.166992 -5 0.5 -7s2.83301 -3 7.5 -3s9.16699 0.5 13.5 1.5s10.333 3 18 6l17 6.5c3.66699 1.33301 7.5 3.33301 11.5 6c8.66699 5.33301 13.334 8 14.001 8c8.66699 0 13.667 -2.66699 15 -8l10 -51v-7z" />
    <glyph glyph-name="plus" unicode="+" horiz-adv-x="672" 
d="M679 294h-224v-224h-56v224h-224v56h224v224h56v-224h224v-56z" />
    <glyph glyph-name="comma" unicode="," horiz-adv-x="350" 
d="M238 76c0 -20.667 -18.333 -52.334 -55 -95.001s-63 -64 -79 -64c-6 0 -12.833 2.83301 -20.5 8.5s-12.167 12.167 -13.5 19.5v6c1.33301 6 12.333 21.333 33 46c14 17.333 27.333 40 40 68c6 14.667 10.833 24.167 14.5 28.5s7.5 6.5 11.5 6.5
c1.33301 0 6 -0.666992 14 -2l31 -3c8 -0.666992 14 -2.16699 18 -4.5s6 -7.16602 6 -14.499z" />
    <glyph glyph-name="hyphen" unicode="-" horiz-adv-x="406" 
d="M392 254c0 -36 -12.001 -59.667 -36.001 -71c-16 -7.33301 -45 -11 -87 -11h-86h-43c-6 0 -10.333 0.333008 -13 1c-10 2.66699 -15 7.33398 -15 14.001c0 2.66699 1.33301 6.66699 4 12l26 38c5.33301 7.33301 10 11.666 14 12.999s11 2 21 2l52 -1
c24 0 73 4.33301 147 13h8c2.66699 -0.666992 5.33398 -4 8.00098 -10z" />
    <glyph glyph-name="period" unicode="." horiz-adv-x="350" 
d="M338 69c0 -16.667 -8.16602 -33.833 -24.499 -51.5s-33.833 -26.5 -52.5 -26.5c-8.66699 0 -15.334 1 -20.001 3c-10 4 -15 12 -15 24c0 16 4.5 32.5 13.5 49.5s20.167 25.5 33.5 25.5h34c8 0 13.667 -0.666992 17 -2c9.33301 -4 14 -11.333 14 -22z" />
    <glyph glyph-name="slash" unicode="/" 
d="M644 665c-113.333 -137.333 -222.333 -280 -327 -428c-112 -158.667 -207 -307.667 -285 -447l-88 35l214 307l196 259l241 309z" />
    <glyph glyph-name="zero" unicode="0" 
d="M585 445c0 -97.333 -40 -197.668 -120 -301.001s-159.333 -155 -238 -155c-44 0 -78.333 13.333 -103 40s-37 66.334 -37 119.001c0 63.333 15.667 129.333 47 198c26.667 58 62.334 114 107.001 168l75 -67c-36 -39.333 -68.333 -87.666 -97 -144.999
c-33.333 -66 -50 -122.667 -50 -170c0 -26.667 6.33301 -46.334 19 -59.001s29 -19 49 -19c36 0 75.667 29.333 119 88c36.667 49.333 69 108.666 97 177.999s42 120 42 152c0 26 -5.83301 45.833 -17.5 59.5s-25.834 20.5 -42.501 20.5c-20 0 -41 -8 -63 -24
c-18.667 -13.333 -36 -30.666 -52 -51.999l-29 78c30 28 61.667 47.667 95 59c20 6.66699 40.667 10 62 10c42 0 75.333 -15.667 100 -47s37 -75 37 -131z" />
    <glyph glyph-name="one" unicode="1" horiz-adv-x="503" 
d="M620 597l-115 -196.999l-110 -186c-44.667 -78 -85 -153 -121 -225l-86 26c37.333 75.333 70 137 98 185c16 27.333 40.667 65.666 74 114.999c36.667 54 70.334 106.333 101.001 157c-26.667 -14 -49.834 -25 -69.501 -33s-43.5 -16 -71.5 -24l-21 53
c41.333 11.333 81 28.333 119 51c48 28.667 97.333 67 148 115z" />
    <glyph glyph-name="two" unicode="2" 
d="M597 529c0 -60.667 -44.6699 -132.668 -134.003 -216.001c-78 -72.667 -165.667 -134.667 -263 -186c16.667 -6 42.334 -17.333 77.001 -34c22.667 -10.667 40.667 -16 54 -16c16.667 0 32.834 6.33301 48.501 19s32.834 32 51.501 58l62 -55c-52 -66 -102 -99 -150 -99
c-19.333 0 -38.333 3.16699 -57 9.5s-38.334 15.166 -59.001 26.499s-38.667 20.333 -54 27s-28.333 10 -39 10c-5.33301 0 -12 -2.5 -20 -7.5s-15 -10.167 -21 -15.5l-61 53c23.333 28.667 44.333 44.334 63 47.001s42.334 12.334 71.001 29.001
c84.667 49.333 162.667 109 234 179s107 122.667 107 158c0 14.667 -2.33301 26 -7 34c-7.33301 12.667 -19.333 19 -36 19c-27.333 0 -56.333 -16.333 -87 -49c-23.333 -24.667 -44.333 -55 -63 -91l-68 49c24 44 51.667 79.333 83 106c44 36.667 93.333 55 148 55
c47.333 0 81 -14.667 101 -44c12.667 -18.667 19 -40.667 19 -66z" />
    <glyph glyph-name="three" unicode="3" horiz-adv-x="503" 
d="M556 533c0 -32.667 -13.5 -63.501 -40.5 -92.501s-65.5 -54.167 -115.5 -75.5v-11l6 1c36.667 0 65 -8.33301 85 -25s30 -40.667 30 -72c0 -60.667 -31.333 -118 -94 -172c-71.333 -61.333 -158 -92 -260 -92c-23.333 0 -45.5 1.83301 -66.5 5.5
s-42.167 9.16699 -63.5 16.5l22 59c29.333 -8.66699 56.333 -13 81 -13c77.333 0 144.666 22.333 201.999 67c53.333 41.333 80 85 80 131c0 14.667 -4 26.667 -12 36c-10 11.333 -26.333 17 -49 17c-14.667 0 -30.5 -3.33301 -47.5 -10l-47.5 -18l-29 61
c68 24.667 123.333 55.667 166 93c40 34.667 60 66 60 94c0 24.667 -11.667 37 -35 37c-26.667 0 -61.667 -19.667 -105 -59c-15.333 -14 -34 -33 -56 -57l-61 56c48.667 48 92.334 81.667 131.001 101c32 16 65.667 24 101 24c36.667 0 65.5 -9.16699 86.5 -27.5
s31.5 -43.166 31.5 -74.499z" />
    <glyph glyph-name="four" unicode="4" 
d="M625 567c-52.667 -85.333 -107.332 -182 -163.999 -290s-100.334 -200.333 -131.001 -277l-83 27c20.667 50 44 99.333 70 148c30.667 57.333 70.334 123 119.001 197l-7 3c-16 -17.333 -38.5 -31.833 -67.5 -43.5s-55.167 -17.5 -78.5 -17.5
c-28.667 0 -51.334 8.66699 -68.001 26s-25 39.333 -25 66c0 30.667 9.33301 69.667 28 117c14.667 37.333 34.667 77.333 60 120l77 -38c-14.667 -24.667 -29 -51.667 -43 -81c-19.333 -41.333 -29 -71.333 -29 -90c0 -31.333 15 -47 45 -47c52.667 0 105.667 39 159 117
c18 26 38.667 62 62 108z" />
    <glyph glyph-name="five" unicode="5" 
d="M637 604c-16 -21.333 -36.168 -37.668 -60.501 -49.001s-55.833 -17 -94.5 -17c-16.667 0 -38.334 0.833008 -65.001 2.5s-50.667 3.83398 -72 6.50098l-38 -80c-1.33301 -2 -12.666 -27.333 -33.999 -76l3 -4c21.333 8.66699 39.833 15.167 55.5 19.5s32.5 6.5 50.5 6.5
c38.667 0 68.5 -11.833 89.5 -35.5s31.5 -55.167 31.5 -94.5c0 -78 -37.667 -146.667 -113 -206s-159.333 -89 -252 -89c-39.333 0 -73 2 -101 6l3 63c12 -2 27.5 -3.33301 46.5 -4s29.833 -1 32.5 -1c84.667 0 154.334 26 209.001 78c49.333 46.667 74 99 74 157
c0 38.667 -19.667 58 -59 58c-17.333 0 -36 -3.5 -56 -10.5s-38 -16.5 -54 -28.5l-56 33l56 139l63 150c26 -3.33301 55.167 -5.83301 87.5 -7.5s61.5 -2.5 87.5 -2.5c19.333 0 36.5 3 51.5 9s29.5 17 43.5 33z" />
    <glyph glyph-name="six" unicode="6" 
d="M585 592c-80.667 -32.667 -151.668 -76.332 -213.001 -130.999c-50.667 -45.333 -92.334 -96.333 -125.001 -153l9 -3c22.667 19.333 44.334 32.666 65.001 39.999s40 11 58 11c42 0 74 -11.333 96 -34s33 -54.667 33 -96c0 -61.333 -25.667 -117 -77 -167
s-108.666 -75 -171.999 -75c-54.667 0 -96.667 12.333 -126 37s-44 58.667 -44 102c0 84.667 41 177.667 123 279c90.667 112 204 195.667 340 251zM410.999 228.002c0 18.667 -6.16895 33.167 -18.502 43.5s-29.166 15.5 -50.499 15.5c-33.333 0 -67.666 -17 -102.999 -51
s-53 -69 -53 -105c0 -26.667 6.5 -47.5 19.5 -62.5s31.167 -22.5 54.5 -22.5c36.667 0 71 20 103 60s48 80.667 48 122z" />
    <glyph glyph-name="seven" unicode="7" horiz-adv-x="505" 
d="M616 575l-236.004 -284.001c21.333 0 42.833 -2.66699 64.5 -8s40.167 -13 55.5 -23l-27 -52c-26.667 8.66699 -58 13 -94 13c-9.33301 0 -16.666 -0.333008 -21.999 -1s-14 -2 -26 -4c-26.667 -34 -51 -69 -73 -105c-15.333 -25.333 -39.666 -68.666 -72.999 -129.999
l-92 38l62 94l58 82c-4 8.66699 -7.16699 17.834 -9.5 27.501s-3.5 18.167 -3.5 25.5c0 12 11.5 22.333 34.5 31s43.167 13 60.5 13c73.333 88.667 151 172.334 233 251.001l-5 7c-31.333 -14.667 -62.666 -25.834 -93.999 -33.501s-60 -11.5 -86 -11.5
c-45.333 0 -81.666 8.33301 -108.999 25c-30.667 18.667 -46 45 -46 79c0 11.333 3.33301 23.666 10 36.999l83 -11c-2.66699 -14.667 1.33301 -26.667 12 -36c16.667 -14 47.667 -21 93 -21c25.333 0 54.333 4.16699 87 12.5s62.667 18.833 90 31.5z" />
    <glyph glyph-name="eight" unicode="8" horiz-adv-x="503" 
d="M617 505c0 -26.667 -11.002 -52.002 -33.002 -76.002c-18.667 -20 -48 -42.333 -88 -67c-16.667 -10 -57.667 -33 -123 -69c14.667 -30.667 25.5 -57.667 32.5 -81s10.5 -44.333 10.5 -63c0 -42.667 -18.5 -79.667 -55.5 -111s-83.167 -47 -138.5 -47
c-48.667 0 -88.5 11.5 -119.5 34.5s-46.5 53.833 -46.5 92.5c0 35.333 15 68.666 45 99.999c34 35.333 90.333 72 169 110c-15.333 35.333 -25.333 59.333 -30 72c-8.66699 24 -13 44.667 -13 62c0 44 16 83.333 48 118c25.333 28 59.333 51.667 102 71l42 -65
c-34.667 -20 -59 -37.333 -73 -52c-18.667 -20 -28 -43.333 -28 -70c0 -15.333 2.16699 -32.166 6.5 -50.499s9.83301 -34.166 16.5 -47.499c36.667 18.667 67 35.334 91 50.001c59.333 37.333 89 67.666 89 90.999c0 12.667 -4.66699 22.167 -14 28.5
s-20.666 9.5 -33.999 9.5l-28 -1l-3 71c12.667 2.66699 26.334 4 41.001 4c42 0 75.333 -11.667 100 -35c22.667 -21.333 34 -47.666 34 -78.999zM334.998 150.998c0 17.333 -5.33398 38.335 -16.001 63.002c-2.66699 6.66699 -8.66699 19.667 -18 39
c-43.333 -24.667 -68.666 -39.334 -75.999 -44.001c-45.333 -30 -68 -60 -68 -90c0 -14.667 6 -27.334 18 -38.001s27.667 -16 47 -16c28.667 0 54 7.33301 76 22c24.667 16.667 37 38 37 64z" />
    <glyph glyph-name="nine" unicode="9" 
d="M585 507c0 -85.333 -40.667 -178.33 -122 -278.997c-90 -110.667 -203.333 -194.334 -340 -251.001l-34 61c78 30 146.333 71 205 123c48.667 43.333 93.334 96.666 134.001 159.999l-9 3c-23.333 -18.667 -46.333 -32.334 -69 -41.001c-18 -6.66699 -36 -10 -54 -10
c-46 0 -80.333 15 -103 45c-18 23.333 -27 52 -27 86c0 54 22 106 66 156c50.667 57.333 112 86 184 86c49.333 0 88.666 -10.333 117.999 -31c34 -24 51 -60 51 -108zM489 498.003c0 26.667 -6.50098 47.501 -19.501 62.501s-31.167 22.5 -54.5 22.5
c-38.667 0 -74.334 -21.333 -107.001 -64c-30 -39.333 -45 -78.333 -45 -117c0 -20.667 7.66699 -36.334 23 -47.001c12.667 -8.66699 28.334 -13 47.001 -13c34.667 0 69.334 18 104.001 54s52 70 52 102z" />
    <glyph glyph-name="colon" unicode=":" horiz-adv-x="350" 
d="M364 349c0 -16.667 -8.16602 -33.833 -24.499 -51.5s-33.833 -26.5 -52.5 -26.5c-8.66699 0 -15.334 1 -20.001 3c-10 4 -15 12 -15 24c0 16 4.5 32.5 13.5 49.5s20.167 25.5 33.5 25.5h34c8 0 13.667 -0.666992 17 -2c9.33301 -4 14 -11.333 14 -22zM238.001 69.001
c0 -16.667 -8.16602 -33.833 -24.499 -51.5s-33.833 -26.5 -52.5 -26.5c-8.66699 0 -15.334 1 -20.001 3c-10 4 -15 12 -15 24c0 16 4.5 32.5 13.5 49.5s20.167 25.5 33.5 25.5h34c8 0 13.667 -0.666992 17 -2c9.33301 -4 14 -11.333 14 -22z" />
    <glyph glyph-name="semicolon" unicode=";" horiz-adv-x="350" 
d="M364 349c0 -16.667 -8.16602 -33.833 -24.499 -51.5s-33.833 -26.5 -52.5 -26.5c-8.66699 0 -15.334 1 -20.001 3c-10 4 -15 12 -15 24c0 16 4.5 32.5 13.5 49.5s20.167 25.5 33.5 25.5h34c8 0 13.667 -0.666992 17 -2c9.33301 -4 14 -11.333 14 -22zM238.001 76.001
c0 -17.333 -17.335 -48.168 -52.002 -92.501s-61.667 -66.5 -81 -66.5c-7.33301 0 -14.666 2.83301 -21.999 8.5s-11.666 12.167 -12.999 19.5v6l34.5 45c13 17.333 26.167 40.333 39.5 69c7.33301 16 12.5 25.833 15.5 29.5s6.5 5.5 10.5 5.5l13 -2l31 -3
c8 -0.666992 14 -2.16699 18 -4.5s6 -7.16602 6 -14.499z" />
    <glyph glyph-name="less" unicode="&#x3c;" horiz-adv-x="645" 
d="M656 92l-34 -60l-458 265v59l458 265l34 -59l-407 -235z" />
    <glyph glyph-name="equal" unicode="=" horiz-adv-x="672" 
d="M679 378h-504v56h504v-56zM679 210h-504v56h504v-56z" />
    <glyph glyph-name="greater" unicode="&#x3e;" horiz-adv-x="645" 
d="M681 297l-458 -265l-34 60l407 235l-407 235l34 59l458 -265v-59z" />
    <glyph glyph-name="question" unicode="?" horiz-adv-x="434" 
d="M574 558c0 -58 -44.332 -117.665 -132.999 -178.998c-56.667 -38.667 -96.667 -73.667 -120 -105c-14 -18.667 -28.333 -42.667 -43 -72c-8.66699 -18 -16.667 -27 -24 -27c-12.667 0 -24.334 1.33301 -35.001 4s-16 6.66699 -16 12c0 19.333 10.833 48.166 32.5 86.499
s47.834 72.5 78.501 102.5c49.333 40 85.666 70.667 108.999 92c42.667 39.333 64 75 64 107c0 18 -5.5 31 -16.5 39s-22.833 12 -35.5 12c-40.667 0 -63 -21 -67 -63s-26.333 -63 -67 -63c-4 0 -9.33301 2 -16 6l-40 24c-6.66699 4 -10.667 9.66699 -12 17v9
c4 25.333 26.333 54.666 67 87.999c46 37.333 90.667 56 134 56c40 0 73.333 -14 100 -42s40 -62.667 40 -104zM236.001 69.002c0 -15.333 -7.83301 -32.1689 -23.5 -50.502s-33.167 -27.5 -52.5 -27.5c-9.33301 0 -16 1 -20 3c-9.33301 4.66699 -14 12.667 -14 24
c0 14.667 4.66699 30.834 14 48.501s20 26.5 32 26.5h34c10 0 17.5 -2.16699 22.5 -6.5s7.5 -10.166 7.5 -17.499z" />
    <glyph glyph-name="at" unicode="@" horiz-adv-x="828" 
d="M764 356c0 -62.667 -21 -112.666 -63 -149.999c-38 -34 -84.667 -51 -140 -51c-30.667 0 -55.667 7.33301 -75 22s-29 34.667 -29 60c0 7.33301 0.666992 14.5 2 21.5s2.33301 11.833 3 14.5l-4 1c-38.667 -42.667 -74.667 -72.667 -108 -90
c-24 -12.667 -46.333 -19 -67 -19c-17.333 0 -33.666 10.5 -48.999 31.5s-23 47.5 -23 79.5c0 56 27.667 109.333 83 160s114 76 176 76c19.333 0 34.833 -2.5 46.5 -7.5s22.167 -13.167 31.5 -24.5l10 20l65 -34l-80 -155c-6.66699 -12.667 -10.5 -23.5 -11.5 -32.5
s-1.5 -17.5 -1.5 -25.5c0 -28 13.333 -42 40 -42c34 0 63.333 11 88 33c31.333 28 47 68.667 47 122c0 72.667 -23.667 134 -71 184c-53.333 56 -126.333 84 -219 84c-86.667 0 -157.667 -30.333 -213 -91c-52 -57.333 -78 -126.333 -78 -207
c0 -96.667 30.667 -171.667 92 -225c54 -47.333 120.333 -71 199 -71c31.333 0 61 4.66699 89 14c20 6.66699 39.667 16 59 28l28 -49c-27.333 -16.667 -55.5 -28.667 -84.5 -36s-59.5 -11 -91.5 -11c-111.333 0 -199 35.333 -263 106c-58.667 64.667 -88 146 -88 244
c0 102.667 33.667 186.667 101 252s150.666 98 249.999 98c106.667 0 192 -31.333 256 -94c62 -60.667 93 -139.334 93 -236.001zM530 446.001c-5.33301 6 -11.167 10.666 -17.5 13.999s-14.166 5 -23.499 5c-42 0 -83.333 -16.333 -124 -49
c-44 -35.333 -66 -75.666 -66 -120.999c0 -18 3.83301 -30.833 11.5 -38.5s17.5 -11.5 29.5 -11.5c18 0 44.167 14.5 78.5 43.5s56.166 52.5 65.499 70.5z" />
    <glyph glyph-name="A" unicode="A" horiz-adv-x="667" 
d="M821 668l-158 -362h58l-26 -59l-55 1l-88 -254l-96 20l91 234l-128 -1c-63.333 -82 -116.666 -142 -159.999 -180c-56 -48.667 -109 -73 -159 -73c-28.667 0 -50.167 8.5 -64.5 25.5s-21.5 37.5 -21.5 61.5c0 22 6.66699 47.833 20 77.5s26 41.167 38 34.5l56 -31
c6 -3.33301 9.33301 -7.33301 10 -12v-8c-0.666992 -4 -3.83398 -11.667 -9.50098 -23s-8.5 -19.333 -8.5 -24s2.16699 -8.5 6.5 -11.5s9.5 -4.5 15.5 -4.5c29.333 0 92 54.333 188 163c-24.667 0 -63 -7.33301 -115 -22l31 65c3.33301 8.66699 5.83301 13.5 7.5 14.5
s6.5 1.5 14.5 1.5l116 7l134 158l100 116l116 127zM711 588l-11 4.99902c-8.66699 -11.333 -19.667 -24.666 -33 -39.999l-32 -37l-49 -59l-118 -149h108c20 46.667 44.333 99 73 157z" />
    <glyph glyph-name="B" unicode="B" horiz-adv-x="622" 
d="M762 564c0 -51.333 -26.3311 -98.999 -78.998 -142.999c-46 -38.667 -102.333 -67 -169 -85v-8h7c44 0 75 -12 93 -36c13.333 -17.333 20 -40 20 -68c0 -50 -27.667 -101.333 -83 -154c-65.333 -62 -143.333 -93 -234 -93c-25.333 0 -45.333 1.66699 -60 5s-30 9 -46 17
l29 53c19.333 -5.33301 37.666 -8 54.999 -8c60.667 0 115 19.5 163 58.5s72 78.5 72 118.5c0 20 -3 35.333 -9 46c-10 17.333 -27.333 26 -52 26c-10.667 0 -20.667 -0.666992 -30 -2s-19 -3.33301 -29 -6l-16 58c84.667 28.667 151.334 62.334 200.001 101.001
c44 34.667 66 67 66 97c0 21.333 -10.333 32 -31 32c-26.667 0 -68.334 -22.667 -125.001 -68c-48 -38 -87 -74.667 -117 -110c-22.667 -26 -46 -58 -70 -96c-18 -28 -42.333 -70 -73 -126l-98 -177l-90 23l204 363l103 189c20.667 38.667 39 74.667 55 108l79 -41l-72 -124
l7 -5c43.333 43.333 83.666 76.666 120.999 99.999c47.333 30 89.666 45 126.999 45c20.667 0 38.334 -6.33301 53.001 -19c19.333 -16.667 29 -40.334 29 -71.001z" />
    <glyph glyph-name="C" unicode="C" horiz-adv-x="531" 
d="M699 589c0 -26.667 -10.001 -54 -30.001 -82c-22.667 -31.333 -56.667 -61.333 -102 -90l-72 43c27.333 18 53 39.667 77 65c27.333 28.667 41 52 41 70c0 11.333 -3.66699 21 -11 29s-19.333 12 -36 12c-73.333 0 -149.166 -50.833 -227.499 -152.5
s-117.5 -197.834 -117.5 -288.501c0 -46 10.167 -79.167 30.5 -99.5s50.166 -30.5 89.499 -30.5c24.667 0 53.5 6.5 86.5 19.5s63.5 28.5 91.5 46.5l-22 -68c-26 -19.333 -57.667 -35.666 -95 -48.999s-72 -20 -104 -20c-46.667 0 -86 16 -118 48c-36 36 -54 87 -54 153
c0 116.667 47.5 229.667 142.5 339s195.5 164 301.5 164c38.667 0 69.834 -10 93.501 -30s35.5 -46.333 35.5 -79z" />
    <glyph glyph-name="D" unicode="D" horiz-adv-x="636" 
d="M699 429c0 -103.333 -34.3291 -200.667 -102.996 -292c-72 -95.333 -153 -143 -243 -143c-30 0 -61.667 6.66699 -95 20c-22 8.66699 -43.667 17.667 -65 27c-16.667 -10.667 -30 -18.334 -40 -23.001c-25.333 -12.667 -49.333 -19 -72 -19c-22 0 -36.333 1.33301 -43 4
s-10.334 5.66699 -11.001 9l-12 37c-6.66699 20 8.16602 36.833 44.499 50.5s69.5 20.5 99.5 20.5c9.33301 0 15.5 -0.166992 18.5 -0.5s5.16699 -0.833008 6.5 -1.5c8 0 22.667 15.333 44 46c16.667 24 31.667 48 45 72l83 151c35.333 58.667 77 113.334 125 164.001
l63 -36c-42.667 -53.333 -80 -109.333 -112 -168c-45.333 -84 -76 -138 -92 -162c-21.333 -32.667 -40 -57 -56 -73l-27 -24c0 -4 9.5 -9.16699 28.5 -15.5s37.167 -9.5 54.5 -9.5c63.333 0 124.666 43.333 183.999 130c56.667 82.667 85 162.334 85 239.001
c0 48.667 -8 89 -24 121c-22 44 -57 66 -105 66c-32.667 0 -63.834 -10.833 -93.501 -32.5s-61.5 -58.834 -95.5 -111.501l-78 55c40.667 52.667 82.667 92.667 126 120s90.333 41 141 41c58 0 107.667 -21.333 149 -64c46.667 -48.667 70 -114.667 70 -198z" />
    <glyph glyph-name="E" unicode="E" horiz-adv-x="543" 
d="M669 592c0 -36.667 -16.332 -71.334 -48.999 -104.001l-71 51c11.333 15.333 19.166 27.5 23.499 36.5s6.5 16.167 6.5 21.5c0 12.667 -3.33301 23 -10 31s-16 12 -28 12c-41.333 0 -90.833 -27.5 -148.5 -82.5s-86.5 -100.5 -86.5 -136.5c0 -10.667 4.33301 -19 13 -25
s19 -9 31 -9c14 0 29 2.66699 45 8s31.667 12.333 47 21l31 -56c-68 -40 -106 -62.667 -114 -68c-44 -28.667 -78 -56 -102 -82c-30 -32.667 -45 -64 -45 -94c0 -16 4.16699 -29.667 12.5 -41s22.166 -17 41.499 -17c44.667 0 97.667 25 159 75
c23.333 18.667 49 42.667 77 72l59 -66c-50.667 -46 -96 -80.333 -136 -103c-50 -28 -98.667 -42 -146 -42c-52.667 0 -94.667 14 -126 42c-27.333 24.667 -41 53.667 -41 87c0 36 10.333 68.667 31 98c32.667 46.667 88.334 85.334 167.001 116.001v8h-8
c-24 0 -44 7 -60 21c-18 16 -27 38.667 -27 68c0 69.333 39 133 117 191c72 53.333 142 80 210 80c36 0 66.167 -10 90.5 -30s36.5 -47.667 36.5 -83z" />
    <glyph glyph-name="F" unicode="F" horiz-adv-x="529" 
d="M767 682l-28.002 -68.0029l-92 1c-26.667 0 -48 -10.333 -64 -31c-21.333 -27.333 -59 -97 -113 -209l55 3c30.667 0 53.334 -1.16699 68.001 -3.5s29 -5.83301 43 -10.5l-49 -79c-13.333 8.66699 -30.666 15.5 -51.999 20.5s-42 7.5 -62 7.5l-37 -3
c-30 -59.333 -57.667 -108 -83 -146c-34.667 -52 -70.334 -92 -107.001 -120c-43.333 -33.333 -88 -50 -134 -50c-28.667 0 -54.5 8.33301 -77.5 25s-34.5 31.334 -34.5 44.001c0 6 2 11 6 15l44 48c3.33301 3.33301 6.66602 5 9.99902 5c4 0 14.833 -8.16699 32.5 -24.5
s35.5 -24.5 53.5 -24.5c34.667 0 69.334 25.333 104.001 76c19.333 28 44.333 74.333 75 139c-12 -2.66699 -25.167 -6.5 -39.5 -11.5s-29.166 -11.5 -44.499 -19.5l-34 58c21.333 10 43.5 17.833 66.5 23.5s52.5 11.167 88.5 16.5c36.667 68.667 65 117 85 145
c24 33.333 46 66 66 98c-28.667 -3.33301 -60 -11.666 -94 -24.999c-50.667 -19.333 -104 -48.666 -160 -87.999l-49 78c68 43.333 138.5 72.833 211.5 88.5s160.833 23.5 263.5 23.5z" />
    <glyph glyph-name="G" unicode="G" horiz-adv-x="571" 
d="M711 589c0 -20 -6.50195 -41.501 -19.502 -64.501s-29.5 -42.5 -49.5 -58.5l-72 46c12.667 10 24 21.667 34 35c14 18.667 21 34.667 21 48c0 12 -3.66699 21.833 -11 29.5s-19.333 11.5 -36 11.5c-73.333 0 -149.166 -46.833 -227.499 -140.5
s-117.5 -182.5 -117.5 -266.5c0 -32.667 7 -59.167 21 -79.5s35 -30.5 63 -30.5c50 0 94.667 20 134 60s63 89 71 147l89 -4c-13.333 -78 -32.666 -150.667 -57.999 -218c-33.333 -89.333 -72 -158.666 -116 -207.999c-54.667 -61.333 -117 -92 -187 -92
c-48.667 0 -90.334 16.333 -125.001 49c-27.333 26 -41 47.333 -41 64c0 4 3.33301 7.66699 10 11l54 31c6.66699 3.33301 10.667 5 12 5c22.667 0 37.334 -4.66699 44.001 -14c4 -5.33301 6 -16 6 -32c0 -16.667 2.33301 -27.667 7 -33c8.66699 -10 26.334 -15 53.001 -15
c36 0 68.667 17.333 98 52c26.667 32 67.334 100.667 122.001 206l-11 5c-48.667 -56.667 -101.334 -85 -158.001 -85s-101.334 16.333 -134.001 49s-49 76.667 -49 132c0 107.333 47.667 212.333 143 315s195.666 154 300.999 154c38.667 0 69.834 -10 93.501 -30
s35.5 -46.333 35.5 -79z" />
    <glyph glyph-name="H" unicode="H" horiz-adv-x="639" 
d="M804 639c-65.333 -100.667 -116.004 -184.665 -152.004 -251.998l47 -5l-25 -60c-3.33301 0.666992 -11.5 1.33398 -24.5 2.00098s-21.167 1 -24.5 1c-11.333 0 -30.333 -32.5 -57 -97.5s-40 -105.833 -40 -122.5c0 -15.333 7.33301 -23 22 -23
c11.333 0 30.666 6.33301 57.999 19c16 7.33301 35.333 17.666 58 30.999l-28 -76c-21.333 -12.667 -48 -25.167 -80 -37.5s-57 -18.5 -75 -18.5c-17.333 0 -31.666 5 -42.999 15c-13.333 12 -20 29.333 -20 52c0 34.667 33.333 121.667 100 261
c-33.333 0 -63.166 -1 -89.499 -3s-54.833 -6 -85.5 -12l-84 -159l-83 -158l-94 28l85 151c30 52.667 52 93.667 66 123c-25.333 -4 -45 -9 -59 -15l-41 -18c-10.667 0 -14 5.66699 -10 17l18 51c4 11.333 17.5 20.166 40.5 26.499s53.833 11.833 92.5 16.5l84 169
c25.333 52 52.333 103.667 81 155l81 -42l-62 -115l-81 -159c4 0.666992 20 2 48 4s52.667 3 74 3c4.66699 0 11.834 -0.333008 21.501 -1s16.834 -1 21.501 -1c6 0 9.83301 1.33301 11.5 4s4.33398 8.16699 8.00098 16.5s8.83398 18.166 15.501 29.499
c34 60 61.167 106.5 81.5 139.5s44.166 69.167 71.499 108.5z" />
    <glyph glyph-name="I" unicode="I" horiz-adv-x="434" 
d="M616 614c-52 -50.667 -91.334 -104.67 -118.001 -162.003c-26.667 -70 -49.334 -127.333 -68.001 -172c-22 -52 -44.667 -96.333 -68 -133c-30.667 -48.667 -62.667 -85.667 -96 -111c-40.667 -30.667 -84.334 -46 -131.001 -46c-27.333 0 -54.333 5.83301 -81 17.5
s-40 22.5 -40 32.5l2 8l44 63c2.66699 4.66699 5.33398 7.33398 8.00098 8.00098h4c4.66699 -1.33301 16 -10.5 34 -27.5s38 -25.5 60 -25.5c41.333 0 85 41 131 123l114 242c45.333 94.667 85 151.334 119 170.001l-5 10c-7.33301 -1.33301 -20.166 -3.33301 -38.499 -6
s-31.833 -4 -40.5 -4c-12.667 0 -25.5 1.5 -38.5 4.5s-24.667 6 -35 9s-20.166 4.5 -29.499 4.5c-29.333 0 -53 -10.667 -71 -32l-57 78c20 16 39.167 26.167 57.5 30.5s37.5 6.5 57.5 6.5s38.667 -2 56 -6l52 -15c26 -7.33301 47.333 -12.166 64 -14.499s29 -3.5 37 -3.5
c12.667 0 25.667 2 39 6z" />
    <glyph glyph-name="J" unicode="J" horiz-adv-x="434" 
d="M616 614c-31.333 -30 -58.3359 -63.668 -81.0029 -101.001c-16 -27.333 -37.667 -73 -65 -137c-56 -131.333 -85.667 -201.333 -89 -210c-36.667 -84 -66.667 -146 -90 -186c-33.333 -56.667 -68 -99.334 -104 -128.001c-40 -32 -84.333 -48 -133 -48
c-29.333 0 -56.833 5.66699 -82.5 17s-38.5 22.333 -38.5 33l2 8l44 63c1.33301 2.66699 4 5.33398 8 8.00098h4c7.33301 -2 19 -12 35 -30c13.333 -15.333 33 -23 59 -23c32 0 63 21.667 93 65c22 32 46.333 80.333 73 145l61 153c52.667 121.333 79.667 183 81 185
c22.667 48 43.834 84.833 63.501 110.5s44.167 46.5 73.5 62.5l-5 10c-7.33301 -1.33301 -20.166 -3.33301 -38.499 -6s-31.833 -4 -40.5 -4c-12.667 0 -25.5 1.5 -38.5 4.5s-24.667 6 -35 9s-20.166 4.5 -29.499 4.5c-29.333 0 -53 -10.667 -71 -32l-57 78
c20 16 39.167 26.167 57.5 30.5s37.5 6.5 57.5 6.5s38.667 -2 56 -6l52 -15c26 -7.33301 47.333 -12.166 64 -14.499s29 -3.5 37 -3.5c12.667 0 25.667 2 39 6z" />
    <glyph glyph-name="K" unicode="K" horiz-adv-x="611" 
d="M811 653c-40.667 -76.667 -87.665 -140.665 -140.998 -191.998c-44.667 -42.667 -91.334 -75 -140.001 -97c-10 -4.66699 -38.667 -13.667 -86 -27c-18.667 -5.33301 -28 -16.333 -28 -33c0 -50 7.33301 -98.333 22 -145c18 -56.667 40 -85 66 -85
c17.333 0 41.333 8.33301 72 25c20 10.667 39.667 23 59 37l-24 -73c-29.333 -22.667 -56 -39.334 -80 -50.001c-20 -8.66699 -37.667 -13 -53 -13c-48.667 0 -87 30.333 -115 91c-24 52 -36 111 -36 177v35.5c0 9.66699 1.33301 26.167 4 49.5l-182 -365l-93 29l343 650
l83 -46l-139 -248c9.33301 10.667 20.333 16 33 16l28 -2h27c36.667 0 76.667 20 120 60c35.333 32 70.666 74.667 105.999 128c27.333 41.333 51 81.666 71 120.999z" />
    <glyph glyph-name="L" unicode="L" horiz-adv-x="512" 
d="M638 644l-66 -46.001c-4.66699 14 -12.5 23.667 -23.5 29s-23.833 8 -38.5 8c-40.667 0 -80 -34.667 -118 -104c-1.33301 -2.66699 -35.333 -78.667 -102 -228c-45.333 -101.333 -89.333 -174.666 -132 -219.999l5 -7c15.333 6 31.166 11 47.499 15s30.833 6 43.5 6
c26.667 0 51.334 -3.33301 74.001 -10l41.5 -10.5c11.667 -3 21.5 -4.5 29.5 -4.5c16.667 0 31.167 5 43.5 15s21.833 24 28.5 42l69 -37c-11.333 -28 -26.333 -50.667 -45 -68c-28 -26 -62.333 -39 -103 -39c-14 0 -26.5 0.833008 -37.5 2.5s-29 6 -54 13
s-45.167 11.833 -60.5 14.5s-33 4 -53 4c-30 0 -60.333 -4 -91 -12c-7.33301 -2 -28 -8.33301 -62 -19l-20 59c38 13.333 71.333 42.333 100 87c21.333 33.333 51.333 96.333 90 189l71 173c30.667 66 62.334 115 95.001 147c41.333 40.667 89.666 61 144.999 61
c24 0 45.667 -3.66699 65 -11c26 -10 45.333 -26.333 58 -49z" />
    <glyph glyph-name="M" unicode="M" horiz-adv-x="879" 
d="M1019 595l-85 -146.001c-46.667 -82 -82.334 -148 -107.001 -198c-34.667 -70.667 -52 -118.334 -52 -143.001c0 -12 3 -19.667 9 -23s12 -5 18 -5c6 0.666992 11 1.33398 15 2.00098c24.667 6.66699 53.667 23 87 49l-25 -68
c-15.333 -15.333 -37.5 -30.666 -66.5 -45.999s-53.833 -23 -74.5 -23c-17.333 0 -31.333 6.16699 -42 18.5s-16 32.833 -16 61.5c0 26 7.33301 53.333 22 82l29 56l-7 4c-80.667 -87.333 -140.334 -146.666 -179.001 -177.999c-36 -29.333 -66.667 -44 -92 -44
c-19.333 0 -34.333 6.5 -45 19.5s-16 28.5 -16 46.5c0 21.333 6.66699 50.666 20 87.999c10 28 22.333 57 37 87l-7 2c-19.333 -18 -34.666 -34 -45.999 -48c-22 -27.333 -52.333 -57.666 -91 -90.999c-48 -41.333 -91 -70.333 -129 -87c-26 -11.333 -50.333 -17 -73 -17
c-32.667 0 -56.667 9.33301 -72 28c-11.333 14 -17 31.333 -17 52c0 24 8 50.333 24 79s31.333 43 46 43c2.66699 0 5.66699 -1 9 -3l51 -35c2.66699 -1.33301 4.66699 -5 6 -11c0 -4.66699 -3.33301 -10.334 -10 -17.001c-4 -4 -7.66699 -9.5 -11 -16.5
s-5 -12.167 -5 -15.5c0 -10.667 4.66699 -17.667 14 -21c4 -1.33301 7.33301 -2 10 -2c48 0 106.667 36 176 108c60 62 122 143.333 186 244c54.667 85.333 104.334 173 149.001 263l82 -47l-170 -314c-34.667 -65.333 -58.334 -114.333 -71.001 -147
c-10 -25.333 -15 -47.333 -15 -66c0 -18 5.33301 -27 16 -27c12.667 0 33 13 61 39c24 22.667 56.333 56 97 100c64.667 70.667 117.334 140 158.001 208l119 210z" />
    <glyph glyph-name="N" unicode="N" horiz-adv-x="601" 
d="M909 707c-69.333 -53.333 -130.001 -118 -182.001 -194c-42.667 -62.667 -84 -142 -124 -238c-23.333 -56 -58.333 -148.667 -105 -278l-89 10c0 28.667 -1 67.334 -3 116.001c-4.66699 113.333 -7 185.333 -7 216v148l-13 3c-38 -140 -84.333 -252.667 -139 -338
c-64.667 -100.667 -139 -159 -223 -175l-38 85c67.333 13.333 124 47 170 101c39.333 46 78.333 117 117 213c14 34.667 52 141 114 319l88 -11c0 -93.333 1.33301 -173.333 4 -240c6.66699 -166 10 -250.667 10 -254l12 -2c26.667 95.333 64.334 190.666 113.001 285.999
c60.667 118 126 209 196 273z" />
    <glyph glyph-name="O" unicode="O" horiz-adv-x="611" 
d="M716 607l-61.999 -57.998c-10 15.333 -20 27.666 -30 36.999c-24 23.333 -48.667 35 -74 35c-64.667 0 -135.334 -49.667 -212.001 -149c-78.667 -102 -118 -199.333 -118 -292c0 -40.667 10.667 -71.334 32 -92.001c16.667 -16 36 -24 58 -24
c56 0 113.333 35.667 172 107c68.667 84 103 184.333 103 301c0 8 -0.333008 20 -1 36s-1 28 -1 36l101 -60c0 -116.667 -38.667 -226.667 -116 -330c-80 -106.667 -168.667 -160 -266 -160c-50 0 -91.333 17.667 -124 53c-34.667 38 -52 89 -52 153
c0 104.667 43.333 210.667 130 318c92 114 190.333 171 295 171c34.667 0 64.5 -6.66699 89.5 -20s50.167 -34 75.5 -62z" />
    <glyph glyph-name="P" unicode="P" horiz-adv-x="602" 
d="M742 512c0 -42.667 -17.999 -83.333 -53.999 -122c-42 -45.333 -99.333 -75.333 -172 -90l-36 52c42.667 9.33301 80.334 28.333 113.001 57c36 32 54 66 54 102c0 22 -5 43 -15 63s-24.333 32.667 -43 38c-24 -27.333 -45.333 -57 -64 -89
c-14.667 -26 -32.334 -61.667 -53.001 -107l-69 -153c-22 -47.333 -42 -85 -60 -113c-29.333 -46 -61 -81.667 -95 -107c-42.667 -32 -88.334 -48 -137.001 -48c-28 0 -53.5 5.83301 -76.5 17.5s-34.5 23.167 -34.5 34.5c-0 6.66699 1.33301 11.667 4 15l36 45
c6.66699 6.66699 11 10 13 10c2.66699 0 5.33398 -2 8.00098 -6s4.66699 -6.66699 6 -8c12 -10.667 23.5 -18.667 34.5 -24s23.5 -8 37.5 -8c27.333 0 53 12 77 36c21.333 21.333 43.666 54 66.999 98c14.667 28 37.334 77.5 68.001 148.5s59.667 127.167 87 168.5
c17.333 26.667 44 60 80 100c-36.667 0 -71.667 -8 -105 -24c-56 -26.667 -113.667 -75.667 -173 -147l-60 55c52.667 66.667 114.667 114.667 186 144c57.333 23.333 120.666 35 189.999 35c62.667 0 110.667 -19 144 -57c28 -32 42 -70.667 42 -116z" />
    <glyph glyph-name="Q" unicode="Q" horiz-adv-x="611" 
d="M716 608l-62 -58.0029c-10 15.333 -20 27.666 -30 36.999c-24 23.333 -48.667 35 -74 35c-64.667 0 -135.334 -49.667 -212.001 -149c-78.667 -102 -118 -199.333 -118 -292c0 -40.667 10.667 -71.334 32 -92.001c16.667 -16 36 -24 58 -24
c10.667 0 18.334 0.333008 23.001 1s11.667 3.33398 21 8.00098c-8 10.667 -16.167 19.334 -24.5 26.001s-22.166 16.334 -41.499 29.001l37 55c20.667 -11.333 40 -25 58 -41c12.667 -11.333 24 -23.333 34 -36c42.667 36.667 77 77 103 121
c43.333 72.667 65 154.334 65 245.001c0 8 -0.333008 20 -1 36s-1 28 -1 36l101 -60c0 -85.333 -20.333 -167 -61 -245s-95.334 -140.667 -164.001 -188c42.667 -54.667 76 -118 100 -190l-75 -49c-7.33301 32.667 -20 68.334 -38 107.001s-36 70.334 -54 95.001
c-13.333 -6.66699 -28.333 -11.834 -45 -15.501s-31.667 -5.5 -45 -5.5c-50 0 -91.333 18 -124 54c-34.667 38 -52 89 -52 153c0 104.667 43.333 210.667 130 318c92 114 190.333 171 295 171c34.667 0 64.5 -6.66699 89.5 -20s50.167 -34 75.5 -62z" />
    <glyph glyph-name="R" unicode="R" horiz-adv-x="742" 
d="M795 509c0 -51.333 -24.666 -95.334 -73.999 -132.001c-39.333 -29.333 -86.666 -50 -141.999 -62c0 -72 3.66699 -125.333 11 -160c12 -58 35 -87 69 -87c6.66699 0 16.334 3.33301 29.001 10c18 9.33301 44.333 26.666 79 51.999l-24 -74
c-31.333 -24 -57 -40.333 -77 -49s-38 -13 -54 -13c-50.667 0 -85.334 39 -104.001 117c-12 50 -18 126.333 -18 229c72 10.667 126.667 33 164 67c30.667 28 46 59 46 93c0 24.667 -6.33301 46.334 -19 65.001c-16.667 24.667 -42.667 40.334 -78 47.001
c-24 -27.333 -45.333 -57 -64 -89c-15.333 -26 -33 -61.667 -53 -107l-67.5 -149c-21.667 -48 -42.167 -87 -61.5 -117c-30 -46.667 -61.667 -82.667 -95 -108c-42 -32 -87.667 -48 -137 -48c-30 0 -56 6.16699 -78 18.5s-33 23.833 -33 34.5c0 6.66699 1.33301 11.667 4 15
l35 45c4.66699 6.66699 9 10 13 10c18 0 30 -2.33301 36 -7c3.33301 -2.66699 5 -7.66699 5 -15c0 -10.667 3 -17.334 9 -20.001s18 -4 36 -4c26.667 0 52.334 12.333 77.001 37c21.333 22 43.666 55 66.999 99c15.333 30 37.333 77.667 66 143
c32 72.667 62 130.334 90 173.001c19.333 30 45.666 63 78.999 99c-40 0 -79.333 -10.333 -118 -31c-51.333 -27.333 -104.333 -74 -159 -140l-61 55c51.333 62 107.666 107.333 168.999 136s130.333 43 207 43c64.667 0 118.5 -16.5 161.5 -49.5s64.5 -75.167 64.5 -126.5z
" />
    <glyph glyph-name="S" unicode="S" horiz-adv-x="482" 
d="M622 559l-92.002 -35.998c0.666992 4 1 10.333 1 19c0 24 -5 43.333 -15 58c-13.333 19.333 -33.666 29 -60.999 29c-34.667 0 -64.167 -12.167 -88.5 -36.5s-36.5 -55.833 -36.5 -94.5c0 -24.667 8 -49.334 24 -74.001c8 -12 23.833 -31.333 47.5 -58s38.5 -44 44.5 -52
c26.667 -35.333 40 -69.666 40 -102.999c0 -52.667 -21.667 -100.334 -65 -143.001c-50 -49.333 -114 -74 -192 -74c-44.667 0 -81.667 8.33301 -111 25c-37.333 21.333 -67.333 57.666 -90 108.999l89 53c8 -29.333 21.333 -53.333 40 -72c24.667 -24 55.667 -36 93 -36
c40.667 0 74 12.667 100 38s39 54.333 39 87c0 19.333 -6.33301 39 -19 59c-7.33301 12 -21.333 29.667 -42 53c-23.333 26.667 -38.666 45 -45.999 55c-27.333 37.333 -41 77 -41 119c0 58.667 18.667 109 56 151c40 44.667 90.333 67 151 67c54 0 95.5 -13 124.5 -39
s45.5 -60.667 49.5 -104z" />
    <glyph glyph-name="T" unicode="T" horiz-adv-x="501" 
d="M767 682l-27.998 -68.0039l-92 1c-26.667 0 -46 -8 -58 -24s-48 -81.667 -108 -197c-44.667 -86.667 -77.667 -147.667 -99 -183c-40.667 -68 -80.334 -119 -119.001 -153c-48 -42.667 -98.333 -64 -151 -64c-28.667 0 -54.5 8.33301 -77.5 25s-34.5 31.334 -34.5 44.001
c0 6 2 11 6 15l44 48c3.33301 3.33301 6.66602 5 9.99902 5c4 0 14.833 -8.16699 32.5 -24.5s35.5 -24.5 53.5 -24.5c31.333 0 65.333 24.333 102 73c23.333 30.667 61.333 94.334 114 191.001c60 110 110.333 197 151 261c-28.667 -3.33301 -60 -11.666 -94 -24.999
c-50.667 -19.333 -104 -48.666 -160 -87.999l-49 78c68 43.333 138.5 72.833 211.5 88.5s160.833 23.5 263.5 23.5z" />
    <glyph glyph-name="U" unicode="U" horiz-adv-x="614" 
d="M768 603l-82 -138.003c-47.333 -82 -86.333 -152.667 -117 -212c-40 -78 -60 -126.667 -60 -146c0 -12.667 4.66699 -20.667 14 -24c4 -1.33301 8.66699 -2 14 -2c12 0 26.333 4 43 12s36.334 20.667 59.001 38l-25 -68c-26 -27.333 -52.333 -46.666 -79 -57.999
c-17.333 -7.33301 -35 -11 -53 -11c-19.333 0 -34.333 3.66699 -45 11c-16.667 11.333 -25 31 -25 59c0 25.333 6.33301 54.333 19 87c8 20.667 19.333 44 34 70l-5 5c-86 -85.333 -154.667 -146.333 -206 -183c-46 -32.667 -82.333 -49 -109 -49
c-16.667 0 -30 4.33301 -40 13c-14 12 -21 31.333 -21 58c0 28.667 16.333 78.334 49 149.001c42.667 92.667 126.667 253 252 481l81 -49l-173 -311c-30 -54 -53.5 -99.667 -70.5 -137s-25.5 -61.333 -25.5 -72c0 -6.66699 2.16699 -11.5 6.5 -14.5
s9.16602 -4.5 14.499 -4.5c14.667 0 42.334 16.667 83.001 50c16 13.333 48 42 96 86c56 52.667 102 104.334 138 155.001c31.333 44.667 83.666 130 156.999 256z" />
    <glyph glyph-name="V" unicode="V" horiz-adv-x="425" 
d="M677 641c-91.333 -100.667 -172.999 -206 -244.999 -316c-67.333 -102.667 -129 -214.334 -185 -335.001l-79 23c4.66699 44 14 137 28 279l22.5 217.5c6.33301 59 14.166 122.167 23.499 189.5l102 -26c-13.333 -93.333 -21 -145.666 -23 -156.999l-22 -136
c-16 -96 -25.333 -153.333 -28 -172l11 -3c38.667 72 71 129.667 97 173c36 61.333 69.667 114.333 101 159c35.333 50.667 76 103 122 157z" />
    <glyph glyph-name="W" unicode="W" horiz-adv-x="729" 
d="M981 641c-88 -84.667 -172.332 -183.667 -252.999 -297c-89.333 -126 -155.333 -244 -198 -354l-82 24c2 16 13.667 87.667 35 215c11.333 68.667 17 129.667 17 183l-9 4l-100 -147c-32 -48.667 -58.667 -93.667 -80 -135c-24.667 -48 -44.334 -96 -59.001 -144l-84 23
c7.33301 70.667 14 138.667 20 204c9.33301 95.333 16.833 185.5 22.5 270.5s8.5 155.833 8.5 212.5l102 -28l-22.5 -202c-5 -44.667 -16.167 -131.667 -33.5 -261l8 -3c31.333 60.667 67.333 122 108 184c44.667 68 86.667 124 126 168l5 107l62 -11l19 11l78 -54l-83 -89
l-18 -174.5c-6 -57 -13.667 -103.167 -23 -138.5l12 -4c44.667 86.667 96 170.667 154 252c48.667 68 112 147 190 237z" />
    <glyph glyph-name="X" unicode="X" horiz-adv-x="645" 
d="M869 602l-132.999 -102.997l-109 -90c-42.667 -37.333 -91.667 -83 -147 -137v-60c0 -34 4 -62 12 -84c12.667 -35.333 33.667 -53 63 -53c12.667 0 27 3.66699 43 11c23.333 10.667 47.333 25.667 72 45l-25 -71c-26.667 -23.333 -53.334 -40 -80.001 -50
c-18 -6.66699 -33.667 -10 -47 -10c-42 0 -74.333 23.333 -97 70c-14.667 30 -24.334 68.333 -29.001 115c-66.667 -62.667 -116.334 -107 -149.001 -133c-69.333 -54.667 -124.333 -82 -165 -82c-26 0 -45.5 7.66699 -58.5 23s-19.5 34.666 -19.5 57.999
c0 20 6.33301 43.833 19 71.5s24.334 41.5 35.001 41.5c4 0 8.66699 -1.66699 14 -5l42 -27c8.66699 -4.66699 13 -10.334 13 -17.001c0 -3.33301 -2.66699 -9.5 -8 -18.5s-8 -16.5 -8 -22.5c0 -14.667 6.66699 -22 20 -22c20.667 0 74.334 38.667 161.001 116
c38 33.333 71.667 64.666 101 93.999c0 77.333 5 148.833 15 214.5s27.667 140.5 53 224.5l94 -38c-21.333 -58.667 -38 -113.667 -50 -165s-18 -100 -18 -146l99 96c46 45.333 77 75.333 93 90l121 109z" />
    <glyph glyph-name="Y" unicode="Y" horiz-adv-x="541" 
d="M709 616c-29.333 -52 -71.3311 -138.666 -125.998 -259.999c-20.667 -45.333 -51.334 -102.666 -92.001 -171.999s-84.667 -119.333 -132 -150c-40 -26 -83 -39 -129 -39c-34.667 0 -66.334 9.66699 -95.001 29c-43.333 29.333 -65 57.333 -65 84
c0 4 3.33301 7.66699 10 11l54 32c4 2.66699 8 4 12 4c5.33301 0 9.5 -3.16699 12.5 -9.5s6.16699 -12.5 9.5 -18.5c12 -22 20.667 -35.667 26 -41c14.667 -15.333 33.667 -23 57 -23c34.667 0 66.667 16.667 96 50c21.333 24 48 66.667 80 128c46.667 89.333 78 147 94 173
l-8 7c-30 -36.667 -65.667 -68.334 -107 -95.001c-45.333 -29.333 -85.666 -44 -120.999 -44c-22 0 -39.333 6.83301 -52 20.5s-19 33.167 -19 58.5c0 28 6.66699 61.333 20 100c20.667 59.333 58 140 112 242l82 -44c-36 -61.333 -64.667 -115.833 -86 -163.5
s-32 -81.834 -32 -102.501c0 -8.66699 2.16699 -15.5 6.5 -20.5s11.166 -7.5 20.499 -7.5c28.667 0 67 23 115 69c56.667 54.667 115 129.667 175 225z" />
    <glyph glyph-name="Z" unicode="Z" horiz-adv-x="540" 
d="M680 643c-30 -27.333 -60.665 -58.335 -91.998 -93.002c-42.667 -47.333 -88.667 -104.666 -138 -171.999h39c17.333 0 33.5 -2 48.5 -6s22.5 -10.667 22.5 -20c0 -10.667 -3.33301 -21.667 -10 -33c-8.66699 -14 -18.334 -21 -29.001 -21c-8 0 -21 1.33301 -39 4
s-33.667 4 -47 4l-46 -3c-30 -39.333 -64.333 -78.666 -103 -117.999c-41.333 -42 -79.333 -76 -114 -102l5 -7c36 15.333 69.667 23 101 23c26.667 0 54 -3.66699 82 -11c17.333 -5.33301 31.666 -9.5 42.999 -12.5s23 -4.5 35 -4.5c14 0 26 3 36 9
c16.667 9.33301 30 25.666 40 48.999l69 -37c-11.333 -28 -26.333 -50.667 -45 -68c-28 -26 -62.667 -39 -104 -39c-19.333 0 -41.666 3 -66.999 9s-49.333 12 -72 18c-10.667 2 -21.667 3.66699 -33 5s-22.333 2 -33 2c-30 0 -60.333 -4 -91 -12
c-4 -1.33301 -24.333 -7.66602 -61 -18.999l-35 59c41.333 28.667 84 68.334 128 119.001l102 121c-2.66699 8 -4 17.333 -4 28c0 19.333 6 35 18 47s29.333 18 52 18c5.33301 0 9.66602 -0.333008 12.999 -1c54.667 70 99.334 122.667 134.001 158
c25.333 26 50.666 47.333 75.999 64l-5 7c-25.333 -12.667 -51.333 -22.834 -78 -30.501s-52 -11.5 -76 -11.5c-42.667 0 -75.334 11 -98.001 33c-18.667 18 -28 39 -28 63c0 20 5.66699 39 17 57l86 -11c-2.66699 -6 -4 -12.667 -4 -20c0 -12.667 5 -22.667 15 -30
c14.667 -11.333 39.334 -17 74.001 -17c24 0 49.333 4.83301 76 14.5s53.667 23.5 81 41.5z" />
    <glyph glyph-name="bracketleft" unicode="[" 
d="M672 690l-42.002 -76c-27.333 8 -56 12 -86 12l-39 -1l-267 -721l-3.5 -10.5c-1 -3 -1.5 -5.83301 -1.5 -8.5c0 -14 4.66699 -23.667 14 -29s20.333 -8 33 -8h21h12c11.333 0 24.666 1.33301 39.999 4l-21 -54c-9.33301 -1.33301 -25.666 -3 -48.999 -5s-41 -3 -53 -3
c-60 0 -90 21.667 -90 65c0 10.667 0.666992 18.5 2 23.5s4.33301 13.5 9 25.5l272 714l-13 -2l-15 55c21.333 9.33301 42.5 16.5 63.5 21.5s43.833 7.5 68.5 7.5c34.667 0 61.834 -0.5 81.501 -1.5s40.834 -3.83301 63.501 -8.5z" />
    <glyph glyph-name="backslash" unicode="\" horiz-adv-x="701" 
d="M702 -28l-63 -32l-440 821l63 32z" />
    <glyph glyph-name="bracketright" unicode="]" horiz-adv-x="560" 
d="M532 635c0 -10.667 -0.664062 -18.5 -1.99707 -23.5s-4.33301 -13.5 -9 -25.5l-271 -714l13 2l15 -55c-22 -9.33301 -43.333 -16.5 -64 -21.5s-43.334 -7.5 -68.001 -7.5c-31.333 0 -58.833 0.666992 -82.5 2s-44.834 4 -63.501 8l43 76c14 -4 27.5 -7 40.5 -9
s27.833 -3 44.5 -3l40 1l267 721c2.66699 8 4 14.333 4 19c0 10.667 -2 18.667 -6 24c-6.66699 8.66699 -20 13 -40 13h-21h-23c-6.66699 0 -16.334 -1.33301 -29.001 -4l20 54c9.33301 1.33301 26.166 3 50.499 5s41.833 3 52.5 3c32.667 0 56.334 -7 71.001 -21
c12 -11.333 18 -26 18 -44z" />
    <glyph glyph-name="asciicircum" unicode="^" horiz-adv-x="681" 
d="M722 449h-108l-174 214l-173 -214h-108l183 251h196z" />
    <glyph glyph-name="underscore" unicode="_" horiz-adv-x="527" 
d="M547 -196h-567v56h567v-56z" />
    <glyph glyph-name="grave" unicode="`" horiz-adv-x="308" 
d="M377 487c-2 -12 -13.334 -18.001 -34.001 -18.001c-18 0 -40.833 16.5 -68.5 49.5s-41.5 57.5 -41.5 73.5c0 8.66699 2.33301 14.334 7 17.001s10 4 16 4l38 3c4 0.666992 8.33301 1 13 1s8.33398 -2 11.001 -6s7 -14.833 13 -32.5s13 -33 21 -46l25 -40.5v-5z" />
    <glyph glyph-name="a" unicode="a" horiz-adv-x="480" 
d="M505 131l-20.998 -68c-18 -13.333 -38.667 -26.333 -62 -39c-30 -16 -53 -24 -69 -24s-29.333 4.66699 -40 14s-16 20.666 -16 33.999c0 10.667 2.66699 22.334 8 35.001l16 37l-4 1c-28.667 -27.333 -54.334 -50 -77.001 -68c-44 -35.333 -83.333 -53 -118 -53
c-20.667 0 -38.334 7.66699 -53.001 23c-18 18.667 -27 44.667 -27 78c0 50 32 109 96 177c68 72 132 108 192 108c22 0 40.667 -4 56 -12c11.333 -6 21.333 -14 30 -24l11 22l72 -38l-88 -172c-3.33301 -6.66699 -8 -17.167 -14 -31.5s-9 -23.833 -9 -28.5
c0 -12 4.33301 -18 13 -18c6.66699 0 18.667 4 36 12c22 10 44.667 21.667 68 35zM396.002 312c-5.33301 6.66699 -12.168 11.833 -20.501 15.5s-16.5 5.5 -24.5 5.5c-37.333 0 -81.333 -26.333 -132 -79s-76 -96.667 -76 -132c0 -15.333 2.83301 -26.333 8.5 -33
s12.5 -10 20.5 -10c19.333 0 50.333 17.833 93 53.5s69.334 63.5 80.001 83.5z" />
    <glyph glyph-name="b" unicode="b" horiz-adv-x="432" 
d="M474 297c0 -66.667 -34.167 -133.5 -102.5 -200.5s-133.833 -100.5 -196.5 -100.5c-12.667 0 -24.667 2.66699 -36 8c-16 8 -28.667 20.333 -38 37l-24 -43l-71 19c29.333 60.667 69.833 151.167 121.5 271.5l134.5 322.5l81 -28l-138 -293l9 -5
c42 45.333 79.667 77 113 95c22 12 43 18 63 18c21.333 0 39.333 -6.66699 54 -20c20 -18 30 -45 30 -81zM378 275c0 26 -10.333 39.001 -31 39.001c-29.333 0 -65.5 -22 -108.5 -66s-81.167 -98 -114.5 -162c8 -10.667 16.333 -17.834 25 -21.501s20.667 -5.5 36 -5.5
c36.667 0 78 26 124 78s69 98 69 138z" />
    <glyph glyph-name="c" unicode="c" horiz-adv-x="351" 
d="M418 320c0 -13.333 -4.49805 -27.834 -13.498 -43.501s-19.167 -29.167 -30.5 -40.5l-64 38c3.33301 4.66699 6.5 10.834 9.5 18.501s4.5 13.167 4.5 16.5c0 4 -1.83301 7.5 -5.5 10.5s-8.83398 4.5 -15.501 4.5c-23.333 0 -55.333 -25.333 -96 -76
c-42.667 -53.333 -64 -100.333 -64 -141c0 -9.33301 3.33301 -17.833 10 -25.5s17 -11.5 31 -11.5s31 2.66699 51 8c33.333 9.33301 79.666 27 138.999 53l-22 -68c-48.667 -22 -89.5 -38 -122.5 -48s-62.833 -15 -89.5 -15c-32.667 0 -57.167 8.16699 -73.5 24.5
s-24.5 39.833 -24.5 70.5c0 62 34.5 127.5 103.5 196.5s136.833 103.5 203.5 103.5c24.667 0 43 -8.33301 55 -25c9.33301 -13.333 14 -30 14 -50z" />
    <glyph glyph-name="d" unicode="d" horiz-adv-x="499" 
d="M614 584l-101.504 -210.499c-33.667 -70.333 -61.167 -129.833 -82.5 -178.5c-23.333 -54 -35 -86.667 -35 -98c0 -10 5 -15 15 -15c5.33301 0 15.333 3.16699 30 9.5s42 19.166 82 38.499l-20 -68c-26 -15.333 -52 -28.666 -78 -39.999c-33.333 -14.667 -57 -22 -71 -22
c-15.333 0 -27.666 4.66699 -36.999 14s-14 20.666 -14 33.999c0 11.333 2 23 6 35s9.66699 23.667 17 35l-6 4c-41.333 -48 -81.666 -82 -120.999 -102c-26.667 -13.333 -52 -20 -76 -20c-21.333 0 -39.333 7.66699 -54 23c-17.333 18 -26 44 -26 78
c0 60.667 35.5 123.5 106.5 188.5s134.833 97.5 191.5 97.5c12.667 0 25.334 -2.5 38.001 -7.5s25.334 -14.833 38.001 -29.5c40 90 77 177 111 261zM395.996 312.001c-5.33301 6.66699 -12.168 11.833 -20.501 15.5s-16.5 5.5 -24.5 5.5
c-33.333 0 -75.666 -25.667 -126.999 -77c-54 -54 -81 -101.667 -81 -143c0 -12.667 2.83301 -21.5 8.5 -26.5s14.5 -7.5 26.5 -7.5c38.667 0 82 29 130 87c40.667 49.333 70 98 88 146z" />
    <glyph glyph-name="e" unicode="e" horiz-adv-x="345" 
d="M426 322c0 -34.667 -16.333 -66.665 -49 -95.998c-48 -43.333 -128.667 -79 -242 -107c-0.666992 -2.66699 -1 -6 -1 -10v-9c0 -10.667 5.33301 -19 16 -25s25 -9 43 -9c21.333 0 48 5.66699 80 17s63.333 26.333 94 45l-22 -65c-28 -18 -60.5 -33 -97.5 -45
s-71.833 -18 -104.5 -18s-58.334 9.33301 -77.001 28c-13.333 13.333 -21.666 28.666 -24.999 45.999l-1 12l-40 -25l22 66l22 14c18.667 57.333 57.667 111.666 117 162.999c63.333 54.667 125 82 185 82c26.667 0 46.667 -6.33301 60 -19s20 -27.667 20 -45zM332 304.002
c0 12 -5.66699 18 -17 18c-24.667 0 -54.167 -16.5 -88.5 -49.5s-58.5 -64.833 -72.5 -95.5c37.333 10 74 25.667 110 47c45.333 27.333 68 54 68 80z" />
    <glyph glyph-name="f" unicode="f" horiz-adv-x="246" 
d="M484 525c0 -16 -2.33691 -31.001 -7.00391 -45.001l-85 -4c6 14 9 28 9 42c0 10.667 -2.66699 18.334 -8 23.001s-11.666 7 -18.999 7c-18.667 0 -34 -11.333 -46 -34c-5.33301 -10 -11.333 -23 -18 -39l-25 -61h37c16 0 30.833 -0.666992 44.5 -2
s29.834 -4.33301 48.501 -9l-40 -61c-26.667 7.33301 -54 11 -82 11l-32 -1l-71 -161c-40 -91.333 -70.333 -162.666 -91 -213.999c-32.667 -80.667 -60 -152.334 -82 -215.001l-94 18l256 571c-24.667 0 -62 -6.33301 -112 -19l12 61c52.667 10.667 93 16 121 16l30 73
c21.333 50.667 43.833 86.667 67.5 108s53.834 32 90.501 32c30.667 0 54.334 -8.66699 71.001 -26s25 -41 25 -71z" />
    <glyph glyph-name="g" unicode="g" horiz-adv-x="449" 
d="M519 332l-174.999 -331.999c-30.667 -58 -52 -96.333 -64 -115c-26 -39.333 -52.667 -68.333 -80 -87c-33.333 -22.667 -72.666 -34 -117.999 -34c-18.667 0 -37.667 3 -57 9c-24.667 8 -47 20 -67 36l47 70c10 -11.333 22.167 -20.833 36.5 -28.5
s30.166 -11.5 47.499 -11.5c49.333 0 92.666 30.333 129.999 91l92 156l-9 6c-34.667 -30 -65.834 -52.833 -93.501 -68.5s-54.167 -23.5 -79.5 -23.5c-31.333 0 -54.666 10 -69.999 30c-11.333 14.667 -17 32.667 -17 54c0 67.333 39.333 135.666 118 204.999
c73.333 64.667 139.333 97 198 97c16 0 29.667 -3 41 -9s23.333 -15.333 36 -28l14 20zM409.001 304.001c-8 17.333 -21 26.002 -39 26.002c-40 0 -86.667 -27.333 -140 -82s-80 -99.334 -80 -134.001c0 -8.66699 2 -16.334 6 -23.001s10.667 -10 20 -10
c28 0 63.667 18.333 107 55c51.333 43.333 93.333 99.333 126 168z" />
    <glyph glyph-name="h" unicode="h" horiz-adv-x="427" 
d="M452 131l-22 -68c-42 -25.333 -75.333 -43 -100 -53c-16 -6.66699 -28.333 -10 -37 -10c-12.667 0 -23.667 3.66699 -33 11c-12.667 10 -19 24.333 -19 43c0 19.333 9 46.666 27 81.999l35 68c12 23.333 18 37.333 18 42c0 7.33301 -4.33301 11 -13 11
c-12.667 0 -33.334 -16 -62.001 -48c-23.333 -26.667 -81.333 -98 -174 -214l-66 22c40 83.333 75.667 161.333 107 234c0.666992 2 25 62 73 180l76 180l81 -28l-181 -382l8 -6c38 46.667 69 81.334 93 104.001c43.333 40.667 79.333 61 108 61
c18 0 32.167 -6.16699 42.5 -18.5s15.5 -27.833 15.5 -46.5c0 -10.667 -21.333 -54.667 -64 -132c-6 -11.333 -11.5 -22.333 -16.5 -33s-7.5 -18 -7.5 -22c0.666992 -2.66699 1.83398 -5.5 3.50098 -8.5s4.5 -4.5 8.5 -4.5c9.33301 0 42.333 12 99 36z" />
    <glyph glyph-name="i" unicode="i" horiz-adv-x="238" 
d="M363 570c0 -15.333 -7.66699 -32.333 -23 -51c-18 -22 -37.667 -33 -59 -33c-18 0 -28.333 5.66699 -31 17v14c4.66699 23.333 12 41 22 53s20 18 30 18h34c8 0 14.5 -1 19.5 -3s7.5 -7 7.5 -15zM272 369l-127 -231.001c-9.33301 -16.667 -14 -29.667 -14 -39
c0 -7.33301 4.66699 -11 14 -11c8.66699 0 20 2.66699 34 8s41.333 17 82 35l-24 -68c-22.667 -13.333 -46.667 -25.666 -72 -36.999c-38 -17.333 -65 -26 -81 -26c-17.333 0 -31 6 -41 18s-15 26 -15 42c0 30 58 144.667 174 344z" />
    <glyph glyph-name="j" unicode="j" horiz-adv-x="183" 
d="M344 556c-2.66699 -14.667 -9.66504 -29.001 -20.998 -43.001c-14.667 -18 -32.334 -27 -53.001 -27c-12 0 -20.667 2.33301 -26 7s-8 12.667 -8 24c0 15.333 4.33301 31 13 47s19.334 24 32.001 24h34c9.33301 0 16.166 -0.666992 20.499 -2
s7.16602 -6.66602 8.49902 -15.999v-14zM268.002 367.999c-47.333 -82 -97.999 -185.331 -151.999 -309.998c-56.667 -130.667 -92 -226.334 -106 -287.001l-94 16c5.33301 19.333 10 34.666 14 45.999c10 28 25 65.333 45 112c25.333 59.333 55.666 124 90.999 194l61 120
l71 143z" />
    <glyph glyph-name="k" unicode="k" horiz-adv-x="402" 
d="M472 323c-40 -18.667 -77.6709 -38.666 -113.004 -59.999c-42.667 -26 -80 -53.333 -112 -82l3 -5l23 2c8.66699 0 16 -2.66699 22 -8s9 -14.333 9 -27c0 -5.33301 -1.33301 -10.833 -4 -16.5l-8 -16.5l-6 -24v-7c0.666992 -4.66699 2.83398 -8.83398 6.50098 -12.501
s9.16699 -5.5 16.5 -5.5c13.333 0 34.333 9.33301 63 28c20.667 13.333 39 27.333 55 42l-22 -68c-27.333 -30 -53.666 -50.667 -78.999 -62c-17.333 -8 -35.666 -12 -54.999 -12c-16.667 0 -29.667 2.33301 -39 7c-18.667 9.33301 -28 26.333 -28 51l4 46l6 27
c0 6.66699 -2.66699 10 -8 10c-9.33301 0 -31 -18.667 -65 -56c-29.333 -32.667 -51.666 -60 -66.999 -82l-68 25c8 16 22 46 42 90l83 188l131 316l81 -28l-199 -424l8 -2c37.333 43.333 82.333 86 135 128c48 38 97.667 72.333 149 103z" />
    <glyph glyph-name="l" unicode="l" horiz-adv-x="225" 
d="M340 584l-136.001 -288.001c-32 -67.333 -53.667 -114.666 -65 -141.999s-17 -46.333 -17 -57c0 -9.33301 4.66699 -14 14 -14c10.667 0 27 5.5 49 16.5l63 31.5l-20 -68c-34 -19.333 -63.833 -34.666 -89.5 -45.999s-44.5 -17 -56.5 -17c-15.333 0 -27.666 4 -36.999 12
c-11.333 10 -17 25.333 -17 46c0 23.333 7.33301 52.666 22 87.999l72 159c49.333 108 93.333 210.333 132 307z" />
    <glyph glyph-name="m" unicode="m" horiz-adv-x="556" 
d="M651 131l-22.001 -68.001c-84.667 -46 -139 -69 -163 -69c-23.333 0 -38.333 10 -45 30c-1.33301 6.66699 -2 12.334 -2 17.001c0 3.33301 1.16699 10.5 3.5 21.5s8.83301 25.5 19.5 43.5l26 41c0.666992 1.33301 5 8.33301 13 21c6 9.33301 9 16.666 9 21.999
c0 6 -3 9 -9 9c-16 0 -45.833 -21.833 -89.5 -65.5s-82.834 -90.5 -117.501 -140.5l-73 20l110 210l2 7l-5 8c-14 0 -46 -26 -96 -78c-52.667 -55.333 -96.667 -111.333 -132 -168l-74 22l191 384l70 -36l-81 -149l9 -6l98 91c42.667 38 77 57 103 57
c16 0 28.333 -4.66699 37 -14s13 -19.333 13 -30c0 -14.667 -8.33301 -35.334 -25 -62.001c-13.333 -21.333 -27.666 -40.666 -42.999 -57.999l10 -6c47.333 48 87.333 81.667 120 101c22.667 13.333 42 20 58 20c8.66699 0 17.667 -3.16699 27 -9.5s14 -16.5 14 -30.5
c0 -18.667 -13.333 -50 -40 -94l-34 -52c-8 -12 -12 -21 -12 -27c0 -2.66699 0.833008 -4.66699 2.5 -6s3.83398 -2.66602 6.50098 -3.99902c4 0 44.333 16 121 48z" />
    <glyph glyph-name="n" unicode="n" horiz-adv-x="441" 
d="M466 131l-22.002 -68c-42 -25.333 -75.333 -43 -100 -53c-16 -6.66699 -28.333 -10 -37 -10c-12.667 0 -23.667 3.66699 -33 11c-12.667 10 -19 24.333 -19 43c0 19.333 9 46.666 27 81.999l35 68c12 23.333 18 37.333 18 42c0 7.33301 -3.66699 11 -11 11s-15 -3 -23 -9
l-23 -21c-21.333 -19.333 -55.666 -56.666 -102.999 -111.999c-66 -76.667 -100.333 -116.667 -103 -120l-66 22l190 383l64 -32l-83 -167l7 -6c26.667 34.667 58.667 68.334 96 101.001c47.333 41.333 83.333 62 108 62c16 0 29.167 -5.83301 39.5 -17.5
s15.5 -26.834 15.5 -45.501c0 -10.667 -21.333 -54.667 -64 -132c-6 -11.333 -11.5 -22.333 -16.5 -33s-7.5 -18 -7.5 -22c0.666992 -2.66699 1.83398 -5.5 3.50098 -8.5s4.5 -4.5 8.5 -4.5c9.33301 0 42.333 12 99 36z" />
    <glyph glyph-name="o" unicode="o" horiz-adv-x="378" 
d="M406 291c0 -74 -26.168 -141.002 -78.501 -201.002s-111.166 -90 -176.499 -90c-40 0 -69 11.333 -87 34c-14.667 18.667 -22 43.334 -22 74.001c0 60.667 27.167 118.834 81.5 174.501s125.833 99.167 214.5 130.5l16 -58c-59.333 -18.667 -111 -52.5 -155 -101.5
s-66 -94.167 -66 -135.5c0 -19.333 4.16699 -33 12.5 -41s18.833 -12 31.5 -12c31.333 0 61.333 19.333 90 58c31.333 42 47 91.333 47 148v15v12c-1.33301 5.33301 -2 9.33301 -2 12l90 25c2.66699 -13.333 4 -28 4 -44z" />
    <glyph glyph-name="p" unicode="p" horiz-adv-x="421" 
d="M446 131l-22.001 -68c-18.667 -13.333 -41 -26.333 -67 -39c-32 -16 -56.333 -24 -73 -24c-13.333 -0 -24 2.33301 -32 7c-13.333 8 -20 21.667 -20 41c0 12.667 2.33301 25.834 7 39.501s15.667 35.5 33 65.5c30.667 52.667 46 79.667 46 81v8v3c-2.66699 6 -8 9 -16 9
c-17.333 0 -39.333 -13.667 -66 -41c-12 -12 -30.333 -34 -55 -66c-31.333 -40 -58 -80 -80 -120c-18.667 -33.333 -38.167 -73.666 -58.5 -120.999l-61.5 -144l-72 18c52.667 136 106.667 265.667 162 389s110 235.666 164 336.999l66 -32l-138 -266l10 -6
c54.667 55.333 97.334 94.166 128.001 116.499s55 33.5 73 33.5c14.667 0 26.5 -5.5 35.5 -16.5s13.5 -23.5 13.5 -37.5c0 -10.667 -2.16699 -21.667 -6.5 -33s-11.333 -26.5 -21 -45.5s-24.167 -45.167 -43.5 -78.5c-11.333 -19.333 -17 -32.333 -17 -39
c0 -8.66699 4 -13 12 -13c6.66699 0 20 4.66699 40 14z" />
    <glyph glyph-name="q" unicode="q" horiz-adv-x="449" 
d="M519 332l-162 -299.998c-33.333 -64.667 -63.333 -125.334 -90 -182.001c-12.667 -26.667 -25 -54.667 -37 -84l-92 30c26.667 53.333 51.334 99.666 74.001 138.999s49 80.666 79 123.999c15.333 21.333 25 36 29 44l-4 2c-26.667 -24.667 -50.334 -44.667 -71.001 -60
c-40 -30 -79.333 -45 -118 -45c-21.333 0 -39.333 5.33301 -54 16c-20.667 14.667 -31 37.334 -31 68.001c0 68 39 136.333 117 205c73.333 64.667 139.333 97 198 97c30 0 55.667 -12.333 77 -37l14 20zM409 304.002c-8 17.333 -20.999 25.999 -38.999 25.999
c-38 0 -84.167 -26.167 -138.5 -78.5s-81.5 -98.166 -81.5 -137.499c0 -22 8.66699 -33 26 -33c28 0 63.333 18.333 106 55c51.333 44 93.666 100 126.999 168z" />
    <glyph glyph-name="r" unicode="r" horiz-adv-x="329" 
d="M462 346l-55 -95.001c-12 16.667 -26.667 25 -44 25c-33.333 0 -82.666 -35.667 -147.999 -107c-50.667 -55.333 -88.334 -103.666 -113.001 -144.999l-19 -31l-77 22l175 384l68 -30l-75 -157l7 -3c94.667 106 170 159 226 159c22.667 0 41 -7.33301 55 -22z" />
    <glyph glyph-name="s" unicode="s" horiz-adv-x="285" 
d="M379 307l-62.001 -29c-5.33301 17.333 -12.833 28.833 -22.5 34.5s-18.834 8.5 -27.501 8.5c-14 0 -25.167 -3.83301 -33.5 -11.5s-12.5 -15.834 -12.5 -24.501s4.66699 -20.334 14 -35.001c20.667 -32.667 31.334 -49.667 32.001 -51c6 -11.333 11 -23.166 15 -35.499
s6 -24.5 6 -36.5c0 -31.333 -12 -60.333 -36 -87c-30.667 -33.333 -72 -50 -124 -50c-38.667 0 -66.334 6.5 -83.001 19.5s-25 29.167 -25 48.5c0 14 2.66699 27.333 8 40l84 11c-5.33301 -8 -8 -17.333 -8 -28c0 -7.33301 2.83301 -14.166 8.5 -20.499s14.5 -9.5 26.5 -9.5
c18.667 0 33.334 6 44.001 18s16 25.333 16 40c0 11.333 -6.66699 28.333 -20 51l-25.5 43c-8.33301 14 -14.5 25.667 -18.5 35c-6 14 -9 26.333 -9 37c0 32.667 13.833 60.5 41.5 83.5s62.834 34.5 105.501 34.5c28.667 0 52.5 -7.5 71.5 -22.5s30.5 -36.167 34.5 -63.5z
" />
    <glyph glyph-name="t" unicode="t" horiz-adv-x="270" 
d="M424 407l-36 -64.999c-8 2 -18 4 -30 6s-20.333 3 -25 3h-39l-31 -2l-65 -127c-32.667 -65.333 -49 -106.333 -49 -123c0 -10.667 5 -16 15 -16c11.333 0 32.333 7.66699 63 23l49 25l-21 -68c-44 -25.333 -77.667 -42.666 -101 -51.999
c-18 -7.33301 -32.667 -11 -44 -11c-15.333 0 -27.666 4.33301 -36.999 13c-11.333 10.667 -17 26 -17 46c0 25.333 15 71 45 137c21.333 47.333 46 96.333 74 147c-19.333 0 -36.5 -1.33301 -51.5 -4s-29.833 -6.33398 -44.5 -11.001l17 61c30 6.66699 50.667 11 62 13
s27.666 3 48.999 3l31 59c8.66699 16.667 22.667 40 42 70l72 -26c-18 -25.333 -37.333 -57.333 -58 -96l25 1h40c17.333 0 29 -0.333008 35 -1s16 -2.33398 30 -5.00098z" />
    <glyph glyph-name="u" unicode="u" horiz-adv-x="440" 
d="M465 327l-106.998 -203c-0.666992 -2.66699 -1.33398 -4.66699 -2.00098 -6c-2.66699 -6.66699 -4 -11.334 -4 -14.001c0 -10.667 5 -16 15 -16c8.66699 0 24 6 46 18s38.333 20.333 49 25l-22 -68c-20 -12.667 -43.333 -25.334 -70 -38.001
c-34.667 -16.667 -59.334 -25 -74.001 -25c-25.333 0 -40 13 -44 39v18c2 20.667 20.333 56 55 106l-4 5c-10.667 -8.66699 -40 -35 -88 -79c-64.667 -59.333 -112.334 -89 -143.001 -89c-10.667 0 -20 3.33301 -28 10c-10.667 9.33301 -16 23 -16 41
c0 18.667 9.66699 48.334 29 89.001c15.333 32.667 61.333 120.667 138 264l68 -35l-117 -221c-5.33301 -9.33301 -8.33301 -16.333 -9 -21v-5c0.666992 -8 4.33398 -12 11.001 -12c23.333 0 67 34 131 102c57.333 60.667 97 110.334 119 149.001z" />
    <glyph glyph-name="v" unicode="v" horiz-adv-x="381" 
d="M507 376l-12 -59l-69 -26c5.33301 -45.333 -29.834 -105.166 -105.501 -179.499s-138.167 -111.5 -187.5 -111.5c-24 0 -44.333 8.66699 -61 26c-20 20.667 -30 51.334 -30 92.001c0 40 12.333 87.5 37 142.5s59 107.5 103 157.5l71 -42
c-32 -37.333 -59.333 -76.333 -82 -117c-28 -50.667 -42 -94 -42 -130c0 -13.333 1.66699 -23.5 5 -30.5s11.333 -10.5 24 -10.5c22.667 0 56.834 25 102.501 75s70.5 87 74.5 111l-27 -6h-26l-9 51c16.667 17.333 29 28.666 37 33.999c12.667 8.66699 27 13 43 13
c14 0 25.5 -2.33301 34.5 -7s16.167 -11.334 21.5 -20.001z" />
    <glyph glyph-name="w" unicode="w" horiz-adv-x="638" 
d="M764 376l-12 -58.999l-69 -26c5.33301 -44.667 -30 -104.334 -106 -179.001s-138.333 -112 -187 -112c-22.667 -0 -43.334 9.33301 -62.001 28s-28 43 -28 73c-39.333 -39.333 -71.666 -66 -96.999 -80s-48.666 -21 -69.999 -21c-24 0 -44.333 8.66699 -61 26
c-20 20.667 -30 51.334 -30 92.001c0 40 12.333 87.5 37 142.5s59 107.5 103 157.5l71 -42c-32.667 -38 -60 -77 -82 -117c-28 -50.667 -42 -94 -42 -130c0 -12.667 1.83301 -23 5.5 -31s12.167 -12 25.5 -12c16.667 0 42 15.333 76 46c27.333 24.667 50 48 68 70
c0 47.333 7.33301 83.333 22 108c18 30.667 48 46 90 46c7.33301 0 13.333 -1.66699 18 -5c8 -6 12 -15.667 12 -29c0 -16.667 -4.66699 -34.667 -14 -54c-12.667 -21.333 -21.334 -36.333 -26.001 -45c-6.66699 -12 -12.167 -26 -16.5 -42s-6.5 -33 -6.5 -51
c0 -12 2.16699 -22.333 6.5 -31s12.833 -13 25.5 -13c19.333 0 52.333 24.333 99 73s72.667 87 78 115l-27 -6h-26l-8 51c13.333 16 25.333 27.333 36 34c13.333 8.66699 28 13 44 13c13.333 0 24.5 -2.33301 33.5 -7s16.167 -11.334 21.5 -20.001z" />
    <glyph glyph-name="x" unicode="x" horiz-adv-x="401" 
d="M475 353c-36 -26.667 -70.1689 -54.001 -102.502 -82.001s-66.5 -59.667 -102.5 -95c3.33301 -28.667 9.5 -50.834 18.5 -66.501s21.167 -23.5 36.5 -23.5c9.33301 0 25 5.33301 47 16s39.333 20.334 52 29.001l-22 -68c-22.667 -21.333 -44.667 -38 -66 -50
c-16 -8.66699 -30.333 -13 -43 -13c-18.667 0 -35 8.66699 -49 26c-17.333 22 -30 56.333 -38 103c-30.667 -36.667 -50.667 -59.667 -60 -69c-38.667 -40 -75.667 -60 -111 -60c-19.333 0 -34.666 5.66699 -45.999 17s-17 27.333 -17 48c0 12.667 0.333008 20.667 1 24
s2.33398 9 5.00098 17l78 38c-1.33301 -5.33301 -2.5 -10.5 -3.5 -15.5s-1.5 -10.5 -1.5 -16.5c0 -20 7.66699 -30 23 -30c14 0 54 36 120 108c-4.66699 32 -8.16699 60.5 -10.5 85.5s-3.5 50.167 -3.5 75.5c0 8 0.333008 20.333 1 37s1 29.334 1 38.001l75 -37v-66l4 -79
l72 68l79 74z" />
    <glyph glyph-name="y" unicode="y" horiz-adv-x="383" 
d="M453 326c-57.333 -102.667 -108.33 -199.002 -152.997 -289.002c-54 -109.333 -92 -197.333 -114 -264l-84 18c9.33301 34 21.666 67.333 36.999 100c12 26 30.833 61.333 56.5 106l77.5 133l-7 3c-34.667 -35.333 -66.334 -64 -95.001 -86
c-40 -30.667 -72.333 -46 -97 -46c-14 0 -25.167 5.66699 -33.5 17s-12.5 25.333 -12.5 42c0 32.667 24.667 96.334 74 191.001c16 30 45.667 82.667 89 158l70 -36l-92 -170c-18.667 -34 -30.334 -56.167 -35.001 -66.5s-7 -18.166 -7 -23.499
c0 -9.33301 3.66699 -14 11 -14h8c20 2 50.667 24.333 92 67c50 51.333 98.667 116.333 146 195z" />
    <glyph glyph-name="z" unicode="z" horiz-adv-x="361" 
d="M409 348l-25.001 -73.002c-40.667 -20.667 -85.334 -50.334 -134.001 -89.001c-51.333 -41.333 -87.666 -77.666 -108.999 -108.999c15.333 -5.33301 27.666 -9 36.999 -11s20 -3 32 -3c24.667 0 51.5 3 80.5 9s57.5 15.667 85.5 29l-21 -63
c-29.333 -12.667 -60.5 -22.167 -93.5 -28.5s-62.833 -9.5 -89.5 -9.5c-42 0 -77 5 -105 15c-16.667 6 -30.667 13.667 -42 23l12 55c18.667 28.667 44.667 56.334 78 83.001c48 38.667 116.333 82 205 130c-21.333 8.66699 -47.166 15.334 -77.499 20.001
s-70.166 7 -119.499 7l38 84c36 0 75.667 -6 119 -18s86.333 -29 129 -51z" />
    <glyph glyph-name="braceleft" unicode="{" horiz-adv-x="527" 
d="M509 -157c-65.333 0 -111.668 22.334 -139.001 67.001c-17.333 28.667 -26 65.667 -26 111l2 56l2 58c0 51.333 -11 89.333 -33 114c-17.333 19.333 -37.666 29 -60.999 29v70c28 0 50 10.667 66 32c18.667 24.667 28 61.667 28 111l-2 58l-2 56c0 64 18 111.333 54 142
c28 24 65 36 111 36v-56c-29.333 -7.33301 -50 -22.333 -62 -45c-8 -15.333 -12 -34 -12 -56l3 -56l3 -61c0 -48.667 -9.5 -87.834 -28.5 -117.501s-50.167 -54.5 -93.5 -74.5v-8c43.333 -20 74.5 -44.833 93.5 -74.5s28.5 -68.834 28.5 -117.501l-3 -61l-3 -56
c0 -22.667 3.66699 -41 11 -55c12 -23.333 33 -38.666 63 -45.999v-56z" />
    <glyph glyph-name="bar" unicode="|" horiz-adv-x="368" 
d="M314 -196h-60v1053h60v-1053z" />
    <glyph glyph-name="braceright" unicode="}" horiz-adv-x="527" 
d="M473 278c-26.667 0 -48.333 -11 -65 -33c-19.333 -25.333 -29 -62 -29 -110l2 -58l2 -56c0 -58.667 -14.333 -103 -43 -133s-69.334 -45 -122.001 -45v56c28 6.66699 48 20.334 60 41.001c9.33301 16 14 36 14 60l-3 56l-3 61c0 49.333 9.33301 88.666 28 117.999
s50 54 94 74v8c-42.667 19.333 -73.667 44 -93 74s-29 69.333 -29 118l3 61l3 56c0 24 -4.33301 43.667 -13 59c-12 21.333 -32.333 35.333 -61 42v56c44.667 0 81.334 -12 110.001 -36c36.667 -30.667 55 -78 55 -142l-2 -56l-2 -58c0 -51.333 11.333 -89.333 34 -114
c16 -17.333 36 -27 60 -29v-70z" />
    <glyph glyph-name="asciitilde" unicode="~" horiz-adv-x="604" 
d="M611 380c-14.667 -42 -31.1689 -71.667 -49.502 -89s-40.833 -26 -67.5 -26c-20.667 0 -41.334 2.33301 -62.001 7c-9.33301 2 -30.666 8.33301 -63.999 19c-8.66699 2.66699 -18.167 5.33398 -28.5 8.00098s-23.166 4 -38.499 4c-10 0 -18.667 -2 -26 -6
s-13.666 -12.333 -18.999 -25h-81c8 39.333 24.333 68.666 49 87.999c19.333 15.333 41.666 23 66.999 23c10.667 0 23.5 -1.33301 38.5 -4s28.333 -5.5 40 -8.5s34.834 -9.5 69.501 -19.5c18.667 -5.33301 32.667 -8 42 -8c10 0 19.167 3 27.5 9s14.833 15.333 19.5 28h83z
" />
    <glyph glyph-name="c128" horiz-adv-x="665" 
d="M725 203c0 -78.667 -36.6719 -163.003 -110.005 -253.003c-79.333 -97.333 -161.666 -146 -246.999 -146c-28.667 0 -56 5.5 -82 16.5s-39 22.167 -39 33.5l2 8l44 63c1.33301 2.66699 4 5.33398 8 8.00098h4c7.33301 -2 19 -12 35 -30c13.333 -15.333 33 -23 59 -23
c43.333 0 90.333 36.333 141 109s76 140 76 202c0 27.333 -2 48.333 -6 63c-6.66699 25.333 -19.334 38 -38.001 38c-17.333 0 -37.333 -5.33301 -60 -16c-33.333 -16 -75.666 -44.333 -126.999 -85c-35.333 -64.667 -70.666 -112.667 -105.999 -144
c-42.667 -38 -90.667 -57 -144 -57c-27.333 0 -54.333 5.83301 -81 17.5s-40 22.5 -40 32.5l2 8l44 63c2.66699 4.66699 5.33398 7.33398 8.00098 8.00098h4c4.66699 -1.33301 16 -10.5 34 -27.5s38 -25.5 60 -25.5c41.333 0 85 41 131 123l115 242
c45.333 94.667 84.666 151.334 117.999 170.001l-5 10c-7.33301 -1.33301 -20.166 -3.33301 -38.499 -6s-31.833 -4 -40.5 -4c-12.667 0 -25.5 1.5 -38.5 4.5s-24.667 6 -35 9s-20.166 4.5 -29.499 4.5c-29.333 0 -53 -10.667 -71 -32l-57 78c20 16 39.167 26.167 57.5 30.5
s37.5 6.5 57.5 6.5s38.667 -2 56 -6l56 -16c14.667 -4 31.5 -7.83301 50.5 -11.5s34.5 -5.5 46.5 -5.5c13.333 0 26.666 2 39.999 6l37 -55c-47.333 -46.667 -81.666 -92 -102.999 -136l-77 -171l6 -5c22.667 17.333 51.334 33.333 86.001 48s65 22 91 22
c23.333 0 43.333 -7.66699 60 -23c30.667 -28 46 -76.667 46 -146z" />
    <glyph glyph-name="c129" horiz-adv-x="501" 
d="M767 682l-27.998 -68.0039l-92 1c-26.667 0 -46 -8 -58 -24s-48 -81.667 -108 -197c-44.667 -86.667 -77.667 -147.667 -99 -183c-40.667 -68 -80.334 -119 -119.001 -153c-48 -42.667 -98.333 -64 -151 -64c-28.667 0 -54.5 8.33301 -77.5 25s-34.5 31.334 -34.5 44.001
c0 6 2 11 6 15l44 48c3.33301 3.33301 6.66602 5 9.99902 5c4 0 14.833 -8.16699 32.5 -24.5s35.5 -24.5 53.5 -24.5c31.333 0 65.333 24.333 102 73c23.333 30.667 61.333 94.334 114 191.001c60 110 110.333 197 151 261c-28.667 -3.33301 -60 -11.666 -94 -24.999
c-50.667 -19.333 -104 -48.666 -160 -87.999l-49 78c68 43.333 138.5 72.833 211.5 88.5s160.833 23.5 263.5 23.5z" />
    <glyph glyph-name="c141" horiz-adv-x="611" 
d="M811 653c-40.667 -76.667 -87.665 -140.665 -140.998 -191.998c-44.667 -42.667 -91.334 -75 -140.001 -97c-10 -4.66699 -38.667 -13.667 -86 -27c-18.667 -5.33301 -28 -16.333 -28 -33c0 -50 7.33301 -98.333 22 -145c18 -56.667 40 -85 66 -85
c17.333 0 41.333 8.33301 72 25c20 10.667 39.667 23 59 37l-24 -73c-29.333 -22.667 -56 -39.334 -80 -50.001c-20 -8.66699 -37.667 -13 -53 -13c-48.667 0 -87 30.333 -115 91c-24 52 -36 111 -36 177v35.5c0 9.66699 1.33301 26.167 4 49.5l-182 -365l-93 29l343 650
l83 -46l-139 -248c9.33301 10.667 20.333 16 33 16l28 -2h27c36.667 0 76.667 20 120 60c35.333 32 70.666 74.667 105.999 128c27.333 41.333 51 81.666 71 120.999z" />
    <glyph glyph-name="c142" horiz-adv-x="704" 
d="M729 120l-25.0039 -64.0029c-28 -20 -55.667 -35.333 -83 -46s-49 -16 -65 -16c-15.333 0 -27.333 4 -36 12c-13.333 12 -20 31.667 -20 59c0 24 5.16699 48.5 15.5 73.5s28.833 57.5 55.5 97.5c6.66699 10 13.167 22 19.5 36s9.5 25 9.5 33c0 12.667 -8.33301 19 -25 19
c-21.333 0 -52.666 -13 -93.999 -39c-28.667 -18 -55.667 -38 -81 -60c-38.667 -88 -85 -151.667 -139 -191c-40 -29.333 -82 -44 -126 -44c-27.333 0 -54.333 5.83301 -81 17.5s-40 22.5 -40 32.5l2 8l44 63c2.66699 4.66699 5.33398 7.33398 8.00098 8.00098h4
c4.66699 -1.33301 16 -10.5 34 -27.5s38 -25.5 60 -25.5c36.667 0 69.334 24.667 98.001 74c8.66699 14.667 28.334 59 59.001 133c39.333 95.333 64.666 154.333 75.999 177c35.333 72 79 122.333 131 151l-5 10c-7.33301 -1.33301 -20.166 -3.33301 -38.499 -6
s-31.833 -4 -40.5 -4c-10 0 -19.167 0.666992 -27.5 2s-17 3.33301 -26 6l-24.5 7c-7.33301 2 -15.666 3 -24.999 3c-29.333 0 -53 -10.667 -71 -32l-57 78c20 16 39.167 26.167 57.5 30.5s37.5 6.5 57.5 6.5c40.667 0 82.334 -6.5 125.001 -19.5s70.667 -19.5 84 -19.5
c12.667 0 26 2 40 6l37 -55c-42.667 -41.333 -75.667 -83 -99 -125c-15.333 -27.333 -37.333 -77.666 -66 -150.999l7 -4c33.333 26 64 44.667 92 56s54 17 78 17c22 0 39.167 -7.5 51.5 -22.5s18.5 -32.833 18.5 -53.5c0 -9.33301 -4 -22.666 -12 -39.999
s-24.667 -48 -50 -92c-17.333 -30 -28.833 -51.333 -34.5 -64s-8.5 -23 -8.5 -31c0 -18 6.66699 -27 20 -27c11.333 0 30.166 5.16699 56.499 15.5s46.166 19.5 59.499 27.5z" />
    <glyph glyph-name="c143" horiz-adv-x="614" 
d="M768 603l-82 -138.003c-47.333 -82 -86.333 -152.667 -117 -212c-40 -78 -60 -126.667 -60 -146c0 -12.667 4.66699 -20.667 14 -24c4 -1.33301 8.66699 -2 14 -2c12 0 26.333 4 43 12s36.334 20.667 59.001 38l-25 -68c-26 -27.333 -52.333 -46.666 -79 -57.999
c-17.333 -7.33301 -35 -11 -53 -11c-19.333 0 -34.333 3.66699 -45 11c-16.667 11.333 -25 31 -25 59c0 25.333 6.33301 54.333 19 87c8 20.667 19.333 44 34 70l-5 5c-86 -85.333 -154.667 -146.333 -206 -183c-46 -32.667 -82.333 -49 -109 -49
c-16.667 0 -30 4.33301 -40 13c-14 12 -21 31.333 -21 58c0 28.667 16.333 78.334 49 149.001c42.667 92.667 126.667 253 252 481l81 -49l-173 -311c-30 -54 -53.5 -99.667 -70.5 -137s-25.5 -61.333 -25.5 -72c0 -6.66699 2.16699 -11.5 6.5 -14.5
s9.16602 -4.5 14.499 -4.5c14.667 0 42.334 16.667 83.001 50c16 13.333 48 42 96 86c56 52.667 102 104.334 138 155.001c31.333 44.667 83.666 130 156.999 256zM392 75.9971l-109 -269l-74 34l141 251z" />
    <glyph glyph-name="c144" horiz-adv-x="412" 
d="M475 496l-47.001 -69.001c-16 5.33301 -33 9.5 -51 12.5s-37 4.5 -57 4.5h-12l-31 -1l-105 -208l5 -1c20.667 29.333 43.667 55 69 77c37.333 32 71.333 48 102 48c10 0 19.667 -1.66699 29 -5c34.667 -12.667 54.667 -42.334 60 -89.001v-39
c-6.66699 -75.333 -41.334 -153.666 -104.001 -234.999c-74.667 -97.333 -171 -170.666 -289 -219.999l-18 40c84.667 46.667 152.667 99 204 157c40.667 46 69.667 93.667 87 143c12 34 18 65.667 18 95c0 22 -5.33301 38.333 -16 49c-8 8 -17.333 12 -28 12
c-27.333 0 -56.666 -18.667 -87.999 -56c-37.333 -44 -77.666 -114.333 -120.999 -211l-76 29l174 409c-16 -2 -30.667 -4.66699 -44 -8s-32.666 -10 -57.999 -20l3 56c18 6.66699 34 12 48 16c22.667 6 47.667 11 75 15l54 123l87 -42l-38 -74c10 0 25.667 0.333008 47 1
s36.666 1 45.999 1c14.667 0 27 -0.833008 37 -2.5s22.667 -4.16699 38 -7.5z" />
    <glyph glyph-name="c157" horiz-adv-x="422" 
d="M478 323c-40 -18.667 -79.666 -40 -118.999 -64c-53.333 -32 -88 -58.333 -104 -79l1 -5c6 2 14 3 24 3c10.667 0 18 -3.5 22 -10.5s6 -15.167 6 -24.5c0 -6 -1.5 -11.667 -4.5 -17s-6 -11.166 -9 -17.499s-5.16699 -13.833 -6.5 -22.5v-8c0 -13.333 5.33301 -20 16 -20
c13.333 0 36.333 8.83301 69 26.5s57.667 33.167 75 46.5l-22 -68c-28 -24.667 -56.333 -43.667 -85 -57s-56.667 -20 -84 -20c-22.667 0 -38.667 7.33301 -48 22c-6.66699 10 -10 23 -10 39s3.33301 31.333 10 46c5.33301 9.33301 8.5 15 9.5 17s1.5 5.33301 1.5 10v4
c-0.666992 1.33301 -2.33398 3 -5.00098 5c-1.33301 0 -2.33301 0.333008 -3 1c-10.667 0 -32.667 -18.333 -66 -55c-26 -28.667 -48.667 -56.334 -68 -83.001l-72 21l192 382l67 -40l-111 -196l5 -2l125 116.5c42.667 39 95.667 77.167 159 114.5z" />
    <glyph glyph-name="c158" horiz-adv-x="419" 
d="M475 496l-47.002 -68.999c-16 5.33301 -33 9.5 -51 12.5s-37 4.5 -57 4.5h-12l-31 -1l-122 -242l7 -6c56.667 63.333 102.667 108 138 134c26.667 19.333 48.667 29 66 29c16 0 29.167 -5.83301 39.5 -17.5s15.5 -26.834 15.5 -45.501c0 -12 -6.33301 -29.667 -19 -53
l-44 -79c-12 -23.333 -19.167 -37.666 -21.5 -42.999s-3.5 -9.33301 -3.5 -12c0 -8.66699 4.33301 -13 13 -13s41.334 12 98.001 36l-21 -68c-42 -24.667 -72.667 -41.334 -92 -50.001s-34.333 -13 -45 -13c-12 0 -23 3.66699 -33 11c-13.333 10 -20 24.333 -20 43
c0 14.667 4.33301 32.667 13 54s25 53 49 95c3.33301 6.66699 7 13.334 11 20.001c4.66699 10 7 17.667 7 23s-2.33301 8.66602 -7 9.99902h-5c-25.333 -3.33301 -66.666 -42 -123.999 -116c-46 -60 -77.667 -106.667 -95 -140l-76 29l174 409
c-16 -2 -30.667 -4.66699 -44 -8s-32.666 -10 -57.999 -20l3 56c18 6.66699 34 12 48 16c22.667 6 47.667 11 75 15l54 123l87 -42l-38 -74c10 0 25.667 0.333008 47 1s36.666 1 45.999 1c14.667 0 27 -0.833008 37 -2.5s22.667 -4.16699 38 -7.5z" />
    <glyph glyph-name="nonbreakingspace" unicode="&#xa0;" horiz-adv-x="500" 
 />
    <glyph glyph-name="exclamdown" unicode="&#xa1;" horiz-adv-x="542" 
d="M705 802c-20.667 -30 -45.9971 -54 -75.9971 -72c-34 -20.667 -68.667 -31 -104 -31c-36 0 -63.667 11.333 -83 34c-16 18.667 -24 41 -24 67l1 21l82 3v-16c3.33301 -34 21.666 -51 54.999 -51c15.333 0 31.666 5.66699 48.999 17s37.666 31.333 60.999 60zM694.003 616
c-29.333 -52 -71.3311 -138.666 -125.998 -259.999c-20.667 -45.333 -51.334 -102.666 -92.001 -171.999s-84.667 -119.333 -132 -150c-40 -26 -83 -39 -129 -39c-34.667 0 -66.334 9.66699 -95.001 29c-43.333 29.333 -65 57.333 -65 84c0 4 3.33301 7.66699 10 11l54 32
c4 2.66699 8 4 12 4c5.33301 0 9.5 -3.16699 12.5 -9.5s6.16699 -12.5 9.5 -18.5c12 -22 20.667 -35.667 26 -41c14.667 -15.333 33.667 -23 57 -23c34.667 0 66.667 16.667 96 50c21.333 24 48 66.667 80 128c46.667 89.333 78 147 94 173l-8 7
c-30 -36.667 -65.667 -68.334 -107 -95.001c-45.333 -29.333 -85.666 -44 -120.999 -44c-22 0 -39.333 6.83301 -52 20.5s-19 33.167 -19 58.5c0 28 6.66699 61.333 20 100c20.667 59.333 58 140 112 242l82 -44c-36 -61.333 -64.667 -115.833 -86 -163.5
s-32 -81.834 -32 -102.501c0 -8.66699 2.16699 -15.5 6.5 -20.5s11.166 -7.5 20.499 -7.5c28.667 0 67 23 115 69c56.667 54.667 115 129.667 175 225z" />
    <glyph glyph-name="cent" unicode="&#xa2;" horiz-adv-x="468" 
d="M538 571c-40.667 -40 -68.668 -65 -84.001 -75c-27.333 -18 -59.666 -27 -96.999 -27c-41.333 0 -71 14 -89 42c-11.333 18 -17 37.333 -17 58v21l82 4c0 -18 2.66699 -32 8 -42c9.33301 -17.333 25 -26 47 -26c14.667 0 31.5 6.5 50.5 19.5s38.833 32.167 59.5 57.5z
M452.999 326c-57.333 -102.667 -108.33 -199.002 -152.997 -289.002c-54 -109.333 -92 -197.333 -114 -264l-84 18c9.33301 34 21.666 67.333 36.999 100c12 26 30.833 61.333 56.5 106l77.5 133l-7 3c-34.667 -35.333 -66.334 -64 -95.001 -86
c-40 -30.667 -72.333 -46 -97 -46c-14 0 -25.167 5.66699 -33.5 17s-12.5 25.333 -12.5 42c0 32.667 24.667 96.334 74 191.001c16 30 45.667 82.667 89 158l70 -36l-92 -170c-18.667 -34 -30.334 -56.167 -35.001 -66.5s-7 -18.166 -7 -23.499
c0 -9.33301 3.66699 -14 11 -14h8c20 2 50.667 24.333 92 67c50 51.333 98.667 116.333 146 195z" />
    <glyph glyph-name="sterling" unicode="&#xa3;" horiz-adv-x="434" 
d="M616 614c-31.333 -30 -58.3359 -63.668 -81.0029 -101.001c-16 -27.333 -37.667 -73 -65 -137c-56 -131.333 -85.667 -201.333 -89 -210c-36.667 -84 -66.667 -146 -90 -186c-33.333 -56.667 -68 -99.334 -104 -128.001c-40 -32 -84.333 -48 -133 -48
c-29.333 0 -56.833 5.66699 -82.5 17s-38.5 22.333 -38.5 33l2 8l44 63c1.33301 2.66699 4 5.33398 8 8.00098h4c7.33301 -2 19 -12 35 -30c13.333 -15.333 33 -23 59 -23c32 0 63 21.667 93 65c22 32 46.333 80.333 73 145l61 153c52.667 121.333 79.667 183 81 185
c22.667 48 43.834 84.833 63.501 110.5s44.167 46.5 73.5 62.5l-5 10c-7.33301 -1.33301 -20.166 -3.33301 -38.499 -6s-31.833 -4 -40.5 -4c-12.667 0 -25.5 1.5 -38.5 4.5s-24.667 6 -35 9s-20.166 4.5 -29.499 4.5c-29.333 0 -53 -10.667 -71 -32l-57 78
c20 16 39.167 26.167 57.5 30.5s37.5 6.5 57.5 6.5s38.667 -2 56 -6l52 -15c26 -7.33301 47.333 -12.166 64 -14.499s29 -3.5 37 -3.5c12.667 0 25.667 2 39 6z" />
    <glyph glyph-name="currency" unicode="&#xa4;" horiz-adv-x="774" 
d="M802 54l-40 -40l-100 101c-18 -15.333 -38 -28 -60 -38c-37.333 -17.333 -76.333 -26 -117 -26c-41.333 0 -80 8.33301 -116 25c-22 10 -42.333 23 -61 39l-100 -101l-40 40l101 100c-15.333 18 -28 38 -38 60c-17.333 37.333 -26 76.333 -26 117
c0 41.333 8.33301 80 25 116c10 22 23 42.333 39 61l-101 100l40 40l100 -101c18 15.333 38 28 60 38c37.333 17.333 76.333 26 117 26c41.333 0 80 -8.33301 116 -25c22 -10 42.333 -23 61 -39l100 101l40 -40l-101 -100c15.333 -18 28 -38 38 -60
c17.333 -37.333 26 -76.333 26 -117c0 -41.333 -8.33301 -80 -25 -116c-10 -22 -23 -42.333 -39 -61zM709 331c0 63.333 -21.833 117.5 -65.5 162.5s-96.5 67.5 -158.5 67.5s-114.833 -22.5 -158.5 -67.5s-65.5 -99.167 -65.5 -162.5s21.833 -117.5 65.5 -162.5
s96.5 -67.5 158.5 -67.5s114.833 22.5 158.5 67.5s65.5 99.167 65.5 162.5z" />
    <glyph glyph-name="yen" unicode="&#xa5;" horiz-adv-x="502" 
d="M870 764c-19.333 -32.667 -33.3291 -58.0029 -41.9961 -76.0029c-10.667 -22.667 -20.334 -49 -29.001 -79l-81 3h-114c-24.667 -32 -68.167 -109.333 -130.5 -232s-114.5 -210.334 -156.5 -263.001c-66 -82 -134.333 -123 -205 -123c-28.667 0 -54.5 8.33301 -77.5 25
s-34.5 31.334 -34.5 44.001c0 6 2 11 6 15l44 48c3.33301 3.33301 6.66602 5 9.99902 5c4 0 14.833 -8.16699 32.5 -24.5s35.5 -24.5 53.5 -24.5c34.667 0 73.667 31 117 93c22.667 32 62.667 102.333 120 211c53.333 100.667 96.666 174.334 129.999 221.001
c-28.667 -3.33301 -60 -11.666 -94 -24.999c-50.667 -19.333 -104 -48.666 -160 -87.999l-49 78c61.333 39.333 127.333 68 198 86c59.333 15.333 121.666 23 186.999 23c16 0 36.833 -0.5 62.5 -1.5s53.167 -1.83301 82.5 -2.5c15.333 39.333 30.333 68.333 45 87h85z" />
    <glyph glyph-name="brokenbar" unicode="&#xa6;" horiz-adv-x="350" 
d="M364 349c0 -16.667 -8.16602 -33.833 -24.499 -51.5s-33.833 -26.5 -52.5 -26.5c-8.66699 0 -15.334 1 -20.001 3c-10 4 -15 12 -15 24c0 16 4.5 32.5 13.5 49.5s20.167 25.5 33.5 25.5h34c8 0 13.667 -0.666992 17 -2c9.33301 -4 14 -11.333 14 -22zM238.001 69.001
c0 -16.667 -8.16602 -33.833 -24.499 -51.5s-33.833 -26.5 -52.5 -26.5c-8.66699 0 -15.334 1 -20.001 3c-10 4 -15 12 -15 24c0 16 4.5 32.5 13.5 49.5s20.167 25.5 33.5 25.5h34c8 0 13.667 -0.666992 17 -2c9.33301 -4 14 -11.333 14 -22z" />
    <glyph glyph-name="section" unicode="&#xa7;" horiz-adv-x="574" 
d="M672 558c0 -16.667 -1.00098 -29.3262 -3.00098 -37.9932l-88 1l4 27c0 16 -3.66699 29.167 -11 39.5s-17.333 15.5 -30 15.5c-17.333 0 -31.666 -5 -42.999 -15c-16.667 -14.667 -25 -37 -25 -67c0 -22.667 2.66699 -46.667 8 -72c0 -1.33301 5.33301 -23.333 16 -66
s16 -78.334 16 -107.001c0 -62 -16 -116.333 -48 -163c-36.667 -52.667 -87.667 -82.667 -153 -90c0 -56 -15.667 -102.333 -47 -139s-72 -55 -122 -55c-35.333 0 -63.833 13 -85.5 39s-32.5 56 -32.5 90l2 24h102v-25c0 -14 2.83301 -27 8.5 -39s15.167 -18 28.5 -18
c14 0 26.833 6.5 38.5 19.5s17.5 31.5 17.5 55.5c0 23.333 -2 46.666 -6 69.999c-8 34.667 -13.667 61.334 -17 80.001c-6.66699 33.333 -10 63 -10 89c0 63.333 15 118.666 45 165.999s66.667 74.666 110 81.999l18 -59c-28 -10 -48.667 -32.667 -62 -68
c-10.667 -28.667 -16 -62.334 -16 -101.001c0 -8.66699 3 -31.167 9 -67.5l14 -85.5c35.333 0 62.333 16.667 81 50s28 73.666 28 120.999c0 17.333 -1.33301 34.666 -4 51.999c-4.66699 24 -8 41.667 -10 53c-7.33301 39.333 -12.333 71.5 -15 96.5s-4 46.167 -4 63.5
c0 36.667 15.667 71 47 103c34 34.667 74.333 52 121 52c33.333 0 61.333 -10.333 84 -31s34 -48.334 34 -83.001z" />
    <glyph glyph-name="dieresis" unicode="&#xa8;" horiz-adv-x="543" 
d="M687 803c0 -16.667 -8.66699 -34.833 -26 -54.5s-36 -29.5 -56 -29.5c-12 0 -20 1.33301 -24 4s-6.66699 7 -8 13v14c4.66699 19.333 12.167 36 22.5 50s20.5 21 30.5 21l33 -1c18.667 0 28 -5.66699 28 -17zM519 803.001c0 -16.667 -8.66699 -34.833 -26 -54.5
s-36 -29.5 -56 -29.5c-12 0 -20 1.33301 -24 4s-6.66699 7 -8 13v14c4.66699 19.333 12.167 36 22.5 50s20.5 21 30.5 21l33 -1c18.667 0 28 -5.66699 28 -17zM669 592.002c0 -36.667 -16.332 -71.334 -48.999 -104.001l-71 51c11.333 15.333 19.166 27.5 23.499 36.5
s6.5 16.167 6.5 21.5c0 12.667 -3.33301 23 -10 31s-16 12 -28 12c-41.333 0 -90.833 -27.5 -148.5 -82.5s-86.5 -100.5 -86.5 -136.5c0 -10.667 4.33301 -19 13 -25s19 -9 31 -9c14 0 29 2.66699 45 8s31.667 12.333 47 21l31 -56c-68 -40 -106 -62.667 -114 -68
c-44 -28.667 -78 -56 -102 -82c-30 -32.667 -45 -64 -45 -94c0 -16 4.16699 -29.667 12.5 -41s22.166 -17 41.499 -17c44.667 0 97.667 25 159 75c23.333 18.667 49 42.667 77 72l59 -66c-50.667 -46 -96 -80.333 -136 -103c-50 -28 -98.667 -42 -146 -42
c-52.667 0 -94.667 14 -126 42c-27.333 24.667 -41 53.667 -41 87c0 36 10.333 68.667 31 98c32.667 46.667 88.334 85.334 167.001 116.001v8h-8c-24 0 -44 7 -60 21c-18 16 -27 38.667 -27 68c0 69.333 39 133 117 191c72 53.333 142 80 210 80c36 0 66.167 -10 90.5 -30
s36.5 -47.667 36.5 -83z" />
    <glyph glyph-name="copyright" unicode="&#xa9;" horiz-adv-x="840" 
d="M868 336c0 -96.667 -34.167 -179.167 -102.5 -247.5s-150.833 -102.5 -247.5 -102.5c-97.333 0 -180 34 -248 102s-102 150.667 -102 248c0 96 34 178.333 102 247s150.667 103 248 103c96.667 0 179.167 -34.167 247.5 -102.5s102.5 -150.833 102.5 -247.5zM812 336
c0 81.333 -28.668 150.666 -86.001 207.999s-126.666 86 -207.999 86s-150.666 -28.667 -207.999 -86s-86 -126.666 -86 -207.999s28.667 -150.666 86 -207.999s126.666 -86 207.999 -86c80 0 149 28.667 207 86s87 126.666 87 207.999zM650.999 463
c0 -16 -1.99902 -31.166 -5.99902 -45.499s-11.333 -29.5 -22 -45.5l-55 19c8.66699 12 14.334 22 17.001 30s4 14.333 4 19c0 20 -10.667 30 -32 30c-26.667 0 -54.667 -19.667 -84 -59c-32 -43.333 -48 -89.333 -48 -138c0 -21.333 6.33301 -38 19 -50
c10 -9.33301 21.333 -14 34 -14c16 0 34.667 5.33301 56 16c9.33301 4.66699 28.333 16 57 34l26 -42c-22 -17.333 -44.667 -32 -68 -44c-32.667 -16.667 -61.334 -25 -86.001 -25c-31.333 0 -57 9.33301 -77 28c-23.333 22 -35 52.667 -35 92c0 70 25.333 132.667 76 188
c47.333 52 95.666 78 144.999 78c20.667 0 38 -5 52 -15c18 -12.667 27 -31.334 27 -56.001z" />
    <glyph glyph-name="ordfeminine" unicode="&#xaa;" horiz-adv-x="531" 
d="M699 589c0 -21.333 -6.99805 -43.668 -20.998 -67.001c-10.667 -18 -24.667 -34.667 -42 -50l-73 44c12 9.33301 22.667 20.666 32 33.999c12 16.667 18 31.667 18 45c0 11.333 -3.66699 21 -11 29s-19.333 12 -36 12c-38.667 0 -84.667 -21 -138 -63
c-60 -47.333 -110 -107.666 -150 -180.999c29.333 11.333 54.166 18.5 74.499 21.5s44.166 4.5 71.499 4.5c19.333 0 36.666 -3.83301 51.999 -11.5s23 -18.167 23 -31.5c0 -6 -2 -12.667 -6 -20l-22 -37c-2.66699 -4 -6 -6 -10 -6c-19.333 10 -38.333 19 -57 27
s-37.667 12 -57 12c-15.333 0 -32.333 -2.33301 -51 -7c-11.333 -2.66699 -27 -7.66699 -47 -15c-8.66699 -20.667 -15.5 -42.5 -20.5 -65.5s-7.5 -45.833 -7.5 -68.5c0 -46 10.167 -79.167 30.5 -99.5s50.166 -30.5 89.499 -30.5c30.667 0 63 8 97 24
c28.667 13.333 57 32 85 56l-26 -82c-27.333 -19.333 -59.166 -35.5 -95.499 -48.5s-70.833 -19.5 -103.5 -19.5c-46.667 0 -86 16 -118 48c-36 36.667 -54 87.334 -54 152.001c0 116.667 47.5 229.667 142.5 339s195.5 164 301.5 164c38.667 0 69.834 -10 93.501 -30
s35.5 -46.333 35.5 -79z" />
    <glyph glyph-name="guillemotleft" unicode="&#xab;" horiz-adv-x="490" 
d="M476 307c-26 -28.667 -50.333 -52.334 -73 -71.001l-45 -37c0 -2.66699 4.66699 -9.66699 14 -21l71 -87l-58 -43c-19.333 30.667 -42.333 65.334 -69 104.001c-18 26 -27 42 -27 48c0 7.33301 23.667 32.666 71 75.999c31.333 28.667 55.333 52.334 72 71.001zM310 317
c-26 -25.333 -53.167 -50.333 -81.5 -75s-42.5 -38.667 -42.5 -42c0 -6 6.66699 -18.333 20 -37l76 -102l-58 -42c-20 34.667 -47 76.667 -81 126c-20.667 30.667 -31 49 -31 55s9.33301 18 28 36c63.333 60.667 104.333 102 123 124z" />
    <glyph glyph-name="logicalnot" unicode="&#xac;" horiz-adv-x="672" 
d="M679 185h-60v139h-444v56h504v-195z" />
    <glyph glyph-name="minus" unicode="&#xad;" horiz-adv-x="406" 
d="M392 254c0 -36 -12.001 -59.667 -36.001 -71c-16 -7.33301 -45 -11 -87 -11h-86h-43c-6 0 -10.333 0.333008 -13 1c-10 2.66699 -15 7.33398 -15 14.001c0 2.66699 1.33301 6.66699 4 12l26 38c5.33301 7.33301 10 11.666 14 12.999s11 2 21 2l52 -1
c24 0 73 4.33301 147 13h8c2.66699 -0.666992 5.33398 -4 8.00098 -10z" />
    <glyph glyph-name="registered" unicode="&#xae;" horiz-adv-x="840" 
d="M868 336c0 -96.667 -34.167 -179.167 -102.5 -247.5s-150.833 -102.5 -247.5 -102.5c-97.333 0 -180 34 -248 102s-102 150.667 -102 248c0 96 34 178.333 102 247s150.667 103 248 103c96.667 0 179.167 -34.167 247.5 -102.5s102.5 -150.833 102.5 -247.5zM812 336
c0 81.333 -28.668 150.666 -86.001 207.999s-126.666 86 -207.999 86s-150.666 -28.667 -207.999 -86s-86 -126.666 -86 -207.999s28.667 -150.666 86 -207.999s126.666 -86 207.999 -86c80 0 149 28.667 207 86s87 126.666 87 207.999zM707.999 436
c0 -34 -13.667 -62.0029 -41 -84.0029c-18.667 -15.333 -41.334 -26.333 -68.001 -33v-21c0 -20 1.33301 -37.667 4 -53s8.33398 -24 17.001 -26h7c5.33301 1.33301 17.333 8 36 20l24 -42c-20.667 -14 -37 -23.667 -49 -29s-22.667 -8 -32 -8c-28 0 -46.333 24.333 -55 73
c-4.66699 25.333 -7 68 -7 128c39.333 6 66.166 15 80.499 27s21.5 27.333 21.5 46c0 12.667 -4.16699 23.834 -12.5 33.501s-19.166 14.5 -32.499 14.5c-18 -16.667 -33.667 -36.667 -47 -60s-28.666 -56 -45.999 -98c-22.667 -55.333 -40.334 -92.333 -53.001 -111
c-26 -38 -56.333 -57 -91 -57c-11.333 0 -19.666 0.666992 -24.999 2l-10 56l16 -2c20.667 0 38 8 52 24c16.667 18.667 37.667 57.334 63 116.001c20 48.667 35.167 80.334 45.5 95.001s24.5 29 42.5 43c-22 0 -46.333 -9.33301 -73 -28c-22.667 -16 -42.667 -35 -60 -57
l-47 39c28.667 34.667 59.667 59.167 93 73.5s72.666 21.5 117.999 21.5c38 0 69 -9.66699 93 -29s36 -44 36 -74z" />
    <glyph glyph-name="macron" unicode="&#xaf;" horiz-adv-x="434" 
d="M724 839c0 -18 -9.5 -38.167 -28.5 -60.5s-40.167 -33.5 -63.5 -33.5c-8 0 -15.167 1 -21.5 3s-10.5 7.33301 -12.5 16v16c3.33301 18 10.5 35.667 21.5 53s22.833 26 35.5 26l38 -1c8.66699 0 16 -1 22 -3s9 -7.33301 9 -16zM578 839c0 -18 -9.5 -38.167 -28.5 -60.5
s-40.167 -33.5 -63.5 -33.5c-8 0 -15.167 1 -21.5 3s-10.5 7.33301 -12.5 16v16c4 18 10.667 34.667 20 50c12 18.667 24.333 28 37 28h38c8.66699 0 16 -1 22 -3s9 -7.33301 9 -16zM616 614c-51.333 -50 -90.333 -104.001 -117 -162.001
c-26.667 -70 -49.667 -127.333 -69 -172c-46 -108 -96 -185.333 -150 -232c-44.667 -38.667 -93 -58 -145 -58c-26.667 0 -53.5 5.83301 -80.5 17.5s-40.5 22.5 -40.5 32.5l2 8l44 63c1.33301 2.66699 4 5.33398 8 8.00098h4c16.667 -15.333 32.167 -28 46.5 -38
s30.166 -15 47.499 -15c41.333 0 84.666 40.667 129.999 122l114 241c45.333 94.667 85.333 152 120 172l-5 10c-7.33301 -1.33301 -20 -3.33301 -38 -6s-31.667 -4 -41 -4c-12.667 0 -25.5 1.5 -38.5 4.5s-24.667 6 -35 9s-20.166 4.5 -29.499 4.5
c-29.333 0 -53 -10.667 -71 -32l-57 78c20 16 39.167 26.167 57.5 30.5s37.5 6.5 57.5 6.5s38.667 -2 56 -6l52 -15c21.333 -6 40.833 -10.5 58.5 -13.5s31.834 -4.5 42.501 -4.5c12.667 0 25.667 2 39 6z" />
    <glyph glyph-name="degree" unicode="&#xb0;" horiz-adv-x="318" 
d="M458 574c0 -42.667 -14.168 -79.166 -42.501 -109.499s-61.5 -45.5 -99.5 -45.5c-30.667 0 -56 10 -76 30s-30 43.667 -30 71c0 39.333 14.667 76 44 110c32 36.667 70.333 55 115 55h29c10 0 19.667 -1 29 -3l-13 -55c-6 1.33301 -12.333 2 -19 2h-15
c-28 0 -52.333 -11.333 -73 -34s-31 -46 -31 -70c0 -16.667 4.33301 -28.834 13 -36.501s19.334 -11.5 32.001 -11.5c15.333 0 29.333 6.33301 42 19c15.333 15.333 23 34.666 23 57.999c0 14.667 -2.66699 28.334 -8 41.001l71 23c2 -6 4 -13.333 6 -22s3 -16 3 -22z" />
    <glyph glyph-name="plusminus" unicode="&#xb1;" horiz-adv-x="672" 
d="M679 345h-224v-170h-56v170h-224v56h224v209h56v-209h224v-56zM679 56h-504v56h504v-56z" />
    <glyph glyph-name="twosuperior" unicode="&#xb2;" horiz-adv-x="434" 
d="M616 614c-52 -50.667 -91.334 -104.67 -118.001 -162.003c-26.667 -70 -49.334 -127.333 -68.001 -172c-22 -52 -44.667 -96.333 -68 -133c-30.667 -48.667 -62.667 -85.667 -96 -111c-40.667 -30.667 -84.334 -46 -131.001 -46c-27.333 0 -54.333 5.83301 -81 17.5
s-40 22.5 -40 32.5l2 8l44 63c2.66699 4.66699 5.33398 7.33398 8.00098 8.00098h4c4.66699 -1.33301 16 -10.5 34 -27.5s38 -25.5 60 -25.5c41.333 0 85 41 131 123l114 242c45.333 94.667 85 151.334 119 170.001l-5 10c-7.33301 -1.33301 -20.166 -3.33301 -38.499 -6
s-31.833 -4 -40.5 -4c-12.667 0 -25.5 1.5 -38.5 4.5s-24.667 6 -35 9s-20.166 4.5 -29.499 4.5c-29.333 0 -53 -10.667 -71 -32l-57 78c20 16 39.167 26.167 57.5 30.5s37.5 6.5 57.5 6.5s38.667 -2 56 -6l52 -15c26 -7.33301 47.333 -12.166 64 -14.499s29 -3.5 37 -3.5
c12.667 0 25.667 2 39 6z" />
    <glyph glyph-name="threesuperior" unicode="&#xb3;" horiz-adv-x="238" 
d="M363 570c0 -15.333 -7.66699 -32.333 -23 -51c-18 -22 -37.667 -33 -59 -33c-18 0 -28.333 5.66699 -31 17v14c4.66699 23.333 12 41 22 53s20 18 30 18h34c8 0 14.5 -1 19.5 -3s7.5 -7 7.5 -15zM272 369l-127 -231.001c-9.33301 -16.667 -14 -29.667 -14 -39
c0 -7.33301 4.66699 -11 14 -11c8.66699 0 20 2.66699 34 8s41.333 17 82 35l-24 -68c-22.667 -13.333 -46.667 -25.666 -72 -36.999c-38 -17.333 -65 -26 -81 -26c-17.333 0 -31 6 -41 18s-15 26 -15 42c0 30 58 144.667 174 344z" />
    <glyph glyph-name="acute" unicode="&#xb4;" horiz-adv-x="331" 
d="M490 445c-4 -19.333 -9.66699 -39.5 -17 -60.5s-14.666 -39.833 -21.999 -56.5c-15.333 -2 -32.666 -3.83301 -51.999 -5.5s-33.333 -2.5 -42 -2.5l-89 3l-159 -330l-81 25l161 310l-45 1l29 61c15.333 -1.33301 34.666 -2.66602 57.999 -3.99902s41.666 -2 54.999 -2
c38.667 0 74 2 106 6c4.66699 9.33301 8.16699 18.166 10.5 26.499s4.5 17.833 6.5 28.5h81z" />
    <glyph glyph-name="mu" unicode="&#xb5;" horiz-adv-x="495" 
d="M520 327l-106.997 -202.995c-0.666992 -2.66699 -1.33398 -4.66699 -2.00098 -6c-2.66699 -6.66699 -4 -11.334 -4 -14.001c0 -10.667 5 -16 15 -16c8 0 22.333 5 43 15c12 6 29.333 15.333 52 28l-22 -68c-20 -12.667 -43.333 -25.334 -70 -38.001
c-34.667 -16.667 -59.334 -25 -74.001 -25c-20.667 0 -34.334 9 -41.001 27c-2.66699 7.33301 -4 17.666 -4 30.999c0 10 3.66699 22.333 11 37s15.333 27 24 37l-7 6c-44 -50 -78.5 -85.5 -103.5 -106.5s-44.833 -31.5 -59.5 -31.5c-10.667 0 -19.667 3.66699 -27 11
c-9.33301 9.33301 -14 22 -14 38c0 8 1.33301 15.667 4 23h-10c-17.333 -44.667 -38.5 -90.334 -63.5 -137.001l-61.5 -115l-83 38c20 25.333 41.667 54.666 65 87.999c36 52 74 111.333 114 178c53.333 88.667 105 182 155 280l68 -35l-113 -215l-7 -13.5
c-2.66699 -5 -4 -11.167 -4 -18.5c0 -14.667 6.33301 -22 19 -22c25.333 0 66.333 33 123 99c50 58.667 89 112.667 117 162z" />
    <glyph glyph-name="paragraph" unicode="&#xb6;" horiz-adv-x="526" 
d="M555 -196h-84v938h84v-938zM401 -196h-84v588c-54 0 -97.667 19.333 -131 58c-29.333 34 -44 73 -44 117s14.667 83 44 117c33.333 38.667 77 58 131 58h84v-938z" />
    <glyph glyph-name="cedilla" unicode="&#xb8;" horiz-adv-x="344" 
d="M525 570c0 -19.333 -8.83398 -38.167 -26.501 -56.5s-36.167 -27.5 -55.5 -27.5c-18 0 -28.333 5.66699 -31 17v14c4.66699 23.333 12 41 22 53s20 18 30 18h34c10.667 0 17.834 -1.5 21.501 -4.5s5.5 -7.5 5.5 -13.5zM356.999 569.999
c0 -19.333 -8.83398 -38.167 -26.501 -56.5s-36.167 -27.5 -55.5 -27.5c-18 0 -28.333 5.66699 -31 17v14c4.66699 23.333 12 41 22 53s20 18 30 18h34c10.667 0 17.834 -1.5 21.501 -4.5s5.5 -7.5 5.5 -13.5zM425.998 321.998c0 -34.667 -16.333 -66.666 -49 -95.999
c-48 -43.333 -128.667 -79 -242 -107c-0.666992 -2.66699 -1 -6 -1 -10v-9c0 -10.667 5.33301 -19 16 -25s25 -9 43 -9c21.333 0 48 5.66699 80 17s63.333 26.333 94 45l-22 -65c-28 -18 -60.5 -33 -97.5 -45s-71.833 -18 -104.5 -18c-28 0 -52.167 8.16699 -72.5 24.5
s-30.5 36.833 -30.5 61.5l-40 -25l22 66l22 14c18.667 57.333 57.667 111.666 117 162.999c63.333 54.667 125 82 185 82c26.667 0 46.667 -6.33301 60 -19s20 -27.667 20 -45zM331.998 303.999c0 12 -5.66699 18 -17 18c-24.667 0 -54.167 -16.5 -88.5 -49.5
s-58.5 -64.833 -72.5 -95.5c37.333 10 74 25.667 110 47c45.333 27.333 68 54 68 80z" />
    <glyph glyph-name="onesuperior" unicode="&#xb9;" horiz-adv-x="952" 
d="M938 278c0 -42 -17.998 -78.002 -53.998 -108.002c-33.333 -28 -69 -42 -107 -42c-23.333 0 -44 7.33301 -62 22c-20.667 17.333 -31 40 -31 68c0 52 17.833 99.333 53.5 142s78.834 64 129.501 64l12 -55c-35.333 -3.33301 -64.833 -17.333 -88.5 -42
s-37.167 -56.334 -40.5 -95.001v-18c1.33301 -12 5.66602 -21.833 12.999 -29.5s16.666 -11.5 27.999 -11.5c21.333 0 39.166 11.333 53.499 34s21.5 48.667 21.5 78c0 6.66699 -1.16699 14.334 -3.5 23.001s-5.5 17.334 -9.5 26.001l64 34
c8 -11.333 13.5 -24.666 16.5 -39.999s4.5 -32 4.5 -50zM881.002 666.998c-58.667 -42.667 -109.668 -95.002 -153.001 -157.002c-40 -57.333 -78.333 -130.333 -115 -219c-26 -62.667 -62 -162.667 -108 -300l-90 15c-14.667 139.333 -23 223 -25 251
c-5.33301 72 -8 139 -8 201l-13 3c-27.333 -128 -61.666 -230.333 -102.999 -307c-32.667 -61.333 -71 -108 -115 -140c-30 -21.333 -61.667 -35 -95 -41l-42 81c61.333 7.33301 114 38 158 92c38 46.667 73.333 116.667 106 210c20.667 59.333 49.667 159.333 87 300
l84 -14c0 -87.333 3.66699 -160.666 11 -219.999c17.333 -140.667 26 -223 26 -247l12 -2c24 94.667 59.667 189.334 107 284.001c54.667 110 113 193 175 249zM858.001 83.9961l-32 -77.001l-114 -6h-126l31 69l86 -1c28.667 0 55.167 1.33301 79.5 4
s49.5 6.33398 75.5 11.001z" />
    <glyph glyph-name="ordmasculine" unicode="&#xba;" horiz-adv-x="350" 
d="M417 320c0 -8 -1 -14.832 -3 -20.499s-5 -12.834 -9 -21.501l-91 6c3.33301 4 5.66602 8 6.99902 12s2 8 2 12c0 10.667 -5.66699 16 -17 16c-15.333 0 -39 -12.333 -71 -37c-35.333 -27.333 -53 -49.333 -53 -66c7.33301 2.66699 15.5 5.16699 24.5 7.5
s17.5 3.5 25.5 3.5c26.667 0 45.334 -1.83301 56.001 -5.5s19.667 -10.167 27 -19.5l-50 -53c-10 6.66699 -20 11.834 -30 15.501s-22.667 5.5 -38 5.5c-7.33301 0 -14.833 -0.666992 -22.5 -2s-14.167 -2.66602 -19.5 -3.99902c-8 -18 -12 -38.667 -12 -62
c0 -14 4.33301 -23.667 13 -29s18 -8 28 -8c16 0 35.333 3.33301 58 10c32 9.33301 75.667 26.333 131 51l-21 -68c-48.667 -22 -89.5 -38 -122.5 -48s-62.833 -15 -89.5 -15c-32.667 0 -57.167 8.16699 -73.5 24.5s-24.5 39.833 -24.5 70.5
c0 61.333 34.333 126.666 103 195.999s136.667 104 204 104c22 0 38.833 -6.83301 50.5 -20.5s17.5 -31.834 17.5 -54.501z" />
    <glyph glyph-name="guillemotright" unicode="&#xbb;" horiz-adv-x="490" 
d="M448 179c0 -4 -20.998 -26 -62.998 -66c-32.667 -30.667 -62.334 -62 -89.001 -94l-47 43c26 25.333 53.167 50.333 81.5 75s42.5 38.667 42.5 42c0 6 -6.66699 18.333 -20 37l-76 102l58 42c21.333 -36.667 44.666 -73.667 69.999 -111c28.667 -42.667 43 -66 43 -70z
M270.002 179c0 -7.33301 -23.667 -32.666 -71 -75.999c-31.333 -28.667 -55.333 -52.334 -72 -71.001l-43 40c24.667 28.667 48.667 52.334 72 71.001l45 37c0 2.66699 -4.66699 9.66699 -14 21l-71 87l58 43c19.333 -30.667 42.333 -65.334 69 -104.001
c18 -26 27 -42 27 -48z" />
    <glyph glyph-name="onequarter" unicode="&#xbc;" horiz-adv-x="183" 
d="M344 556c-2.66699 -14.667 -9.66504 -29.001 -20.998 -43.001c-14.667 -18 -32.334 -27 -53.001 -27c-12 0 -20.667 2.33301 -26 7s-8 12.667 -8 24c0 15.333 4.33301 31 13 47s19.334 24 32.001 24h34c9.33301 0 16.166 -0.666992 20.499 -2
s7.16602 -6.66602 8.49902 -15.999v-14zM268.002 367.999c-47.333 -82 -97.999 -185.331 -151.999 -309.998c-56.667 -130.667 -92 -226.334 -106 -287.001l-94 16c5.33301 19.333 10 34.666 14 45.999c10 28 25 65.333 45 112c25.333 59.333 55.666 124 90.999 194l61 120
l71 143z" />
    <glyph glyph-name="onehalf" unicode="&#xbd;" horiz-adv-x="482" 
d="M622 559l-92.002 -35.998c0.666992 4 1 10.333 1 19c0 24 -5 43.333 -15 58c-13.333 19.333 -33.666 29 -60.999 29c-34.667 0 -64.167 -12.167 -88.5 -36.5s-36.5 -55.833 -36.5 -94.5c0 -24.667 8 -49.334 24 -74.001c8 -12 23.833 -31.333 47.5 -58s38.5 -44 44.5 -52
c26.667 -35.333 40 -69.666 40 -102.999c0 -52.667 -21.667 -100.334 -65 -143.001c-50 -49.333 -114 -74 -192 -74c-44.667 0 -81.667 8.33301 -111 25c-37.333 21.333 -67.333 57.666 -90 108.999l89 53c8 -29.333 21.333 -53.333 40 -72c24.667 -24 55.667 -36 93 -36
c40.667 0 74 12.667 100 38s39 54.333 39 87c0 19.333 -6.33301 39 -19 59c-7.33301 12 -21.333 29.667 -42 53c-23.333 26.667 -38.666 45 -45.999 55c-27.333 37.333 -41 77 -41 119c0 58.667 18.667 109 56 151c40 44.667 90.333 67 151 67c54 0 95.5 -13 124.5 -39
s45.5 -60.667 49.5 -104z" />
    <glyph glyph-name="threequarters" unicode="&#xbe;" horiz-adv-x="285" 
d="M379 307l-62.001 -29c-5.33301 17.333 -12.833 28.833 -22.5 34.5s-18.834 8.5 -27.501 8.5c-14 0 -25.167 -3.83301 -33.5 -11.5s-12.5 -15.834 -12.5 -24.501s4.66699 -20.334 14 -35.001c20.667 -32.667 31.334 -49.667 32.001 -51c6 -11.333 11 -23.166 15 -35.499
s6 -24.5 6 -36.5c0 -31.333 -12 -60.333 -36 -87c-30.667 -33.333 -72 -50 -124 -50c-38.667 0 -66.334 6.5 -83.001 19.5s-25 29.167 -25 48.5c0 14 2.66699 27.333 8 40l84 11c-5.33301 -8 -8 -17.333 -8 -28c0 -7.33301 2.83301 -14.166 8.5 -20.499s14.5 -9.5 26.5 -9.5
c18.667 0 33.334 6 44.001 18s16 25.333 16 40c0 11.333 -6.66699 28.333 -20 51l-25.5 43c-8.33301 14 -14.5 25.667 -18.5 35c-6 14 -9 26.333 -9 37c0 32.667 13.833 60.5 41.5 83.5s62.834 34.5 105.501 34.5c28.667 0 52.5 -7.5 71.5 -22.5s30.5 -36.167 34.5 -63.5z
" />
    <glyph glyph-name="questiondown" unicode="&#xbf;" horiz-adv-x="257" 
d="M420 570c0 -21.333 -9.33301 -40.667 -28 -58s-36.667 -26 -54 -26c-12 0 -20 1.33301 -24 4s-6.66699 7 -8 13v14c5.33301 22.667 13 40.167 23 52.5s20 18.5 30 18.5h33c18.667 0 28 -6 28 -18zM291 569.999c0 -19.333 -8.83203 -38.166 -26.499 -56.499
s-36.167 -27.5 -55.5 -27.5c-18 0 -28.333 5.66699 -31 17v14c4 22 11.333 39.333 22 52s20.667 19 30 19h34c11.333 0 18.666 -1.33301 21.999 -4s5 -7.33398 5 -14.001zM282.001 368.999l-127 -231.001c-6 -11.333 -9.83301 -19.333 -11.5 -24s-2.5 -9.66699 -2.5 -15
c0 -7.33301 4.66699 -11 14 -11c8.66699 0 20 2.66699 34 8s41.333 17 82 35l-24 -68c-22.667 -13.333 -46.667 -25.666 -72 -36.999c-38 -17.333 -65 -26 -81 -26c-17.333 0 -31 6 -41 18s-15 26 -15 42c0 30 58 144.667 174 344z" />
    <glyph glyph-name="Agrave" unicode="&#xc0;" horiz-adv-x="667" 
d="M821 668l-158 -362h58l-26 -59l-55 1l-88 -254l-96 20l91 234l-128 -1c-63.333 -82 -116.666 -142 -159.999 -180c-56 -48.667 -109 -73 -159 -73c-28.667 0 -50.167 8.5 -64.5 25.5s-21.5 37.5 -21.5 61.5c0 22 6.66699 47.833 20 77.5s26 41.167 38 34.5l56 -31
c6 -3.33301 9.33301 -7.33301 10 -12v-8c-0.666992 -4 -3.83398 -11.667 -9.50098 -23s-8.5 -19.333 -8.5 -24s2.16699 -8.5 6.5 -11.5s9.5 -4.5 15.5 -4.5c29.333 0 92 54.333 188 163c-24.667 0 -63 -7.33301 -115 -22l31 65c3.33301 8.66699 5.83301 13.5 7.5 14.5
s6.5 1.5 14.5 1.5l116 7l134 158l100 116l116 127zM711 588l-11 4.99902c-8.66699 -11.333 -19.667 -24.666 -33 -39.999l-32 -37l-49 -59l-118 -149h108c20 46.667 44.333 99 73 157z" />
    <glyph glyph-name="Aacute" unicode="&#xc1;" horiz-adv-x="632" 
d="M884 650l-41.0049 -82.999c-37.333 8 -70.333 13.5 -99 16.5s-52.667 4.5 -72 4.5h-125l-99 -145c-43.333 -66 -73.333 -114 -90 -144l9 -5c26.667 24 56 43.333 88 58c37.333 17.333 74 26 110 26c32 0 55.333 -11.333 70 -34s22 -53 22 -91
c0 -67.333 -33.167 -130 -99.5 -188s-138.833 -87 -217.5 -87c-23.333 0 -42 0.666992 -56 2s-29.333 3.66602 -46 6.99902l32 59c15.333 -2.66699 32 -4 50 -4c54.667 0 108.334 24 161.001 72s79 95.333 79 142c0 16 -3.66699 28.833 -11 38.5s-19.666 14.5 -36.999 14.5
c-39.333 0 -87.666 -27.333 -144.999 -82c-59.333 -57.333 -119.666 -136 -180.999 -236l-88 38l128 207l110 175c42 64.667 82 121.667 120 171c-30 -4.66699 -63 -11.5 -99 -20.5s-80.667 -22.833 -134 -41.5l-25 71c66 26 142.333 45.333 229 58
c68.667 10 138.334 15 209.001 15c46 0 93.667 -1.66699 143 -5z" />
    <glyph glyph-name="Acircumflex" unicode="&#xc2;" horiz-adv-x="622" 
d="M762 564c0 -51.333 -26.3311 -98.999 -78.998 -142.999c-46 -38.667 -102.333 -67 -169 -85v-8h7c44 0 75 -12 93 -36c13.333 -17.333 20 -40 20 -68c0 -50 -27.667 -101.333 -83 -154c-65.333 -62 -143.333 -93 -234 -93c-25.333 0 -45.333 1.66699 -60 5s-30 9 -46 17
l29 53c19.333 -5.33301 37.666 -8 54.999 -8c60.667 0 115 19.5 163 58.5s72 78.5 72 118.5c0 20 -3 35.333 -9 46c-10 17.333 -27.333 26 -52 26c-10.667 0 -20.667 -0.666992 -30 -2s-19 -3.33301 -29 -6l-16 58c84.667 28.667 151.334 62.334 200.001 101.001
c44 34.667 66 67 66 97c0 21.333 -10.333 32 -31 32c-26.667 0 -68.334 -22.667 -125.001 -68c-48 -38 -87 -74.667 -117 -110c-22.667 -26 -46 -58 -70 -96c-18 -28 -42.333 -70 -73 -126l-98 -177l-90 23l204 363l103 189c20.667 38.667 39 74.667 55 108l79 -41l-72 -124
l7 -5c43.333 43.333 83.666 76.666 120.999 99.999c47.333 30 89.666 45 126.999 45c20.667 0 38.334 -6.33301 53.001 -19c19.333 -16.667 29 -40.334 29 -71.001z" />
    <glyph glyph-name="Atilde" unicode="&#xc3;" horiz-adv-x="501" 
d="M767 682l-27.998 -68.0039l-92 1c-26.667 0 -46 -8 -58 -24s-48 -81.667 -108 -197c-44.667 -86.667 -77.667 -147.667 -99 -183c-40.667 -68 -80.334 -119 -119.001 -153c-48 -42.667 -98.333 -64 -151 -64c-28.667 0 -54.5 8.33301 -77.5 25s-34.5 31.334 -34.5 44.001
c0 6 2 11 6 15l44 48c3.33301 3.33301 6.66602 5 9.99902 5c4 0 14.833 -8.16699 32.5 -24.5s35.5 -24.5 53.5 -24.5c31.333 0 65.333 24.333 102 73c23.333 30.667 61.333 94.334 114 191.001c60 110 110.333 197 151 261c-28.667 -3.33301 -60 -11.666 -94 -24.999
c-50.667 -19.333 -104 -48.666 -160 -87.999l-49 78c68 43.333 138.5 72.833 211.5 88.5s160.833 23.5 263.5 23.5z" />
    <glyph glyph-name="Adieresis" unicode="&#xc4;" horiz-adv-x="673" 
d="M736 429c0 -103.333 -37.9961 -200.333 -113.996 -291c-79.333 -95.333 -169 -143 -269 -143c-25.333 0 -51 4.33301 -77 13c-2 0.666992 -29.667 11.667 -83 33c-16.667 -10.667 -30 -18.334 -40 -23.001c-25.333 -12.667 -49.333 -19 -72 -19
c-22 0 -36.333 1.33301 -43 4s-10.334 5.66699 -11.001 9l-12 37c-6.66699 20 8.16602 36.833 44.499 50.5s69.5 20.5 99.5 20.5c9.33301 0 15.5 -0.166992 18.5 -0.5s5.16699 -0.833008 6.5 -1.5c8 0 22.667 15.333 44 46c16.667 24 31.667 48 45 72l83 151
c35.333 58.667 77 113.334 125 164.001l63 -36c-42.667 -53.333 -80 -109.333 -112 -168c-45.333 -84 -76 -138 -92 -162c-21.333 -32.667 -40 -57 -56 -73l-27 -24c0 -4 9.66699 -9.16699 29 -15.5s37.333 -9.5 54 -9.5c72 0 141.667 43.333 209 130
c64 82.667 96 162.334 96 239.001c0 63.333 -18 111.666 -54 144.999c-30.667 28 -67.667 42 -111 42c-32.667 0 -63.834 -10.667 -93.501 -32s-61.5 -58.666 -95.5 -111.999l-78 55c37.333 49.333 74.666 86.666 111.999 111.999c48 32.667 99.667 49 155 49
c68 0 126 -21.333 174 -64c54.667 -48.667 82 -114.667 82 -198z" />
    <glyph glyph-name="Aring" unicode="&#xc5;" horiz-adv-x="543" 
d="M669 592c0 -36.667 -16.332 -71.334 -48.999 -104.001l-71 51c11.333 15.333 19.166 27.5 23.499 36.5s6.5 16.167 6.5 21.5c0 12.667 -3.33301 23 -10 31s-16 12 -28 12c-41.333 0 -90.833 -27.5 -148.5 -82.5s-86.5 -100.5 -86.5 -136.5c0 -10.667 4.33301 -19 13 -25
s19 -9 31 -9c14 0 29 2.66699 45 8s31.667 12.333 47 21l31 -56c-68 -40 -106 -62.667 -114 -68c-44 -28.667 -78 -56 -102 -82c-30 -32.667 -45 -64 -45 -94c0 -16 4.16699 -29.667 12.5 -41s22.166 -17 41.499 -17c44.667 0 97.667 25 159 75
c23.333 18.667 49 42.667 77 72l59 -66c-50.667 -46 -96 -80.333 -136 -103c-50 -28 -98.667 -42 -146 -42c-52.667 0 -94.667 14 -126 42c-27.333 24.667 -41 53.667 -41 87c0 36 10.333 68.667 31 98c32.667 46.667 88.334 85.334 167.001 116.001v8h-8
c-24 0 -44 7 -60 21c-18 16 -27 38.667 -27 68c0 69.333 39 133 117 191c72 53.333 142 80 210 80c36 0 66.167 -10 90.5 -30s36.5 -47.667 36.5 -83z" />
    <glyph glyph-name="AE" unicode="&#xc6;" horiz-adv-x="889" 
d="M1057 551c-80.667 -59.333 -146.999 -119.664 -198.999 -180.997c-41.333 -48.667 -72.333 -97 -93 -145c-16 -36.667 -24 -67.334 -24 -92.001c0 -20 4.83301 -35.333 14.5 -46s21.5 -16 35.5 -16c14.667 0 34.334 6.33301 59.001 19s45 25.667 61 39l-22 -66
c-16.667 -16.667 -37.834 -31.334 -63.501 -44.001s-49.167 -19 -70.5 -19c-26 0 -48 7.66699 -66 23c-21.333 18 -32 42.667 -32 74c0 13.333 1.16699 26.5 3.5 39.5s8.16602 31.833 17.499 56.5l-6 6c-30.667 -26 -63 -56.333 -97 -91l-118 -126l-71 26l36 73l78 153
c34.667 65.333 70.334 129.333 107.001 192l-6 7l-37 -25c-32 -22.667 -53.333 -37.334 -64 -44.001c-41.333 -92.667 -100.666 -178.334 -177.999 -257.001c-82.667 -84 -154.667 -126 -216 -126c-28.667 0 -50 8.33301 -64 25c-9.33301 10.667 -14 22.667 -14 36
c0 38 36.667 89 110 153s164 125 272 183c10.667 23.333 22 51 34 83c16 42.667 24 71.334 24 86.001c0 19.333 -5.66699 33.666 -17 42.999s-23.333 14 -36 14c-16.667 0 -35.334 -10.667 -56.001 -32c-16.667 -17.333 -32 -37.666 -46 -60.999l-69 64
c22.667 29.333 49.834 53.333 81.501 72s63.5 28 95.5 28c39.333 0 70.666 -12.667 93.999 -38c21.333 -23.333 32 -53 32 -89c0 -15.333 -1.5 -31.666 -4.5 -48.999s-6.83301 -32.666 -11.5 -45.999l4 -4c36.667 24 70.667 48.667 102 74
c24.667 19.333 46 37.666 64 54.999l58 -32c-32 -48 -68.167 -107.833 -108.5 -179.5s-75.5 -138.167 -105.5 -199.5l10 -7c75.333 76 130.666 126 165.999 150c32 61.333 72.667 119.666 122 174.999s102 102 158 140zM376.001 295.002l-3.99805 3.99902
c-34 -22.667 -61.333 -41.5 -82 -56.5s-40 -30.167 -58 -45.5c-44.667 -38 -75.334 -67.333 -92.001 -88c-11.333 -14 -17 -25.333 -17 -34c0 -15.333 6.66699 -23 20 -23c12.667 0 30.667 10 54 30c27.333 22.667 54.333 50.334 81 83.001l58 67
c9.33301 11.333 22.666 32.333 39.999 63z" />
    <glyph glyph-name="Ccedilla" unicode="&#xc7;" horiz-adv-x="508" 
d="M606 582c0 -38.667 -17.667 -76.333 -53 -113c-38 -39.333 -92.333 -73 -163 -101v-7h12c36 0 64.833 -10.833 86.5 -32.5s32.5 -53.834 32.5 -96.501c0 -65.333 -33 -122.666 -99 -171.999c-63.333 -47.333 -133 -71 -209 -71c-44.667 0 -85.667 12.333 -123 37
c-32 21.333 -48 40.333 -48 57c0 3.33301 1.33301 6.5 4 9.5s4.33398 4.83301 5.00098 5.5l49 42c5.33301 4 9.66602 6 12.999 6c16.667 -22.667 34.667 -43.167 54 -61.5s44.333 -27.5 75 -27.5c38 0 75.333 15.333 112 46c43.333 36 65 79 65 129
c0 28.667 -6.83301 50.334 -20.5 65.001s-29.167 22 -46.5 22c-25.333 0 -49 -3.66699 -71 -11l-23 59c62 24.667 114.333 52.334 157 83.001c64 45.333 96 90.666 96 135.999c0 14.667 -3.5 26 -10.5 34s-17.833 12 -32.5 12c-24 0 -49.333 -9.16699 -76 -27.5
s-61.667 -52.5 -105 -102.5l-62 61c36.667 43.333 77.167 76.666 121.5 99.999s87.5 35 129.5 35s74.667 -12 98 -36c21.333 -22 32 -48.667 32 -80z" />
    <glyph glyph-name="Egrave" unicode="&#xc8;" horiz-adv-x="614" 
d="M768 603l-82 -138.003c-47.333 -82 -86.333 -152.667 -117 -212c-40 -78 -60 -126.667 -60 -146c0 -12.667 4.66699 -20.667 14 -24c4 -1.33301 8.66699 -2 14 -2c12 0 26.333 4 43 12s36.334 20.667 59.001 38l-25 -68c-26 -27.333 -52.333 -46.666 -79 -57.999
c-17.333 -7.33301 -35 -11 -53 -11c-19.333 0 -34.333 3.66699 -45 11c-16.667 11.333 -25 31 -25 59c0 25.333 6.33301 54.333 19 87c8 20.667 19.333 44 34 70l-5 5c-86 -85.333 -154.667 -146.333 -206 -183c-46 -32.667 -82.333 -49 -109 -49
c-16.667 0 -30 4.33301 -40 13c-14 12 -21 31.333 -21 58c0 28.667 16.333 78.334 49 149.001c42.667 92.667 126.667 253 252 481l81 -49l-173 -311c-30 -54 -53.5 -99.667 -70.5 -137s-25.5 -61.333 -25.5 -72c0 -6.66699 2.16699 -11.5 6.5 -14.5
s9.16602 -4.5 14.499 -4.5c14.667 0 42.334 16.667 83.001 50c16 13.333 48 42 96 86c56 52.667 102 104.334 138 155.001c31.333 44.667 83.666 130 156.999 256z" />
    <glyph glyph-name="Eacute" unicode="&#xc9;" horiz-adv-x="614" 
d="M782 802c-20.667 -30 -45.9971 -54 -75.9971 -72c-34 -20.667 -68.667 -31 -104 -31c-36 0 -63.667 11.333 -83 34c-16 18.667 -24 41 -24 67l1 21l82 3v-16c3.33301 -34 21.666 -51 54.999 -51c15.333 0 31.666 5.66699 48.999 17s37.666 31.333 60.999 60zM768.003 603
l-82 -138.003c-47.333 -82 -86.333 -152.667 -117 -212c-40 -78 -60 -126.667 -60 -146c0 -12.667 4.66699 -20.667 14 -24c4 -1.33301 8.66699 -2 14 -2c12 0 26.333 4 43 12s36.334 20.667 59.001 38l-25 -68c-26 -27.333 -52.333 -46.666 -79 -57.999
c-17.333 -7.33301 -35 -11 -53 -11c-19.333 0 -34.333 3.66699 -45 11c-16.667 11.333 -25 31 -25 59c0 25.333 6.33301 54.333 19 87c8 20.667 19.333 44 34 70l-5 5c-86 -85.333 -154.667 -146.333 -206 -183c-46 -32.667 -82.333 -49 -109 -49
c-16.667 0 -30 4.33301 -40 13c-14 12 -21 31.333 -21 58c0 28.667 16.333 78.334 49 149.001c42.667 92.667 126.667 253 252 481l81 -49l-173 -311c-30 -54 -53.5 -99.667 -70.5 -137s-25.5 -61.333 -25.5 -72c0 -6.66699 2.16699 -11.5 6.5 -14.5
s9.16602 -4.5 14.499 -4.5c14.667 0 42.334 16.667 83.001 50c16 13.333 48 42 96 86c56 52.667 102 104.334 138 155.001c31.333 44.667 83.666 130 156.999 256z" />
    <glyph glyph-name="Ecircumflex" unicode="&#xca;" horiz-adv-x="611" 
d="M811 653c-40.667 -76.667 -87.665 -140.665 -140.998 -191.998c-44.667 -42.667 -91.334 -75 -140.001 -97c-10 -4.66699 -38.667 -13.667 -86 -27c-18.667 -5.33301 -28 -16.333 -28 -33c0 -50 7.33301 -98.333 22 -145c18 -56.667 40 -85 66 -85
c17.333 0 41.333 8.33301 72 25c20 10.667 39.667 23 59 37l-24 -73c-29.333 -22.667 -56 -39.334 -80 -50.001c-20 -8.66699 -37.667 -13 -53 -13c-48.667 0 -87 30.333 -115 91c-24 52 -36 111 -36 177v35.5c0 9.66699 1.33301 26.167 4 49.5l-182 -365l-93 29l343 650
l83 -46l-139 -248c9.33301 10.667 20.333 16 33 16l28 -2h27c36.667 0 76.667 20 120 60c35.333 32 70.666 74.667 105.999 128c27.333 41.333 51 81.666 71 120.999z" />
    <glyph glyph-name="Edieresis" unicode="&#xcb;" horiz-adv-x="611" 
d="M751 636c-95.333 -182 -161.168 -312.166 -197.501 -390.499s-54.5 -128.166 -54.5 -149.499c0 -8 2.33301 -13.333 7 -16s10.334 -4 17.001 -4c12.667 0 30.167 5.66699 52.5 17s42.166 24 59.499 38l-24 -68c-24 -18.667 -48.333 -34.334 -73 -47.001
c-30 -15.333 -54.333 -23 -73 -23c-19.333 0 -35.5 6.5 -48.5 19.5s-19.5 30.833 -19.5 53.5c0 23.333 7.5 54.5 22.5 93.5s41.167 93.833 78.5 164.5l-7 4c-18.667 -24 -43 -53.333 -73 -88l-68 -76c-65.333 -70.667 -120.333 -119 -165 -145
c-29.333 -17.333 -57.666 -26 -84.999 -26c-20 0 -37 4 -51 12c-23.333 13.333 -35 35.666 -35 66.999c0 24 6.33301 51.167 19 81.5s25.667 41.833 39 34.5l56 -31c6 -3.33301 9.33301 -7.33301 10 -12v-8c-6 -11.333 -10.5 -20.166 -13.5 -26.499s-4.5 -12.5 -4.5 -18.5
c0 -10.667 7.33301 -16 22 -16c25.333 0 63.666 25 114.999 75c16 15.333 46 46.666 90 93.999c72.667 78.667 133.334 152 182.001 220s92.667 141.667 132 221z" />
    <glyph glyph-name="Igrave" unicode="&#xcc;" horiz-adv-x="879" 
d="M1019 595l-85 -146.001c-46.667 -82 -82.334 -148 -107.001 -198c-34.667 -70.667 -52 -118.334 -52 -143.001c0 -12 3 -19.667 9 -23s12 -5 18 -5c6 0.666992 11 1.33398 15 2.00098c24.667 6.66699 53.667 23 87 49l-25 -68
c-15.333 -15.333 -37.5 -30.666 -66.5 -45.999s-53.833 -23 -74.5 -23c-17.333 0 -31.333 6.16699 -42 18.5s-16 32.833 -16 61.5c0 26 7.33301 53.333 22 82l29 56l-7 4c-80.667 -87.333 -140.334 -146.666 -179.001 -177.999c-36 -29.333 -66.667 -44 -92 -44
c-19.333 0 -34.333 6.5 -45 19.5s-16 28.5 -16 46.5c0 21.333 6.66699 50.666 20 87.999c10 28 22.333 57 37 87l-7 2c-19.333 -18 -34.666 -34 -45.999 -48c-22 -27.333 -52.333 -57.666 -91 -90.999c-48 -41.333 -91 -70.333 -129 -87c-26 -11.333 -50.333 -17 -73 -17
c-32.667 0 -56.667 9.33301 -72 28c-11.333 14 -17 31.333 -17 52c0 24 8 50.333 24 79s31.333 43 46 43c2.66699 0 5.66699 -1 9 -3l51 -35c2.66699 -1.33301 4.66699 -5 6 -11c0 -4.66699 -3.33301 -10.334 -10 -17.001c-4 -4 -7.66699 -9.5 -11 -16.5
s-5 -12.167 -5 -15.5c0 -10.667 4.66699 -17.667 14 -21c4 -1.33301 7.33301 -2 10 -2c48 0 106.667 36 176 108c60 62 122 143.333 186 244c54.667 85.333 104.334 173 149.001 263l82 -47l-170 -314c-34.667 -65.333 -58.334 -114.333 -71.001 -147
c-10 -25.333 -15 -47.333 -15 -66c0 -18 5.33301 -27 16 -27c12.667 0 33 13 61 39c24 22.667 56.333 56 97 100c64.667 70.667 117.334 140 158.001 208l119 210z" />
    <glyph glyph-name="Iacute" unicode="&#xcd;" horiz-adv-x="639" 
d="M804 639c-65.333 -100.667 -116.004 -184.665 -152.004 -251.998l47 -5l-25 -60c-3.33301 0.666992 -11.5 1.33398 -24.5 2.00098s-21.167 1 -24.5 1c-11.333 0 -30.333 -32.5 -57 -97.5s-40 -105.833 -40 -122.5c0 -15.333 7.33301 -23 22 -23
c11.333 0 30.666 6.33301 57.999 19c16 7.33301 35.333 17.666 58 30.999l-28 -76c-21.333 -12.667 -48 -25.167 -80 -37.5s-57 -18.5 -75 -18.5c-17.333 0 -31.666 5 -42.999 15c-13.333 12 -20 29.333 -20 52c0 34.667 33.333 121.667 100 261
c-33.333 0 -63.166 -1 -89.499 -3s-54.833 -6 -85.5 -12l-84 -159l-83 -158l-94 28l85 151c30 52.667 52 93.667 66 123c-25.333 -4 -45 -9 -59 -15l-41 -18c-10.667 0 -14 5.66699 -10 17l18 51c4 11.333 17.5 20.166 40.5 26.499s53.833 11.833 92.5 16.5l84 169
c25.333 52 52.333 103.667 81 155l81 -42l-62 -115l-81 -159c4 0.666992 20 2 48 4s52.667 3 74 3c4.66699 0 11.834 -0.333008 21.501 -1s16.834 -1 21.501 -1c6 0 9.83301 1.33301 11.5 4s4.33398 8.16699 8.00098 16.5s8.83398 18.166 15.501 29.499
c34 60 61.167 106.5 81.5 139.5s44.166 69.167 71.499 108.5z" />
    <glyph glyph-name="Icircumflex" unicode="&#xce;" horiz-adv-x="611" 
d="M716 607l-61.999 -57.998c-10 15.333 -20 27.666 -30 36.999c-24 23.333 -48.667 35 -74 35c-64.667 0 -135.334 -49.667 -212.001 -149c-78.667 -102 -118 -199.333 -118 -292c0 -40.667 10.667 -71.334 32 -92.001c16.667 -16 36 -24 58 -24
c56 0 113.333 35.667 172 107c68.667 84 103 184.333 103 301c0 8 -0.333008 20 -1 36s-1 28 -1 36l101 -60c0 -116.667 -38.667 -226.667 -116 -330c-80 -106.667 -168.667 -160 -266 -160c-50 0 -91.333 17.667 -124 53c-34.667 38 -52 89 -52 153
c0 104.667 43.333 210.667 130 318c92 114 190.333 171 295 171c34.667 0 64.5 -6.66699 89.5 -20s50.167 -34 75.5 -62z" />
    <glyph glyph-name="Idieresis" unicode="&#xcf;" horiz-adv-x="719" 
d="M834 587l-82.001 -146c-45.333 -80.667 -80.333 -146.667 -105 -198c-34.667 -71.333 -52 -118.333 -52 -141c0 -8.66699 2.16699 -16 6.5 -22s11.5 -9 21.5 -9c11.333 0 25.333 3 42 9s43 18.333 79 37l-25 -69c-23.333 -13.333 -50 -25.5 -80 -36.5
s-56.667 -16.5 -80 -16.5c-21.333 0 -37.666 5.66699 -48.999 17s-17 27.333 -17 48c0 30 17.333 82.333 52 157c31.333 68 68 137.667 110 209c36.667 63.333 70.667 117 102 161h77zM984.999 679l-29.0059 -67.001c-31.333 0 -57.333 0.333008 -78 1
c-102 3.33301 -155.333 5 -160 5c-23.333 0 -41.666 -0.333008 -54.999 -1s-32.666 -3 -57.999 -7c-18.667 -27.333 -36.667 -55.666 -54 -84.999c-19.333 -33.333 -39.666 -70.333 -60.999 -111c-63.333 -122 -110.333 -207.667 -141 -257
c-40 -64 -76.667 -108.5 -110 -133.5s-73.666 -37.5 -120.999 -37.5c-28 0 -54.667 7 -80 21s-38 29 -38 45c0 4 2.66699 8.66699 8 14l38 40c4.66699 4.66699 9 7 13 7c6 0 12.667 -4.5 20 -13.5s17.5 -16.667 30.5 -23s24.5 -9.5 34.5 -9.5c34.667 0 71 27.333 109 82
c18.667 26.667 43.667 72 75 136c38.667 78.667 72.334 142 101.001 190s58.334 90.667 89.001 128c-29.333 -4.66699 -59.333 -13 -90 -25c-47.333 -18.667 -101.333 -48 -162 -88l-42 73c46 32.667 107.333 59 184 79c107.333 28 241 42 401 42
c27.333 0 62 -0.833008 104 -2.5s66 -2.5 72 -2.5z" />
    <glyph glyph-name="Eth" unicode="&#xd0;" horiz-adv-x="602" 
d="M742 512c0 -42.667 -17.999 -83.333 -53.999 -122c-42 -45.333 -99.333 -75.333 -172 -90l-36 52c42.667 9.33301 80.334 28.333 113.001 57c36 32 54 66 54 102c0 22 -5 43 -15 63s-24.333 32.667 -43 38c-24 -27.333 -45.333 -57 -64 -89
c-14.667 -26 -32.334 -61.667 -53.001 -107l-69 -153c-22 -47.333 -42 -85 -60 -113c-29.333 -46 -61 -81.667 -95 -107c-42.667 -32 -88.334 -48 -137.001 -48c-28 0 -53.5 5.83301 -76.5 17.5s-34.5 23.167 -34.5 34.5c-0 6.66699 1.33301 11.667 4 15l36 45
c6.66699 6.66699 11 10 13 10c2.66699 0 5.33398 -2 8.00098 -6s4.66699 -6.66699 6 -8c12 -10.667 23.5 -18.667 34.5 -24s23.5 -8 37.5 -8c27.333 0 53 12 77 36c21.333 21.333 43.666 54 66.999 98c14.667 28 37.334 77.5 68.001 148.5s59.667 127.167 87 168.5
c17.333 26.667 44 60 80 100c-36.667 0 -71.667 -8 -105 -24c-56 -26.667 -113.667 -75.667 -173 -147l-60 55c52.667 66.667 114.667 114.667 186 144c57.333 23.333 120.666 35 189.999 35c62.667 0 110.667 -19 144 -57c28 -32 42 -70.667 42 -116z" />
    <glyph glyph-name="Ntilde" unicode="&#xd1;" horiz-adv-x="531" 
d="M699 589c0 -26.667 -10.001 -54 -30.001 -82c-22.667 -31.333 -56.667 -61.333 -102 -90l-72 43c27.333 18 53 39.667 77 65c27.333 28.667 41 52 41 70c0 11.333 -3.66699 21 -11 29s-19.333 12 -36 12c-73.333 0 -149.166 -50.833 -227.499 -152.5
s-117.5 -197.834 -117.5 -288.501c0 -46 10.167 -79.167 30.5 -99.5s50.166 -30.5 89.499 -30.5c24.667 0 53.5 6.5 86.5 19.5s63.5 28.5 91.5 46.5l-22 -68c-26 -19.333 -57.667 -35.666 -95 -48.999s-72 -20 -104 -20c-46.667 0 -86 16 -118 48c-36 36 -54 87 -54 153
c0 116.667 47.5 229.667 142.5 339s195.5 164 301.5 164c38.667 0 69.834 -10 93.501 -30s35.5 -46.333 35.5 -79z" />
    <glyph glyph-name="Ograve" unicode="&#xd2;" horiz-adv-x="905" 
d="M1027 577c-16.667 -23.333 -45.999 -71.667 -87.999 -145c-44.667 -78.667 -80.667 -145 -108 -199c-35.333 -70 -53 -112.333 -53 -127c0 -21.333 10.667 -32 32 -32c14 0 35 6 63 18c15.333 6.66699 34 15.667 56 27l-24 -66
c-38.667 -21.333 -69.834 -36.5 -93.501 -45.5s-44.5 -13.5 -62.5 -13.5c-26 0 -44.667 7.66699 -56 23c-8 11.333 -12 27 -12 47c0 16.667 4 36.667 12 60c12.667 38 36 89 70 153c40.667 78 100 180.333 178 307zM1164 674.999l-27.002 -65.002
c-50.667 0 -128.667 3.66699 -234 11c-57.333 4 -102.666 6 -135.999 6c-17.333 0 -44 -1.33301 -80 -4s-62.667 -4 -80 -4c-30 -46.667 -81 -139.667 -153 -279c-60 -116.667 -109 -197.667 -147 -243c-57.333 -68.667 -119 -103 -185 -103c-33.333 0 -63 9.66699 -89 29
c-22 16 -33 30.333 -33 43c-0 3.33301 2.33301 7.33301 7 12l39 37c5.33301 5.33301 9.33301 8 12 8c8 0 18.833 -8.83301 32.5 -26.5s30.834 -26.5 51.501 -26.5c38 0 81 35.333 129 106c26 38 68.333 113.667 127 227c53.333 102.667 93.333 171.334 120 206.001
c-30.667 -5.33301 -62 -14.666 -94 -27.999c-43.333 -18.667 -95 -46.667 -155 -84l-44 74c65.333 42 137.833 72.667 217.5 92s181.5 29 305.5 29c145.333 0 284 -5.66699 416 -17zM818.999 593.997c-39.333 -51.333 -75.666 -112 -108.999 -182l-85 -186
c-38.667 -78 -85.334 -153.333 -140.001 -226l-85 19c36 45.333 71 100.333 105 165l76 152c33.333 66 60 117 80 153c24.667 44 46 78 64 102z" />
    <glyph glyph-name="Oacute" unicode="&#xd3;" horiz-adv-x="541" 
d="M709 616c-31.333 -56 -76.333 -147.998 -135 -275.998c-22 -48 -50 -101 -84 -159c-40 -68 -83.667 -117.333 -131 -148c-40 -26 -83 -39 -129 -39c-44.667 0 -84 15.667 -118 47c-28 26 -42 48.333 -42 67c0 4 3.33301 7.66699 10 11l54 32c4 2.66699 8 4 12 4
c5.33301 0 9.5 -3.16699 12.5 -9.5s6.16699 -12.5 9.5 -18.5c12 -22 20.667 -35.667 26 -41c14.667 -15.333 33.667 -23 57 -23c34.667 0 66.667 16.667 96 50c21.333 24 48 66.667 80 128c46.667 89.333 78 147 94 173l-8 7c-30 -36.667 -65.667 -68.334 -107 -95.001
c-45.333 -29.333 -85.666 -44 -120.999 -44c-22 0 -39.333 6.83301 -52 20.5s-19 33.167 -19 58.5c0 28 6.66699 61.333 20 100c20.667 59.333 58 140 112 242l82 -44c-36 -61.333 -64.667 -115.833 -86 -163.5s-32 -81.834 -32 -102.501
c0 -8.66699 2.16699 -15.5 6.5 -20.5s11.166 -7.5 20.499 -7.5c28.667 0 67 23 115 69c56.667 54.667 115 129.667 175 225z" />
    <glyph glyph-name="Ocircumflex" unicode="&#xd4;" horiz-adv-x="829" 
d="M948 485c0 -64.667 -33.9971 -125.335 -101.997 -182.002c-78 -65.333 -175.333 -98 -292 -98l-3 64c77.333 0 145.833 22 205.5 66s89.5 97.667 89.5 161c0 42 -17.333 63 -52 63c-28.667 0 -60.667 -13.667 -96 -41c-40.667 -31.333 -80.334 -77.666 -119.001 -138.999
c-30 -47.333 -63.667 -109.333 -101 -186l-98 -207l-91 34c16 37.333 38.667 82 68 134c33.333 60 63.666 107.333 90.999 142l-6 7c-26.667 -22 -55.334 -39.333 -86.001 -52s-57 -19 -79 -19c-30 0 -55 9.66699 -75 29c-22.667 22 -34 53 -34 93
c0 78 34.667 149.333 104 214s146 97 230 97c26 0 48 -4.5 66 -13.5s36 -24.167 54 -45.5l61 106l58 -36l-55 -96l8 -5c22 16.667 44.667 28.334 68 35.001s46.333 10 69 10c40 0 70.333 -15 91 -45c17.333 -24.667 26 -54.667 26 -90zM587.003 559.999
c-5.33301 10.667 -14.833 19.5 -28.5 26.5s-29.5 10.5 -47.5 10.5c-55.333 0 -111 -28.333 -167 -85c-53.333 -54 -80 -106 -80 -156c0 -16 5 -28.667 15 -38s23.667 -14 41 -14c52 0 102.667 26.667 152 80c38 41.333 76.333 100 115 176z" />
    <glyph glyph-name="Otilde" unicode="&#xd5;" horiz-adv-x="645" 
d="M869 602l-132.999 -102.997l-109 -90c-42.667 -37.333 -91.667 -83 -147 -137v-60c0 -34 4 -62 12 -84c12.667 -35.333 33.667 -53 63 -53c12.667 0 27 3.66699 43 11c23.333 10.667 47.333 25.667 72 45l-25 -71c-26.667 -23.333 -53.334 -40 -80.001 -50
c-18 -6.66699 -33.667 -10 -47 -10c-42 0 -74.333 23.333 -97 70c-14.667 30 -24.334 68.333 -29.001 115c-66.667 -62.667 -116.334 -107 -149.001 -133c-69.333 -54.667 -124.333 -82 -165 -82c-26 0 -45.5 7.66699 -58.5 23s-19.5 34.666 -19.5 57.999
c0 20 6.33301 43.833 19 71.5s24.334 41.5 35.001 41.5c4 0 8.66699 -1.66699 14 -5l42 -27c8.66699 -4.66699 13 -10.334 13 -17.001c0 -3.33301 -2.66699 -9.5 -8 -18.5s-8 -16.5 -8 -22.5c0 -14.667 6.66699 -22 20 -22c20.667 0 74.334 38.667 161.001 116
c38 33.333 71.667 64.666 101 93.999c0 77.333 5 148.833 15 214.5s27.667 140.5 53 224.5l94 -38c-21.333 -58.667 -38 -113.667 -50 -165s-18 -100 -18 -146l99 96c46 45.333 77 75.333 93 90l121 109z" />
    <glyph glyph-name="Odieresis" unicode="&#xd6;" horiz-adv-x="673" 
d="M757 612c-168.667 -296.667 -253.001 -464.332 -253.001 -502.999c0 -8.66699 3.16699 -15.334 9.5 -20.001s13.5 -7 21.5 -7c12 0 25 4.16699 39 12.5s34.333 24.166 61 47.499l52 -36c-38 -70.667 -64.667 -121.334 -80 -152.001
c-20.667 -41.333 -39.667 -83.333 -57 -126l-95 21c26.667 47.333 51 84.333 73 111c29.333 36.667 50.666 64.667 63.999 84l-7 10c-29.333 -23.333 -53.666 -39.666 -72.999 -48.999c-15.333 -7.33301 -29.333 -11 -42 -11c-18.667 0 -33.334 6 -44.001 18
c-12.667 14 -19 30.667 -19 50c0 14 3 30.667 9 50c9.33301 30.667 26.666 67.667 51.999 111l-12 6c-69.333 -72.667 -126.333 -127 -171 -163c-59.333 -48 -105.333 -72 -138 -72c-19.333 0 -34.666 6.66699 -45.999 20s-17 31.333 -17 54c0 28 22 90 66 186
c34 74 77.667 161.667 131 263c40.667 76.667 72.334 134.667 95.001 174l80 -43l-173 -319c-34.667 -67.333 -59 -118.666 -73 -153.999c-10 -25.333 -15 -43 -15 -53c0 -6.66699 2 -11.167 6 -13.5s8.66699 -3.5 14 -3.5c24.667 0 64 24.667 118 74
c58.667 53.333 117.334 119.333 176.001 198c67.333 90.667 124 184 170 280z" />
    <glyph glyph-name="multiply" unicode="&#xd7;" horiz-adv-x="549" 
d="M675 617c-12.667 -19.333 -39.001 -64.333 -79.001 -135c-46.667 -84 -84 -154.667 -112 -212c-38 -79.333 -57 -130.333 -57 -153c0 -12 3.83301 -21 11.5 -27s15.5 -9 23.5 -9c9.33301 0 46.666 17.333 111.999 52l-25 -67c-35.333 -26.667 -67 -45.334 -95 -56.001
c-18 -6.66699 -34.333 -10 -49 -10c-23.333 0 -42.833 7.5 -58.5 22.5s-23.5 34.5 -23.5 58.5c0 31.333 9 68.666 27 111.999c14.667 35.333 35.667 75.333 63 120c20.667 34 44 69 70 105l-10 7c-34 -32.667 -68.5 -58.167 -103.5 -76.5s-65.5 -27.5 -91.5 -27.5
c-32 0 -56.667 10 -74 30c-14.667 16.667 -22 36.334 -22 59.001c0 23.333 9.83301 57 29.5 101s54.834 108 105.501 192l80 -45c-44.667 -68.667 -76.334 -123 -95.001 -163c-12.667 -26.667 -19 -45.667 -19 -57c0 -13.333 3.83301 -23.166 11.5 -29.499
s19.834 -9.5 36.501 -9.5c28 0 56.333 11 85 33c25.333 19.333 54 50.333 86 93c24.667 33.333 55.334 79 92.001 137z" />
    <glyph glyph-name="Oslash" unicode="&#xd8;" horiz-adv-x="879" 
d="M1012 562l-85.9971 -147.001c-43.333 -76 -75.666 -136.333 -96.999 -181c-30.667 -64 -46 -107.667 -46 -131c0 -6 1.83301 -11.667 5.5 -17s10.167 -8 19.5 -8c7.33301 0 17.166 2.5 29.499 7.5s34.5 16.167 66.5 33.5l-25 -71c-19.333 -16 -40.833 -29 -64.5 -39
s-44.834 -15 -63.501 -15s-33.834 5.5 -45.501 16.5s-17.5 26.167 -17.5 45.5c0 17.333 3.5 36.333 10.5 57s16.5 43 28.5 67l-12 4c-75.333 -74.667 -136.333 -127 -183 -157c-34.667 -22 -64 -33 -88 -33c-17.333 0 -31.5 4.83301 -42.5 14.5s-16.5 24.5 -16.5 44.5
c0 19.333 5.33301 41.666 16 66.999c7.33301 18 20 43 38 75l-11 5c-34.667 -37.333 -63 -66.666 -85 -87.999c-36.667 -35.333 -69.667 -62.666 -99 -81.999c-36 -24 -67 -36 -93 -36c-16.667 0 -31 4.33301 -43 13c-16 11.333 -24 27.666 -24 48.999
c0 29.333 21 90 63 182c31.333 68.667 74.666 155.334 129.999 260.001l103 187l80 -44l-224 -418c-31.333 -61.333 -47 -97.666 -47 -108.999c0 -6 1.83301 -11.167 5.5 -15.5s8.83398 -6.5 15.501 -6.5c14.667 0 44 18.667 88 56
c13.333 11.333 28.666 25.666 45.999 42.999c44.667 44.667 85 91.334 121 140.001c29.333 40 61 89.333 95 148l97 175l80 -46l-91 -156c-45.333 -80 -82.333 -148.667 -111 -206c-36 -72 -54 -117 -54 -135c0 -8.66699 1.16699 -15.334 3.5 -20.001s7.16602 -7 14.499 -7
c9.33301 0 24 7 44 21c23.333 16 47 35.333 71 58c44.667 41.333 84.334 84.333 119.001 129c31.333 40 63 86.333 95 139l106 181z" />
    <glyph glyph-name="Ugrave" unicode="&#xd9;" horiz-adv-x="936" 
d="M1020 563c-72.667 -124 -127.334 -220.331 -164.001 -288.998c-28.667 -54 -48.667 -95.667 -60 -125c-6 -16 -9 -29 -9 -39v-13c2 -14.667 10 -22 24 -22c14.667 0 34.334 8 59.001 24c18.667 12 35.334 24.667 50.001 38l53 -35c-41.333 -68.667 -72 -122 -92 -160
s-39 -78.667 -57 -122l-91 30c20.667 38 40 68.667 58 92l77 98l-8 5c-32 -20.667 -50.667 -32.334 -56 -35.001c-20 -10.667 -39 -16 -57 -16c-18.667 0 -33.167 4.83301 -43.5 14.5s-15.5 24.5 -15.5 44.5c0 16 3.16699 34 9.5 54s17.166 45 32.499 75l-10 4
c-70.667 -76.667 -133 -130.667 -187 -162c-34.667 -20 -63.667 -30 -87 -30c-18 0 -32.333 4.66699 -43 14s-16 21.666 -16 36.999c0 16 3.83301 34.833 11.5 56.5s22.167 53.167 43.5 94.5l-12 2c-33.333 -36 -62 -65.333 -86 -88
c-35.333 -33.333 -68.666 -60 -99.999 -80c-37.333 -24 -68.666 -36 -93.999 -36c-18.667 0 -34.334 5.66699 -47.001 17s-19 28 -19 50c0 31.333 20.667 91.333 62 180c31.333 66.667 74.666 150 129.999 250c42 76 79 140.333 111 193l78 -45
c-16.667 -26.667 -45.667 -76 -87 -148c-55.333 -96 -96.333 -170 -123 -222c-41.333 -80.667 -62 -130.667 -62 -150c0 -6 2 -11.333 6 -16s8.66699 -7 14 -7c17.333 0 42 11.667 74 35c46 34 96.667 87 152 159c71.333 93.333 145.666 213.333 222.999 360l84 -47
c-74 -122.667 -131 -220.667 -171 -294c-34 -62.667 -58.667 -112 -74 -148c-10.667 -25.333 -16 -43.333 -16 -54c0 -6.66699 1.66699 -11.667 5 -15s7 -5.33301 11 -6h7c26.667 0 52.334 9 77.001 27c35.333 25.333 78.333 73 129 143c60 82 133.667 199 221 351z" />
    <glyph glyph-name="Uacute" unicode="&#xda;" horiz-adv-x="522" 
d="M614 361c-6.66699 -3.33301 -17.9951 -7.99902 -33.9951 -13.999s-27.333 -10 -34 -12c3.33301 -10.667 5.83301 -21.5 7.5 -32.5s2.5 -23.833 2.5 -38.5c0 -62 -25 -121 -75 -177c-54.667 -61.333 -119.334 -92 -194.001 -92c-42 0 -74.667 11.667 -98 35
s-35 56.666 -35 99.999c0 83.333 28 168.666 84 255.999c60.667 94.667 140 167.667 238 219l-4 7c-4.66699 -0.666992 -15.5 -2.33398 -32.5 -5.00098s-30.5 -4 -40.5 -4c-6.66699 0 -13.834 1 -21.501 3s-13.167 3.33301 -16.5 4
c-19.333 4.66699 -30.833 7.33398 -34.5 8.00098s-7.83398 1 -12.501 1c-28.667 0 -52 -10.667 -70 -32l-44 78c18 14.667 37.333 24.5 58 29.5s39.667 7.5 57 7.5c25.333 0 46.333 -6.33301 63 -19s54.334 -19 113.001 -19c15.333 0 26.166 0.333008 32.499 1
s14.833 2 25.5 4l33 -51c-90.667 -69.333 -164 -138.666 -220 -207.999c-44.667 -54.667 -77 -108 -97 -160c-14.667 -38 -22 -72 -22 -102c0 -30.667 8 -53 24 -67c10.667 -9.33301 24.334 -14 41.001 -14c37.333 0 72.666 22.667 105.999 68s50 91.666 50 138.999
c0 14 -2 27 -6 39c-26.667 0 -46.834 0.833008 -60.501 2.5s-25.5 3.83398 -35.5 6.50098l-7 49c8 10 20 17.833 36 23.5s30.667 8.5 44 8.5c16 0 28.833 -1 38.5 -3s19.167 -6.66699 28.5 -14c16.667 2 31.667 5.16699 45 9.5s27.666 10.5 42.999 18.5z" />
    <glyph glyph-name="Ucircumflex" unicode="&#xdb;" horiz-adv-x="769" 
d="M895 586l-91 -168.999c-38.667 -74 -69.667 -137 -93 -189c-28.667 -63.333 -43 -103.333 -43 -120c0 -18 9.66699 -27 29 -27c10.667 0 27.667 5.66699 51 17c10 4.66699 25 13 45 25l-24 -69c-21.333 -14 -44.666 -26.5 -69.999 -37.5s-46 -16.5 -62 -16.5
c-20 0 -37.167 6.66699 -51.5 20s-21.5 33 -21.5 59c0 38.667 17 92.667 51 162l94 184l-8 3c-23.333 -17.333 -47.666 -33 -72.999 -47c-34.667 -18.667 -71.334 -34 -110.001 -46c3.33301 -10.667 5.83301 -21.5 7.5 -32.5s2.5 -23.833 2.5 -38.5
c0 -61.333 -25.333 -120.333 -76 -177c-55.333 -62 -119.666 -93 -192.999 -93c-42 0 -74.667 11.667 -98 35s-35 56.666 -35 99.999c0 41.333 15.667 100.333 47 177c25.333 61.333 59.666 132.333 102.999 213c32 59.333 65 117 99 173l80 -48l-109 -185
c-41.333 -70.667 -72 -128.667 -92 -174c-26 -58 -39 -103.667 -39 -137c0 -29.333 7.33301 -51 22 -65c11.333 -10.667 25.666 -16 42.999 -16c34 0 68.5 21 103.5 63s52.5 86.667 52.5 134c0 18 -2.33301 34.333 -7 49h-36c-22 0 -41.667 3 -59 9l-7 49
c7.33301 10 19 17.833 35 23.5s30.667 8.5 44 8.5s25 -0.666992 35 -2s20.667 -6.33301 32 -15c58 7.33301 122.333 36 193 86c67.333 47.333 120.333 99 159 155z" />
    <glyph glyph-name="Udieresis" unicode="&#xdc;" horiz-adv-x="494" 
d="M586 361c-6.66699 -3.33301 -17.9961 -7.99902 -33.9961 -13.999s-27.333 -10 -34 -12c3.33301 -10.667 5.83301 -21.5 7.5 -32.5s2.5 -23.833 2.5 -38.5c0 -62 -25 -121 -75 -177c-54.667 -61.333 -119.334 -92 -194.001 -92c-30.667 0 -56.667 6.33301 -78 19
c-36.667 22 -55 60.333 -55 115c0 107.333 89.333 293.333 268 558l72 -48c-90.667 -139.333 -155.167 -246.833 -193.5 -322.5s-57.5 -131.834 -57.5 -168.501c0 -28.667 7 -50 21 -64c11.333 -11.333 26 -17 44 -17c37.333 0 72.666 22.667 105.999 68
s50 91.666 50 138.999c0 14 -2 27 -6 39c-26.667 0 -46.834 0.833008 -60.501 2.5s-25.5 3.83398 -35.5 6.50098l-7 49c8 10 20 17.833 36 23.5s30.667 8.5 44 8.5c16 0 28.833 -1 38.5 -3s19.167 -6.66699 28.5 -14c16.667 2 31.667 5.16699 45 9.5
s27.666 10.5 42.999 18.5z" />
    <glyph glyph-name="Yacute" unicode="&#xdd;" horiz-adv-x="559" 
d="M643 511c0 -110 -37 -220.332 -111 -330.999c-83.333 -124 -179 -186 -287 -186c-51.333 0 -93.333 13.667 -126 41s-49 64 -49 110v18c0 6 0.666992 13 2 21l94 -9v-17c0 -26 7 -47.833 21 -65.5s34.333 -26.5 61 -26.5c46.667 0 95 26.667 145 80
c44.667 47.333 78.667 101 102 161c-13.333 10 -28 17.333 -44 22s-31 7 -45 7c-22 0 -42.333 -6 -61 -18c-12.667 -8 -26 -20.333 -40 -37l-57 66c18 15.333 37 27.666 57 36.999c26 12 53.333 18 82 18c17.333 0 35.666 -2.16699 54.999 -6.5s45.333 -14.5 78 -30.5
c10.667 29.333 19 57.333 25 84s9 51 9 73c0 44 -9 75.667 -27 95c-13.333 14.667 -30.666 22 -51.999 22c-24 0 -48.333 -8 -73 -24c-31.333 -20.667 -61 -52.667 -89 -96l-69 53c36.667 53.333 78.667 91 126 113c32 14.667 65.667 22 101 22
c58 0 102.333 -20.667 133 -62c26 -35.333 39 -80 39 -134z" />
    <glyph glyph-name="Thorn" unicode="&#xde;" horiz-adv-x="839" 
d="M923 475c0 -107.333 -42.167 -214.335 -126.5 -321.002s-170.166 -160 -257.499 -160c-34.667 0 -64.334 10 -89.001 30c-38.667 31.333 -58 82 -58 152c0 26.667 3.5 54.167 10.5 82.5s17.5 53.833 31.5 76.5l-6 5c-34.667 -17.333 -78.667 -56 -132 -116
c-62.667 -70 -116.334 -145.667 -161.001 -227l-93 19l125 248l102 209c33.333 72 63.333 139.667 90 203l87 -37l-84 -176c-41.333 -83.333 -74 -145.666 -98 -186.999l5 -4c28.667 30 73.5 69.333 134.5 118s107.167 81.667 138.5 99l59 -58
c-32 -31.333 -60.333 -72.5 -85 -123.5s-37 -94.833 -37 -131.5c0 -35.333 4.83301 -63.166 14.5 -83.499s28.5 -30.5 56.5 -30.5c64 0 127 51.667 189 155c58 97.333 87 188.333 87 273c0 28 -3.66699 50.667 -11 68c-12 29.333 -33.333 44 -64 44
c-25.333 0 -51.666 -12.667 -78.999 -38c-20 -18.667 -40.333 -44 -61 -76l-72 26c23.333 42.667 54.333 78.667 93 108c42.667 32 85.667 48 129 48c54 0 95.333 -20 124 -60c25.333 -35.333 38 -80.333 38 -135z" />
    <glyph glyph-name="germandbls" unicode="&#xdf;" horiz-adv-x="671" 
d="M755 432l-96.9961 -164.002c-27.333 -47.333 -47.333 -84.166 -60 -110.499s-19 -44.833 -19 -55.5c0 -14 6 -21 18 -21c11.333 0 26.666 4.5 45.999 13.5s37 19.167 53 30.5l-25 -72c-26 -16.667 -50.667 -30.667 -74 -42c-30.667 -14.667 -56 -22 -76 -22
c-15.333 0 -27.333 3.66699 -36 11c-11.333 9.33301 -17 24.333 -17 45c0 38 20.333 92.333 61 163c20.667 36 53.667 86.333 99 151c-38.667 -10.667 -69.334 -29.334 -92.001 -56.001l-73 -92c-62 -67.333 -127.667 -121.333 -197 -162
c-62.667 -36.667 -114.667 -55 -156 -55c-26.667 0 -49.334 8.33301 -68.001 25s-28 38.667 -28 66c0 26 6.66699 51.833 20 77.5s25.333 38.5 36 38.5l12 -4l47 -29c6.66699 -4 10 -9.66699 10 -17c0 -4 -1.33301 -7.83301 -4 -11.5s-6.33398 -8.16699 -11.001 -13.5
c-8 -10 -12 -21.333 -12 -34c0 -6 0.666992 -10.333 2 -13c4 -6.66699 11.667 -10.667 23 -12h13c36 3.33301 90.333 33.333 163 90c61.333 48 109 91.667 143 131c-41.333 -12.667 -62.333 -19 -63 -19c-17.333 -4.66699 -31.666 -7 -42.999 -7c-24 0 -43.667 6 -59 18
c-20 15.333 -30 38.666 -30 69.999c0 77.333 36.333 153.333 109 228s144 112 214 112c34 0 60.333 -12.333 79 -37c16 -21.333 24 -46.666 24 -75.999c0 -23.333 -7.33301 -50.666 -22 -81.999c-10.667 -22 -27 -50.667 -49 -86
c13.333 6.66699 27.666 15.334 42.999 26.001s28 20 38 28zM611.004 559.998c0 16 -3.66699 28.334 -11 37.001s-17.333 13 -30 13c-20 0 -41.333 -7 -64 -21c-17.333 -10.667 -35.666 -26.334 -54.999 -47.001c-22.667 -24 -43.167 -52.667 -61.5 -86s-27.5 -61 -27.5 -83
c0 -12 3.83301 -22.167 11.5 -30.5s20.5 -12.5 38.5 -12.5c15.333 0 33.666 3.66699 54.999 11c10 3.33301 21.333 8.33301 34 15c27.333 30 52.5 65 75.5 105s34.5 73 34.5 99z" />
    <glyph glyph-name="agrave" unicode="&#xe0;" horiz-adv-x="480" 
d="M505 131l-20.998 -68c-18 -13.333 -38.667 -26.333 -62 -39c-30 -16 -53 -24 -69 -24s-29.333 4.66699 -40 14s-16 20.666 -16 33.999c0 10.667 2.66699 22.334 8 35.001l16 37l-4 1c-28.667 -27.333 -54.334 -50 -77.001 -68c-44 -35.333 -83.333 -53 -118 -53
c-20.667 0 -38.334 7.66699 -53.001 23c-18 18.667 -27 44.667 -27 78c0 50 32 109 96 177c68 72 132 108 192 108c22 0 40.667 -4 56 -12c11.333 -6 21.333 -14 30 -24l11 22l72 -38l-88 -172c-3.33301 -6.66699 -8 -17.167 -14 -31.5s-9 -23.833 -9 -28.5
c0 -12 4.33301 -18 13 -18c6.66699 0 18.667 4 36 12c22 10 44.667 21.667 68 35zM396.002 312c-5.33301 6.66699 -12.168 11.833 -20.501 15.5s-16.5 5.5 -24.5 5.5c-37.333 0 -81.333 -26.333 -132 -79s-76 -96.667 -76 -132c0 -15.333 2.83301 -26.333 8.5 -33
s12.5 -10 20.5 -10c19.333 0 50.333 17.833 93 53.5s69.334 63.5 80.001 83.5z" />
    <glyph glyph-name="aacute" unicode="&#xe1;" horiz-adv-x="377" 
d="M594 626l-24.999 -87.0029c-72 -12 -117.833 -22 -137.5 -30s-29.5 -18 -29.5 -30s0.833008 -23 2.5 -33s4.66699 -24.333 9 -43s6.5 -40.334 6.5 -65.001c0 -93.333 -29.333 -174.333 -88 -243c-54 -63.333 -112 -95 -174 -95c-32 0 -58.667 9.33301 -80 28
c-24 20.667 -36 49 -36 85c0 50.667 22.333 100.334 67 149.001c50 54.667 114 90.667 192 108l24 -49c-62.667 -26 -111.334 -59.667 -146.001 -101c-29.333 -34.667 -44 -67.667 -44 -99c0 -15.333 3.33301 -27.666 10 -36.999s15.667 -14 27 -14
c29.333 0 62 18.333 98 55c42 42.667 67.667 92.334 77 149.001c2 15.333 3 30 3 44c0 16.667 -1.16699 33.5 -3.5 50.5s-5.83301 34.167 -10.5 51.5c-6.66699 20.667 -11.334 36 -14.001 46c-5.33301 16 -8.5 26 -9.5 30s-1.5 9.33301 -1.5 16c0 22.667 11.667 40 35 52
c36.667 18.667 119.334 39.334 248.001 62.001z" />
    <glyph glyph-name="acircumflex" unicode="&#xe2;" horiz-adv-x="371" 
d="M519 515c0 -36.667 -20.9951 -78.667 -62.9951 -126c-34.667 -39.333 -83 -81.333 -145 -126c-46.667 -34 -100.334 -69 -161.001 -105c-1.33301 -4 -3.33301 -13 -6 -27s-4 -23 -4 -27c0 -8 3.16699 -16.333 9.5 -25s16.5 -13 30.5 -13c27.333 0 49.5 14.333 66.5 43
s25.5 64.667 25.5 108l85 14c0.666992 -4.66699 1 -12 1 -22c0 -57.333 -18.833 -106.5 -56.5 -147.5s-82.834 -61.5 -135.501 -61.5c-34.667 0 -62.334 11.667 -83.001 35c-14.667 16.667 -24.334 37 -29.001 61l-53 -33l22 68l31 23
c21.333 107.333 76.666 206.333 165.999 297c86 87.333 166.333 131 241 131c38.667 0 58 -22.333 58 -67zM436.005 483c0 10.667 -1.33301 18.166 -4 22.499s-7.66699 6.5 -15 6.5c-11.333 0 -23.333 -3.66699 -36 -11c-20.667 -12 -46.5 -35.167 -77.5 -69.5
s-56 -65.666 -75 -93.999s-37.167 -61.166 -54.5 -98.499c60 35.333 116.333 75.666 169 120.999c62 54 93 95 93 123z" />
    <glyph glyph-name="atilde" unicode="&#xe3;" horiz-adv-x="261" 
d="M309 337c0 -21.333 -8.00098 -42.332 -24.001 -62.999c-7.33301 -9.33301 -24.666 -27 -51.999 -53c-32 -30.667 -57.333 -57.334 -76 -80.001s-28 -39 -28 -49c0 -12.667 7.33301 -19 22 -19c11.333 0 30.833 6.16699 58.5 18.5s53.167 25.5 76.5 39.5l-21 -68
c-21.333 -14.667 -46 -28 -74 -40c-35.333 -15.333 -64.333 -23 -87 -23c-25.333 0 -44.333 5.66699 -57 17s-19 26 -19 44c0 20.667 8 44 24 70c19.333 30.667 51.666 68 96.999 112l40.5 38c14.333 13.333 21.5 23.333 21.5 30c-2 5.33301 -4.33301 8.33301 -7 9h-11
c-10 -2 -21.833 -6.33301 -35.5 -13l-34.5 -17l-26 43c34.667 21.333 67.334 36.333 98.001 45c20.667 6 39.667 9 57 9c20 0 34.5 -4.66699 43.5 -14s13.5 -21.333 13.5 -36z" />
    <glyph glyph-name="adieresis" unicode="&#xe4;" horiz-adv-x="449" 
d="M519 332l-162 -299.998c-33.333 -64.667 -63.333 -125.334 -90 -182.001c-12.667 -26.667 -25 -54.667 -37 -84l-92 30c26.667 53.333 51.334 99.666 74.001 138.999s49 80.666 79 123.999c15.333 21.333 25 36 29 44l-4 2c-26.667 -24.667 -50.334 -44.667 -71.001 -60
c-40 -30 -79.333 -45 -118 -45c-21.333 0 -39.333 5.33301 -54 16c-20.667 14.667 -31 37.334 -31 68.001c0 68 39 136.333 117 205c73.333 64.667 139.333 97 198 97c30 0 55.667 -12.333 77 -37l14 20zM409 304.002c-8 17.333 -20.999 25.999 -38.999 25.999
c-38 0 -84.167 -26.167 -138.5 -78.5s-81.5 -98.166 -81.5 -137.499c0 -22 8.66699 -33 26 -33c28 0 63.333 18.333 106 55c51.333 44 93.666 100 126.999 168z" />
    <glyph glyph-name="aring" unicode="&#xe5;" horiz-adv-x="345" 
d="M426 322c0 -34.667 -16.333 -66.665 -49 -95.998c-48 -43.333 -128.667 -79 -242 -107c-0.666992 -2.66699 -1 -6 -1 -10v-9c0 -10.667 5.33301 -19 16 -25s25 -9 43 -9c21.333 0 48 5.66699 80 17s63.333 26.333 94 45l-22 -65c-28 -18 -60.5 -33 -97.5 -45
s-71.833 -18 -104.5 -18s-58.334 9.33301 -77.001 28c-13.333 13.333 -21.666 28.666 -24.999 45.999l-1 12l-40 -25l22 66l22 14c18.667 57.333 57.667 111.666 117 162.999c63.333 54.667 125 82 185 82c26.667 0 46.667 -6.33301 60 -19s20 -27.667 20 -45zM332 304.002
c0 12 -5.66699 18 -17 18c-24.667 0 -54.167 -16.5 -88.5 -49.5s-58.5 -64.833 -72.5 -95.5c37.333 10 74 25.667 110 47c45.333 27.333 68 54 68 80z" />
    <glyph glyph-name="ae" unicode="&#xe6;" horiz-adv-x="661" 
d="M710 305c-64.667 -34.667 -112.67 -72.335 -144.003 -113.002c-23.333 -30 -35 -57 -35 -81c0 -26.667 7 -40 21 -40c8.66699 0 31 8.66699 67 26c26.667 12.667 49 24 67 34l-23 -68c-23.333 -16 -49.166 -30.5 -77.499 -43.5s-52.166 -19.5 -71.499 -19.5
c-21.333 0 -37.333 5 -48 15c-13.333 12.667 -20 32.667 -20 60c0 14.667 2 27.334 6 38.001c1.33301 3.33301 11.333 21 30 53l-4 3c-32 -27.333 -53.333 -47 -64 -59c-26.667 -29.333 -53.667 -68.666 -81 -117.999l-56 27l92 175l-4 2l-138 -125
c-56.667 -47.333 -105.667 -71 -147 -71c-25.333 0 -45 8.5 -59 25.5s-21 37.167 -21 60.5c0 12.667 1.66699 25.334 5 38.001l78 32c-3.33301 -6.66699 -6 -13.667 -8 -21s-3 -16 -3 -26c0 -12.667 2.5 -22.834 7.5 -30.501s12.5 -11.5 22.5 -11.5c11.333 0 24.333 6 39 18
c24 19.333 50 53 78 101c11.333 19.333 19.666 34 24.999 44c18.667 36 28 63.667 28 83c0 9.33301 -2.16699 15.666 -6.5 18.999s-9.16602 5 -14.499 5c-7.33301 0 -20.166 -5 -38.499 -15s-29.166 -16 -32.499 -18l-30 44c20 13.333 41 24.666 63 33.999
c28 12 52 18 72 18c44 0 66 -23.667 66 -71c0 -24 -6 -47 -18 -69l-46 -70l4 -1c24 17.333 52 42.333 84 75c36 36.667 66.667 72.334 92 107.001l44 -26l-58 -105c-7.33301 -12.667 -12.333 -21.667 -15 -27c-6 -10.667 -10.333 -19.667 -13 -27l5 -1l110 88
c51.333 38.667 97.666 67.334 138.999 86.001z" />
    <glyph glyph-name="ccedilla" unicode="&#xe7;" horiz-adv-x="330" 
d="M372 328c0 -32 -16 -59.998 -48 -83.998c-27.333 -20.667 -57.666 -34 -90.999 -40v-4h6c21.333 0 37 -2.33301 47 -7c18.667 -8.66699 28 -25.334 28 -50.001c0 -36.667 -21.167 -69.667 -63.5 -99s-87.5 -44 -135.5 -44c-30.667 0 -56.334 6.33301 -77.001 19
c-25.333 15.333 -38 37.666 -38 66.999v15c0 4 1.66699 11.667 5 23l77 32l-6 -40c0 -18 5 -31.333 15 -40s23 -13 39 -13c22 0 43 9.66699 63 29s30 38.333 30 57c0 10 -3.5 16.333 -10.5 19s-14.167 4 -21.5 4c-12 0 -21 -0.666992 -27 -2l-12 48
c39.333 12.667 69 25.334 89 38.001c30.667 19.333 46 40.333 46 63c0 11.333 -8.33301 17 -25 17c-10 0 -24.667 -4.83301 -44 -14.5s-41.333 -23.167 -66 -40.5l-33 40c24 22 51.5 40.667 82.5 56s60.167 23 87.5 23c26.667 0 47.167 -6.83301 61.5 -20.5
s21.5 -30.834 21.5 -51.501z" />
    <glyph glyph-name="egrave" unicode="&#xe8;" horiz-adv-x="440" 
d="M465 327l-106.998 -203c-0.666992 -2.66699 -1.33398 -4.66699 -2.00098 -6c-2.66699 -6.66699 -4 -11.334 -4 -14.001c0 -10.667 5 -16 15 -16c8.66699 0 24 6 46 18s38.333 20.333 49 25l-22 -68c-20 -12.667 -43.333 -25.334 -70 -38.001
c-34.667 -16.667 -59.334 -25 -74.001 -25c-25.333 0 -40 13 -44 39v18c2 20.667 20.333 56 55 106l-4 5c-10.667 -8.66699 -40 -35 -88 -79c-64.667 -59.333 -112.334 -89 -143.001 -89c-10.667 0 -20 3.33301 -28 10c-10.667 9.33301 -16 23 -16 41
c0 18.667 9.66699 48.334 29 89.001c15.333 32.667 61.333 120.667 138 264l68 -35l-117 -221c-5.33301 -9.33301 -8.33301 -16.333 -9 -21v-5c0.666992 -8 4.33398 -12 11.001 -12c23.333 0 67 34 131 102c57.333 60.667 97 110.334 119 149.001z" />
    <glyph glyph-name="eacute" unicode="&#xe9;" horiz-adv-x="440" 
d="M557 571c-40.667 -40 -68.668 -65 -84.001 -75c-27.333 -18 -59.666 -27 -96.999 -27c-41.333 0 -71 14 -89 42c-11.333 18 -17 37.333 -17 58v21l82 4c0 -18 2.66699 -32 8 -42c9.33301 -17.333 25 -26 47 -26c14.667 0 31.5 6.5 50.5 19.5s38.833 32.167 59.5 57.5z
M464.999 327l-106.998 -203c-0.666992 -2.66699 -1.33398 -4.66699 -2.00098 -6c-2.66699 -6.66699 -4 -11.334 -4 -14.001c0 -10.667 5 -16 15 -16c8.66699 0 24 6 46 18s38.333 20.333 49 25l-22 -68c-20 -12.667 -43.333 -25.334 -70 -38.001
c-34.667 -16.667 -59.334 -25 -74.001 -25c-25.333 0 -40 13 -44 39v18c2 20.667 20.333 56 55 106l-4 5c-10.667 -8.66699 -40 -35 -88 -79c-64.667 -59.333 -112.334 -89 -143.001 -89c-10.667 0 -20 3.33301 -28 10c-10.667 9.33301 -16 23 -16 41
c0 18.667 9.66699 48.334 29 89.001c15.333 32.667 61.333 120.667 138 264l68 -35l-117 -221c-5.33301 -9.33301 -8.33301 -16.333 -9 -21v-5c0.666992 -8 4.33398 -12 11.001 -12c23.333 0 67 34 131 102c57.333 60.667 97 110.334 119 149.001z" />
    <glyph glyph-name="ecircumflex" unicode="&#xea;" horiz-adv-x="422" 
d="M478 323c-40 -18.667 -79.666 -40 -118.999 -64c-53.333 -32 -88 -58.333 -104 -79l1 -5c6 2 14 3 24 3c10.667 0 18 -3.5 22 -10.5s6 -15.167 6 -24.5c0 -6 -1.5 -11.667 -4.5 -17s-6 -11.166 -9 -17.499s-5.16699 -13.833 -6.5 -22.5v-8c0 -13.333 5.33301 -20 16 -20
c13.333 0 36.333 8.83301 69 26.5s57.667 33.167 75 46.5l-22 -68c-28 -24.667 -56.333 -43.667 -85 -57s-56.667 -20 -84 -20c-22.667 0 -38.667 7.33301 -48 22c-6.66699 10 -10 23 -10 39s3.33301 31.333 10 46c5.33301 9.33301 8.5 15 9.5 17s1.5 5.33301 1.5 10v4
c-0.666992 1.33301 -2.33398 3 -5.00098 5c-1.33301 0 -2.33301 0.333008 -3 1c-10.667 0 -32.667 -18.333 -66 -55c-26 -28.667 -48.667 -56.334 -68 -83.001l-72 21l192 382l67 -40l-111 -196l5 -2l125 116.5c42.667 39 95.667 77.167 159 114.5z" />
    <glyph glyph-name="edieresis" unicode="&#xeb;" horiz-adv-x="403" 
d="M428 131l-22.0029 -68.001c-38 -25.333 -69 -43 -93 -53c-15.333 -6.66699 -27.333 -10 -36 -10c-13.333 0 -25 4 -35 12c-12.667 10 -19 24 -19 42c0 20.667 7.33301 45.667 22 75l29 52l-11 6c-58 -78 -102 -128.667 -132 -152s-58.667 -35 -86 -35
c-19.333 0 -35.666 4.66699 -48.999 14c-16 11.333 -24 28.333 -24 51c0 17.333 2 31 6 41l78 38c-1.33301 -5.33301 -2.5 -10.5 -3.5 -15.5s-1.5 -10.5 -1.5 -16.5c0 -20 7.66699 -30 23 -30c23.333 0 66.333 37.333 129 112c57.333 68.667 109 140.334 155 215.001l70 -35
l-62 -129c-14.667 -30.667 -26.5 -58.5 -35.5 -83.5s-13.5 -41.833 -13.5 -50.5c0 -6 1.83301 -10.5 5.5 -13.5s7.83398 -5.16699 12.501 -6.5h10c6.66699 1.33301 19.334 6.5 38.001 15.5s33.667 17.167 45 24.5z" />
    <glyph glyph-name="igrave" unicode="&#xec;" horiz-adv-x="591" 
d="M616 131l-21.999 -68.0029c-27.333 -18.667 -56 -34.334 -86 -47.001c-24.667 -10.667 -42.334 -16 -53.001 -16c-16 0 -28.5 4.5 -37.5 13.5s-13.5 19.5 -13.5 31.5c0 14.667 5 32.334 15 53.001c4.66699 10 15 27.667 31 53l-9 7
c-64 -67.333 -110 -112.666 -138 -135.999c-22.667 -18.667 -40.334 -28 -53.001 -28c-12 0 -22.167 4.16699 -30.5 12.5s-12.5 18.833 -12.5 31.5c0 13.333 4.66699 31 14 53s23.666 49 42.999 81l-11 4c-52 -62 -84.667 -99.667 -98 -113
c-42.667 -42 -79.667 -63 -111 -63c-18 0 -33.333 4.33301 -46 13c-17.333 12 -26 29.333 -26 52c0 12.667 0.333008 20.667 1 24s2.33398 9 5.00098 17l78 38c-1.33301 -5.33301 -2.5 -10.5 -3.5 -15.5s-1.5 -10.5 -1.5 -16.5c0 -11.333 1.83301 -19.166 5.5 -23.499
s9.5 -6.5 17.5 -6.5c22 0 66.333 37.667 133 113s120 146.666 160 213.999l62 -35l-89 -178c-10 -19.333 -17 -33.666 -21 -42.999s-6.33301 -17 -7 -23v-9c0.666992 -4 3 -6 7 -6c20.667 0 55.5 28 104.5 84s91.167 114.667 126.5 176l66 -35l-94 -172
c-4.66699 -9.33301 -10 -20.666 -16 -33.999s-9 -22.333 -9 -27c0 -12.667 5.66699 -19 17 -19c8.66699 0 21.334 4 38.001 12z" />
    <glyph glyph-name="iacute" unicode="&#xed;" horiz-adv-x="451" 
d="M476 131l-20.001 -68c-42.667 -24.667 -77 -42 -103 -52c-18.667 -7.33301 -32.667 -11 -42 -11c-18 -0 -32.667 5.33301 -44 16s-17 25 -17 43c0 12.667 16.333 51.667 49 117c-17.333 0 -39.666 -3.33301 -66.999 -10c-20 -4.66699 -43.667 -11.667 -71 -21l-74 -152
l-81 25l196 383l69 -32l-82 -158c11.333 4 30.5 8.33301 57.5 13s47.167 7 60.5 7h19l65 137l70 -30l-92 -186l-11.5 -27.5c-5.66699 -13.667 -8.5 -22.167 -8.5 -25.5c0 -10.667 5 -16 15 -16c12 0 35.333 8.66699 70 26z" />
    <glyph glyph-name="icircumflex" unicode="&#xee;" horiz-adv-x="378" 
d="M406 291c0 -74 -26.168 -141.002 -78.501 -201.002s-111.166 -90 -176.499 -90c-40 0 -69 11.333 -87 34c-14.667 18.667 -22 43.334 -22 74.001c0 60.667 27.167 118.834 81.5 174.501s125.833 99.167 214.5 130.5l16 -58c-59.333 -18.667 -111 -52.5 -155 -101.5
s-66 -94.167 -66 -135.5c0 -19.333 4.16699 -33 12.5 -41s18.833 -12 31.5 -12c31.333 0 61.333 19.333 90 58c31.333 42 47 91.333 47 148v15v12c-1.33301 5.33301 -2 9.33301 -2 12l90 25c2.66699 -13.333 4 -28 4 -44z" />
    <glyph glyph-name="idieresis" unicode="&#xef;" horiz-adv-x="441" 
d="M466 131l-21 -67.998c-42 -24.667 -72.667 -41.334 -92 -50.001s-34.333 -13 -45 -13c-12 0 -23 3.66699 -33 11c-13.333 10 -20 24.333 -20 43c0 14.667 4.33301 32.667 13 54s25 53 49 95c3.33301 6.66699 7 13.334 11 20.001c4.66699 10 7 17.667 7 23
c0 3.33301 -0.833008 5.66602 -2.5 6.99902s-2.83398 2.33301 -3.50098 3h-6c-10.667 -1.33301 -20.667 -6 -30 -14s-31 -31.333 -65 -70l-155 -177l-67 22l190 383l65 -32l-84 -167l7 -6c51.333 57.333 93.166 98.833 125.499 124.5s58.5 38.5 78.5 38.5
c16 0 29.167 -5.83301 39.5 -17.5s15.5 -26.834 15.5 -45.501c0 -14 -6.66699 -33 -20 -57c-19.333 -32 -34 -57 -44 -75c-5.33301 -8.66699 -9.66602 -17 -12.999 -25c-6.66699 -14.667 -10 -24.667 -10 -30c0 -8.66699 4 -13 12 -13c8.66699 0 41.334 12 98.001 36z" />
    <glyph glyph-name="eth" unicode="&#xf0;" horiz-adv-x="421" 
d="M446 131l-22.001 -68c-18.667 -13.333 -41 -26.333 -67 -39c-32 -16 -56.333 -24 -73 -24c-13.333 -0 -24 2.33301 -32 7c-13.333 8 -20 21.667 -20 41c0 12.667 2.33301 25.834 7 39.501s15.667 35.5 33 65.5c30.667 52.667 46 79.667 46 81v8v3c-2.66699 6 -8 9 -16 9
c-17.333 0 -39.333 -13.667 -66 -41c-12 -12 -30.333 -34 -55 -66c-31.333 -40 -58 -80 -80 -120c-18.667 -33.333 -38.167 -73.666 -58.5 -120.999l-61.5 -144l-72 18c52.667 136 106.667 265.667 162 389s110 235.666 164 336.999l66 -32l-138 -266l10 -6
c54.667 55.333 97.334 94.166 128.001 116.499s55 33.5 73 33.5c14.667 0 26.5 -5.5 35.5 -16.5s13.5 -23.5 13.5 -37.5c0 -10.667 -2.16699 -21.667 -6.5 -33s-11.333 -26.5 -21 -45.5s-24.167 -45.167 -43.5 -78.5c-11.333 -19.333 -17 -32.333 -17 -39
c0 -8.66699 4 -13 12 -13c6.66699 0 20 4.66699 40 14z" />
    <glyph glyph-name="ntilde" unicode="&#xf1;" horiz-adv-x="351" 
d="M418 320c0 -13.333 -4.49805 -27.834 -13.498 -43.501s-19.167 -29.167 -30.5 -40.5l-64 38c3.33301 4.66699 6.5 10.834 9.5 18.501s4.5 13.167 4.5 16.5c0 4 -1.83301 7.5 -5.5 10.5s-8.83398 4.5 -15.501 4.5c-23.333 0 -55.333 -25.333 -96 -76
c-42.667 -53.333 -64 -100.333 -64 -141c0 -9.33301 3.33301 -17.833 10 -25.5s17 -11.5 31 -11.5s31 2.66699 51 8c33.333 9.33301 79.666 27 138.999 53l-22 -68c-48.667 -22 -89.5 -38 -122.5 -48s-62.833 -15 -89.5 -15c-32.667 0 -57.167 8.16699 -73.5 24.5
s-24.5 39.833 -24.5 70.5c0 62 34.5 127.5 103.5 196.5s136.833 103.5 203.5 103.5c24.667 0 43 -8.33301 55 -25c9.33301 -13.333 14 -30 14 -50z" />
    <glyph glyph-name="ograve" unicode="&#xf2;" horiz-adv-x="628" 
d="M723 541l-42.001 -92c-16.667 4.66699 -40 7 -70 7c-50.667 0 -103 -10.333 -157 -31c-33.333 -12.667 -69.666 -31 -108.999 -55l-34 46c64 37.333 125.333 66 184 86c76.667 26 152.667 39 228 39zM650.999 131l-22.001 -68.001c-84.667 -46 -139 -69 -163 -69
c-23.333 0 -38.333 10 -45 30c-1.33301 6.66699 -2 12.334 -2 17.001c0 3.33301 1.16699 10.5 3.5 21.5s8.83301 25.5 19.5 43.5l26 41c0.666992 1.33301 5 8.33301 13 21c6 9.33301 9 16.666 9 21.999c0 6 -3 9 -9 9c-16 0 -45.833 -21.833 -89.5 -65.5
s-82.834 -90.5 -117.501 -140.5l-73 20l110 210l2 7l-5 8c-14 0 -46 -26 -96 -78c-52.667 -55.333 -96.667 -111.333 -132 -168l-74 22l191 384l70 -36l-81 -149l9 -6l98 91c42.667 38 77 57 103 57c16 0 28.333 -4.66699 37 -14s13 -19.333 13 -30
c0 -14.667 -8.33301 -35.334 -25 -62.001c-13.333 -21.333 -27.666 -40.666 -42.999 -57.999l10 -6c47.333 48 87.333 81.667 120 101c22.667 13.333 42 20 58 20c8.66699 0 17.667 -3.16699 27 -9.5s14 -16.5 14 -30.5c0 -18.667 -13.333 -50 -40 -94l-34 -52
c-8 -12 -12 -21 -12 -27c0 -2.66699 0.833008 -4.66699 2.5 -6s3.83398 -2.66602 6.50098 -3.99902c4 0 44.333 16 121 48z" />
    <glyph glyph-name="oacute" unicode="&#xf3;" horiz-adv-x="383" 
d="M453 326c-57.333 -102.667 -108.33 -199.002 -152.997 -289.002c-54 -109.333 -92 -197.333 -114 -264l-84 18c9.33301 34 21.666 67.333 36.999 100c12 26 30.833 61.333 56.5 106l77.5 133l-7 3c-34.667 -35.333 -66.334 -64 -95.001 -86
c-40 -30.667 -72.333 -46 -97 -46c-14 0 -25.167 5.66699 -33.5 17s-12.5 25.333 -12.5 42c0 32.667 24.667 96.334 74 191.001c16 30 45.667 82.667 89 158l70 -36l-92 -170c-18.667 -34 -30.334 -56.167 -35.001 -66.5s-7 -18.166 -7 -23.499
c0 -9.33301 3.66699 -14 11 -14h8c20 2 50.667 24.333 92 67c50 51.333 98.667 116.333 146 195z" />
    <glyph glyph-name="ocircumflex" unicode="&#xf4;" horiz-adv-x="599" 
d="M627 251c0 -62.667 -28.165 -120.831 -84.498 -174.498s-120.5 -80.5 -192.5 -80.5h-14c-4 0.666992 -7 1 -9 1v50c54 0 103 25.333 147 76c38.667 44.667 58 86 58 124c0 15.333 -9.66699 23 -29 23c-39.333 0 -80 -30.333 -122 -91
c-32.667 -46.667 -68 -114.334 -106 -203.001l-85 -210l-84 16c24.667 54.667 47.667 102.334 69 143.001l73 132l-5 5c-21.333 -20 -43.333 -35.5 -66 -46.5s-45.334 -16.5 -68.001 -16.5c-20 0 -36.167 7.16699 -48.5 21.5s-18.5 35.166 -18.5 62.499
c0 68.667 29.333 132.667 88 192c56 56.667 113.333 85 172 85c18.667 0 35 -4.33301 49 -13c8 -5.33301 16.333 -13 25 -23l85 162l59 -27l-82 -162l5 -3c22.667 16.667 41 28.667 55 36c19.333 10 37.666 15 54.999 15c24.667 0 43.667 -9.66699 57 -29
c11.333 -16.667 17 -38.334 17 -65.001zM352.002 283.003c-3.33301 6.66699 -7.5 11.667 -12.5 15s-13.5 5 -25.5 5c-36 0 -74 -23 -114 -69c-36.667 -42.667 -57.334 -82 -62.001 -118v-19c2.66699 -18 11 -27 25 -27c30.667 0 62.334 19.667 95.001 59
c18 21.333 39 54 63 98z" />
    <glyph glyph-name="otilde" unicode="&#xf5;" horiz-adv-x="401" 
d="M475 353c-36 -26.667 -70.1689 -54.001 -102.502 -82.001s-66.5 -59.667 -102.5 -95c3.33301 -28.667 9.5 -50.834 18.5 -66.501s21.167 -23.5 36.5 -23.5c9.33301 0 25 5.33301 47 16s39.333 20.334 52 29.001l-22 -68c-22.667 -21.333 -44.667 -38 -66 -50
c-16 -8.66699 -30.333 -13 -43 -13c-18.667 0 -35 8.66699 -49 26c-17.333 22 -30 56.333 -38 103c-30.667 -36.667 -50.667 -59.667 -60 -69c-38.667 -40 -75.667 -60 -111 -60c-19.333 0 -34.666 5.66699 -45.999 17s-17 27.333 -17 48c0 12.667 0.333008 20.667 1 24
s2.33398 9 5.00098 17l78 38c-1.33301 -5.33301 -2.5 -10.5 -3.5 -15.5s-1.5 -10.5 -1.5 -16.5c0 -20 7.66699 -30 23 -30c14 0 54 36 120 108c-4.66699 32 -8.16699 60.5 -10.5 85.5s-3.5 50.167 -3.5 75.5c0 8 0.333008 20.333 1 37s1 29.334 1 38.001l75 -37v-66l4 -79
l72 68l79 74z" />
    <glyph glyph-name="odieresis" unicode="&#xf6;" horiz-adv-x="457" 
d="M471 324l-66.998 -119.997c-22.667 -40.667 -38.167 -69.334 -46.5 -86.001s-12.5 -27.667 -12.5 -33s1.66699 -8.83301 5 -10.5s6.33301 -2.5 9 -2.5c5.33301 0 14.5 4.66699 27.5 14s23.833 18.333 32.5 27l51 -34c-18.667 -32 -35.667 -64 -51 -96
c-19.333 -39.333 -38.333 -82.666 -57 -129.999l-67 31c14 32.667 29 60 45 82c27.333 37.333 41.333 59 42 65l-6 5c-10.667 -8.66699 -23.834 -16.834 -39.501 -24.501s-29.5 -11.5 -41.5 -11.5c-10.667 0 -19.334 2.33301 -26.001 7
c-10.667 7.33301 -16 18.666 -16 33.999c0 17.333 10 43.333 30 78c14 24 23 39.667 27 47l-6 3c-34 -34.667 -71.333 -68.334 -112 -101.001c-56.667 -45.333 -97 -68 -121 -68c-12.667 -0 -23 3.83301 -31 11.5s-12 19.5 -12 35.5c0 10 2.66699 23 8 39
c10 29.333 25.333 65 46 107c26 52 65 122.667 117 212l66 -34l-114 -214l-11 -21.5c-2.66699 -5 -4 -8.83301 -4 -11.5c0 -9.33301 3.66699 -14 11 -14c19.333 0 63 34.333 131 103c63.333 63.333 105 111 125 143z" />
    <glyph glyph-name="divide" unicode="&#xf7;" horiz-adv-x="367" 
d="M392 131l-21.999 -68c-34 -21.333 -61.667 -37.166 -83 -47.499s-40 -15.5 -56 -15.5c-16.667 0 -30 4.33301 -40 13s-15 20.667 -15 36c0 22 13.667 53.667 41 95c18.667 28.667 31.667 50.667 39 66l-4 3c-21.333 -19.333 -46.5 -36.833 -75.5 -52.5
s-53.5 -23.5 -73.5 -23.5c-18.667 0 -32 5.83301 -40 17.5s-12 24.5 -12 38.5c0 8 1.16699 16 3.5 24s6.16602 16.667 11.499 26l84 167l64 -31l-64 -126c-2.66699 -4.66699 -5 -9.33398 -7 -14.001c-4 -7.33301 -6 -12.666 -6 -15.999c0 -12 4.66699 -18 14 -18
c18 0 44 15 78 45s64.667 66.333 92 109l59 -31l-89 -180c-8 -16.667 -13.167 -28.834 -15.5 -36.501s-3.5 -14.167 -3.5 -19.5c0 -8 3.33301 -12.333 10 -13h5c3.33301 0.666992 11.5 4 24.5 10s39.833 20 80.5 42z" />
    <glyph glyph-name="oslash" unicode="&#xf8;" horiz-adv-x="624" 
d="M649 131l-21.002 -68.001c-24 -14 -48.333 -26.667 -73 -38c-36 -16.667 -62 -25 -78 -25c-14 0 -25.667 4.33301 -35 13s-14 19 -14 31c0 12.667 2.33301 24.667 7 36c2 5.33301 13.667 26 35 62l-8 5l-106 -106c-30.667 -27.333 -56.334 -41 -77.001 -41
c-11.333 0 -21.833 3.83301 -31.5 11.5s-14.5 17.834 -14.5 30.501c0 13.333 7.66699 33 23 59l30 50l-8 6l-99 -99c-40.667 -38.667 -75 -58 -103 -58c-14.667 -0 -26.334 4.33301 -35.001 13s-13 20 -13 34c0 9.33301 1.5 20 4.5 32s6.5 21.333 10.5 28l155 297l65 -32
l-128 -245c-2 -4 -3.33301 -7.33301 -4 -10c-2.66699 -6.66699 -4 -10.667 -4 -12c2.66699 -5.33301 5.33398 -8 8.00098 -8c16.667 0 50.334 28.167 101.001 84.5s100.334 119.833 149.001 190.5l62 -28l-104 -200c-4.66699 -9.33301 -7.66699 -17 -9 -23v-5
c0.666992 -2 1.33398 -3.83301 2.00098 -5.5s2.66699 -2.5 6 -2.5c14 0 51.333 33.333 112 100c46 50.667 84.333 96 115 136l60 -32l-92 -177c-1.33301 -2 -3.33301 -7.5 -6 -16.5s-4 -14.5 -4 -16.5c0 -4.66699 1.33301 -8.66699 4 -12s6 -5 10 -5
c6.66699 0 17.667 3.33301 33 10z" />
    <glyph glyph-name="ugrave" unicode="&#xf9;" horiz-adv-x="627" 
d="M641 84c-23.333 -43.333 -46.333 -89.665 -69 -138.998c-16.667 -36.667 -31 -70 -43 -100l-66 30c6.66699 20 15.334 38.667 26.001 56c12.667 18 22.667 32.667 30 44c14.667 20 24 33.167 28 39.5s7.66699 13.833 11 22.5l-8 6l-43 -30
c-14.667 -8.66699 -28.667 -13 -42 -13c-14 0 -24.833 3.33301 -32.5 10s-11.5 16.667 -11.5 30c0 11.333 2.33301 22.333 7 33c0 0.666992 13.667 24 41 70l-9 6c-54 -53.333 -91 -88.333 -111 -105c-35.333 -29.333 -62.333 -44 -81 -44c-11.333 0 -20.666 3 -27.999 9
s-11 14.333 -11 25c0 18 9.33301 43 28 75l30 48l-9 4c-108 -107.333 -176.333 -161 -205 -161c-30 0 -45 15.667 -45 47c0 25.333 15.333 68.666 46 129.999c27.333 54 71.666 132 132.999 234l63 -37c-91.333 -168 -137 -253 -137 -255c0 -4 1.33301 -7.33301 4 -10
c0.666992 -0.666992 2 -1.33398 4 -2.00098c14 2 43.333 25 88 69c56 55.333 108 120 156 194l63 -35l-73 -126l-32.5 -55.5c-10.333 -18.333 -15.5 -31.166 -15.5 -38.499c0 -5.33301 2.66699 -8 8 -8c13.333 0 45 24.667 95 74c53.333 52 99.666 105.667 138.999 161
l65 -40l-65 -109c-6.66699 -11.333 -16.667 -30 -30 -56s-20 -41.667 -20 -47c0 -7.33301 4.33301 -11 13 -11c6.66699 0 16.667 4.66699 30 14c8 5.33301 17 12.666 27 21.999z" />
    <glyph glyph-name="uacute" unicode="&#xfa;" horiz-adv-x="335" 
d="M356 180c0 -45.333 -25.332 -87.3291 -75.999 -125.996c-46.667 -36 -92 -54 -136 -54c-32.667 0 -57.834 10 -75.501 30s-26.5 44 -26.5 72c0 41.333 15.833 82.333 47.5 123s71.167 73.334 118.5 98.001c8 3.33301 16.333 7.16602 25 11.499s13 8.5 13 12.5
c0 10 -15.667 17.333 -47 22s-59.333 7 -84 7l33 76c45.333 -11.333 87.666 -25 126.999 -41c27.333 -11.333 53.333 -24 78 -38l-19 -50c-57.333 -18.667 -108.166 -51.834 -152.499 -99.501s-66.5 -91.5 -66.5 -131.5c0 -12.667 2.5 -21.834 7.5 -27.501
s11.5 -8.5 19.5 -8.5c27.333 0 55 15.167 83 45.5s42 57.166 42 80.499c0 7.33301 -2.5 12.166 -7.5 14.499s-10.5 3.5 -16.5 3.5l-10 -2l-13 41c17.333 12 40 18 68 18c24 0 41.333 -7.16699 52 -21.5s16 -32.833 16 -55.5z" />
    <glyph glyph-name="ucircumflex" unicode="&#xfb;" horiz-adv-x="551" 
d="M576 326l-90.998 -163.004c-4 -6.66699 -9.66699 -18 -17 -34s-11 -26.667 -11 -32c0 -11.333 5.33301 -17 16 -17c18 0 51.333 17 100 51l-22 -68c-20 -16.667 -41.667 -30.667 -65 -42c-28.667 -14 -53.334 -21 -74.001 -21c-35.333 0 -53 16 -53 48
c0 20 11.333 51.333 34 94c20.667 38.667 40.667 69.667 60 93l-6 5c-12 -5.33301 -24.667 -12 -38 -20c-8.66699 -5.33301 -21.334 -10 -38.001 -14l-23 -7c-2.66699 -1.33301 -4 -4.66602 -4 -9.99902c0 -36 -22 -75.667 -66 -119
c-47.333 -46.667 -95.666 -70 -144.999 -70c-26.667 0 -49.667 9 -69 27s-29 40.333 -29 67c0 40.667 25.333 104.667 76 192c15.333 26.667 39.666 65.667 72.999 117l68 -35c-58 -95.333 -97 -164.666 -117 -207.999c-14.667 -31.333 -22 -54.666 -22 -69.999
c0 -10.667 2.66699 -19 8 -25s11.666 -9 18.999 -9c22 0 46.667 16.667 74 50c24.667 30 38.334 54.333 41.001 73l-4 6h-4l-39 -5c-4 0 -7.66699 3 -11 9l-10 23c-4 10 4.66699 21.167 26 33.5s38.333 18.5 51 18.5c17.333 0 30.333 -1.16699 39 -3.5
s17 -7.16602 25 -14.499c35.333 4 70 16.333 104 37c38 22.667 64.333 48.667 79 78z" />
    <glyph glyph-name="udieresis" unicode="&#xfc;" horiz-adv-x="323" 
d="M359 195c0 -48 -24.501 -92.502 -73.501 -133.502s-99.5 -61.5 -151.5 -61.5c-31.333 0 -56.333 9.66699 -75 29c-16 16.667 -24 37.334 -24 62.001c0 26 9.66699 59.333 29 100c26 54.667 71.333 127.334 136 218.001l65 -41l-96 -135l8 -6c36.667 26.667 77 40 121 40
c16.667 0 30.334 -5.33301 41.001 -16c13.333 -13.333 20 -32 20 -56zM262.999 182.998c0 14 -7.66797 21 -23.001 21c-26 0 -54.167 -14.5 -84.5 -43.5s-45.5 -54.5 -45.5 -76.5c0 -20.667 9 -31 27 -31c24.667 0 51.834 16.5 81.501 49.5s44.5 59.833 44.5 80.5z" />
    <glyph glyph-name="yacute" unicode="&#xfd;" horiz-adv-x="358" 
d="M386 268c0 -70 -26.834 -132.165 -80.501 -186.498s-119.5 -81.5 -197.5 -81.5c-34 0 -60.5 8.33301 -79.5 25s-28.5 37 -28.5 61c0 3.33301 0.666992 9.66602 2 18.999s2.33301 15.666 3 18.999l78 32c-2 -8.66699 -3.66699 -16.5 -5 -23.5s-2 -12.5 -2 -16.5
c0 -18 4 -31.333 12 -40s19.667 -13 35 -13c28.667 0 57 11.667 85 35c24.667 20.667 46.334 48 65.001 82c-13.333 4 -24.333 6 -33 6c-11.333 0 -21.833 -1.33301 -31.5 -4s-18.834 -8.33398 -27.501 -17.001l-43 53c10 6.66699 21.167 11.834 33.5 15.501
s25.166 5.5 38.499 5.5c12.667 0 25.334 -0.833008 38.001 -2.5s27 -5.5 43 -11.5c6.66699 14.667 11 27 13 37s3 19.667 3 29c0 16.667 -4 28.667 -12 36s-17.667 11 -29 11c-13.333 0 -29.333 -6.33301 -48 -19c-12 -8 -23.667 -17.667 -35 -29l-39 46
c26 24.667 52 42 78 52c18.667 7.33301 36.334 11 53.001 11c34 0 61 -12.333 81 -37s30 -56 30 -94z" />
    <glyph glyph-name="thorn" unicode="&#xfe;" horiz-adv-x="574" 
d="M602 294c0 -71.333 -27.8291 -138.169 -83.4961 -200.502s-116.167 -93.5 -181.5 -93.5c-37.333 0 -65 10.667 -83 32c-14 16.667 -21 37 -21 61c0 14.667 1.66699 28.334 5 41.001s8 25.667 14 39l-9 4c-39.333 -24 -71.333 -50 -96 -78c-18 -20 -41 -53 -69 -99l-72 23
l196 383l68 -38l-88 -159l8 -7c11.333 8.66699 24.166 17 38.499 25s33.166 17.667 56.499 29c32 42 71.333 76 118 102c41.333 23.333 85.666 39 132.999 47l10 -54c-50.667 -13.333 -99.667 -42 -147 -86c-52.667 -49.333 -79 -98 -79 -146c0 -18 6.33301 -31.667 19 -41
c10 -7.33301 21 -11 33 -11c28 0 58 19.667 90 59s48 78 48 116c0 16 -0.333008 28.833 -1 38.5s-2.33398 18.834 -5.00098 27.501l94 26c2 -11.333 3.16699 -18.833 3.5 -22.5s0.5 -9.5 0.5 -17.5z" />
    <glyph glyph-name="ydieresis" unicode="&#xff;" horiz-adv-x="479" 
d="M504 131l-20.998 -68c-20.667 -16 -44 -30.5 -70 -43.5s-47.333 -19.5 -64 -19.5c-38 0 -57 16 -57 48c0 16.667 5.16699 35.167 15.5 55.5l32.5 61.5l-8 6c-50.667 -58 -88.334 -97.333 -113.001 -118c-42 -35.333 -82.333 -53 -121 -53
c-31.333 0 -55.5 8.16699 -72.5 24.5s-25.5 37.166 -25.5 62.499c0 13.333 1.33301 24.333 4 33l83 36c-2 -8.66699 -3.66699 -16.5 -5 -23.5s-2 -12.5 -2 -16.5c0 -14 2 -25 6 -33c6.66699 -13.333 18 -20 34 -20c16.667 0 36 7.33301 58 22
c17.333 11.333 42.333 31.666 75 60.999l-4 6c-6.66699 -3.33301 -15.5 -6.66602 -26.5 -9.99902s-21.167 -5 -30.5 -5c-18.667 0 -32.667 5 -42 15s-14 23.333 -14 40c0 44.667 22.5 90.667 67.5 138s91.833 71 140.5 71c14 0 26.833 -3.16699 38.5 -9.5
s22.5 -18.166 32.5 -35.499l9 20l69 -33l-87 -181l-14 -29c-4.66699 -10 -7 -19.667 -7 -29c0 -13.333 6.33301 -20 19 -20c13.333 0 35.666 8.66699 66.999 26c8.66699 4.66699 19.667 11.667 33 21zM392.002 311c-4 6.66699 -9.83203 12.333 -17.499 17s-15.5 7 -23.5 7
c-23.333 0 -48.5 -12.5 -75.5 -37.5s-40.5 -49.5 -40.5 -73.5v-10c1.33301 -7.33301 4.66602 -13.5 9.99902 -18.5s11.666 -7.5 18.999 -7.5c18.667 0 38.334 8.33301 59.001 25c27.333 22 50.333 54.667 69 98z" />
    <glyph glyph-name="OE" unicode="&#x152;" horiz-adv-x="832" 
d="M924 361c-6.66699 -3.33301 -18.0039 -7.99707 -34.0039 -13.9971s-27.333 -10 -34 -12c3.33301 -10.667 5.83301 -21.5 7.5 -32.5s2.5 -23.833 2.5 -38.5c0 -62 -25 -121 -75 -177c-54.667 -61.333 -119.334 -92 -194.001 -92c-40.667 0 -73 11.667 -97 35
s-36 56.333 -36 99c0 31.333 5.33301 64.333 16 99s24 68 40 100c-33.333 0 -63.166 -1 -89.499 -3s-54.833 -6 -85.5 -12l-84 -159l-83 -158l-94 28l85 151c30 52.667 52 93.667 66 123c-25.333 -4 -45 -9 -59 -15l-41 -18c-10.667 0 -14 5.66699 -10 17l18 51
c4 11.333 17.5 20.166 40.5 26.499s53.833 11.833 92.5 16.5l84 169c25.333 52 52.333 103.667 81 155l81 -42l-62 -115l-81 -159c4 0.666992 20 2 48 4s52.667 3 74 3c4.66699 0 11.834 -0.333008 21.501 -1s16.834 -1 21.501 -1c6 0 9.83301 1.33301 11.5 4
s4.33398 8.16699 8.00098 16.5s8.83398 18.166 15.501 29.499c34 60 61.167 106.5 81.5 139.5s44.166 69.167 71.499 108.5l72 -48c-96.667 -149.333 -165 -265.333 -205 -348c-30.667 -63.333 -46 -111 -46 -143c0 -28.667 7 -50 21 -64c11.333 -11.333 26 -17 44 -17
c39.333 0 76 23.667 110 71c31.333 43.333 47 85.333 47 126c0 18 -2.33301 34.333 -7 49h-37c-13.333 0 -23.666 0.666992 -30.999 2s-16.666 3.66602 -27.999 6.99902l-7 49c8 10 20 17.833 36 23.5s30.667 8.5 44 8.5c16 0 28.833 -1 38.5 -3s19.167 -6.66699 28.5 -14
c16.667 2 31.667 5.16699 45 9.5s27.666 10.5 42.999 18.5z" />
    <glyph glyph-name="oe" unicode="&#x153;" horiz-adv-x="568" 
d="M589 180c0 -40 -22.667 -79.998 -68 -119.998s-93.333 -60 -144 -60c-32.667 0 -58 8.33301 -76 25s-27 39.667 -27 69c0 12.667 3 27.667 9 45c4 11.333 9.33301 23.666 16 36.999c-16.667 0 -37.334 -3 -62.001 -9s-49.667 -13.333 -75 -22l-75 -152l-81 25l196 383
l69 -32l-81 -158c16.667 5.33301 40 10 70 14s52 6 66 6l65 137l68 -30c-43.333 -86.667 -72.333 -146.667 -87 -180s-22 -55.333 -22 -66c0 -12.667 2.33301 -21.834 7 -27.501s12.334 -8.5 23.001 -8.5c20.667 0 45.667 15 75 45s44 57 44 81c0 6 -2.5 10.5 -7.5 13.5
s-10.5 4.5 -16.5 4.5c-3.33301 0 -7.83301 -1.33301 -13.5 -4s-9.5 -4.33398 -11.5 -5.00098l-12 41c12 8.66699 25.5 15 40.5 19s28.833 6 41.5 6c20.667 0 36.667 -5.33301 48 -16c14 -13.333 21 -33.666 21 -60.999z" />
    <glyph glyph-name="Scaron" unicode="&#x160;" horiz-adv-x="813" 
d="M905 361c-6.66699 -3.33301 -18 -8.00293 -34 -14.0029s-27.333 -10 -34 -12c3.33301 -10.667 5.83301 -21.5 7.5 -32.5s2.5 -23.833 2.5 -38.5c0 -62.667 -25 -122 -75 -178c-54.667 -61.333 -119.334 -92 -194.001 -92c-41.333 0 -73.833 11.833 -97.5 35.5
s-35.5 56.834 -35.5 99.501c0 28.667 4.66699 59.334 14 92.001c7.33301 26.667 20.333 61 39 103l-7 4c-20 -25.333 -44.333 -54.666 -73 -87.999l-68 -76c-64 -69.333 -119 -117.333 -165 -144c-30 -17.333 -58.333 -26 -85 -26c-20 0 -37 4 -51 12
c-23.333 13.333 -35 35.333 -35 66c0 24.667 6.33301 52 19 82s25.667 41.333 39 34l56 -31c6 -3.33301 9.33301 -7.33301 10 -12v-8c-6 -11.333 -10.5 -20.166 -13.5 -26.499s-4.5 -12.5 -4.5 -18.5c0 -10.667 7.33301 -16 22 -16c25.333 0 63.666 25 114.999 75
c16 15.333 46 46.666 90 93.999c72.667 78.667 133.334 152 182.001 220s92.667 141.667 132 221l90 -50l-131 -253c-32.667 -64.667 -55.167 -113.5 -67.5 -146.5s-18.5 -62.5 -18.5 -88.5c0 -31.333 7.66699 -53.666 23 -66.999c10.667 -9.33301 24.667 -14 42 -14
c39.333 0 76 23.667 110 71c31.333 43.333 47 85.333 47 126c0 18 -2.33301 34.333 -7 49h-37c-13.333 0 -23.666 0.666992 -30.999 2s-16.666 3.66602 -27.999 6.99902l-7 49c8 10 20 17.833 36 23.5s30.667 8.5 44 8.5c16 0 28.833 -1 38.5 -3s19.167 -6.66699 28.5 -14
c16.667 2 31.667 5.16699 45 9.5s27.666 10.5 42.999 18.5z" />
    <glyph glyph-name="scaron" unicode="&#x161;" horiz-adv-x="531" 
d="M552 180c0 -46 -25.002 -88.333 -75.002 -127c-46 -35.333 -91.667 -53 -137 -53c-32 0 -57 9.66699 -75 29s-27 43.666 -27 72.999c0 11.333 3.66699 24.666 11 39.999c0.666992 2 8.33398 15.333 23.001 40l-9 5c-58 -78 -102 -128.667 -132 -152s-58.667 -35 -86 -35
c-19.333 0 -35.666 4.66699 -48.999 14c-16 11.333 -24 28.333 -24 51c0 17.333 2 31 6 41l78 38c-1.33301 -5.33301 -2.5 -10.5 -3.5 -15.5s-1.5 -10.5 -1.5 -16.5c0 -20 7.66699 -30 23 -30c23.333 0 66.333 37.333 129 112c57.333 68.667 109 140.334 155 215.001l70 -35
c-8.66699 -19.333 -40.667 -85 -96 -197c-19.333 -39.333 -29 -67.666 -29 -84.999c0 -16 4 -26.667 12 -32c4 -2.66699 10.667 -4 20 -4c28 0 56.333 15.333 85 46s43 57.334 43 80.001c0 7.33301 -2.5 12.166 -7.5 14.499s-10.5 3.5 -16.5 3.5s-14.333 -3 -25 -9l-13 41
c24 16.667 51.667 25 83 25c24 0 41.333 -7.16699 52 -21.5s16 -32.833 16 -55.5z" />
    <glyph glyph-name="Ydieresis" unicode="&#x178;" horiz-adv-x="440" 
d="M465 327l-106.998 -203c-0.666992 -2.66699 -1.33398 -4.66699 -2.00098 -6c-2.66699 -6.66699 -4 -11.334 -4 -14.001c0 -10.667 5 -16 15 -16c8.66699 0 24 6 46 18s38.333 20.333 49 25l-22 -68c-20 -12.667 -43.333 -25.334 -70 -38.001
c-34.667 -16.667 -59.334 -25 -74.001 -25c-25.333 0 -40 13 -44 39v18c2 20.667 20.333 56 55 106l-4 5c-10.667 -8.66699 -40 -35 -88 -79c-64.667 -59.333 -112.334 -89 -143.001 -89c-10.667 0 -20 3.33301 -28 10c-10.667 9.33301 -16 23 -16 41
c0 18.667 9.66699 48.334 29 89.001c15.333 32.667 61.333 120.667 138 264l68 -35l-117 -221c-5.33301 -9.33301 -8.33301 -16.333 -9 -21v-5c0.666992 -8 4.33398 -12 11.001 -12c23.333 0 67 34 131 102c57.333 60.667 97 110.334 119 149.001zM238.002 26l-84 -206
l-72 34l114 188z" />
    <glyph glyph-name="florin" unicode="&#x192;" horiz-adv-x="261" 
d="M309 337c0 -21.333 -8.00098 -42.332 -24.001 -62.999c-7.33301 -9.33301 -24.666 -27 -51.999 -53c-32 -30.667 -57.333 -57.334 -76 -80.001s-28 -39 -28 -49c0 -12.667 7.33301 -19 22 -19c11.333 0 30.833 6.16699 58.5 18.5s53.167 25.5 76.5 39.5l-21 -68
c-21.333 -14.667 -46 -28 -74 -40c-35.333 -15.333 -64.333 -23 -87 -23c-25.333 0 -44.333 5.66699 -57 17s-19 26 -19 44c0 20.667 8 44 24 70c19.333 30.667 51.666 68 96.999 112l40.5 38c14.333 13.333 21.5 23.333 21.5 30c-2 5.33301 -4.33301 8.33301 -7 9h-11
c-10 -2 -21.833 -6.33301 -35.5 -13l-34.5 -17l-26 43c34.667 21.333 67.334 36.333 98.001 45c20.667 6 39.667 9 57 9c20 0 34.5 -4.66699 43.5 -14s13.5 -21.333 13.5 -36z" />
    <glyph glyph-name="endash" unicode="&#x2013;" horiz-adv-x="672" 
d="M679 294h-504v56h504v-56z" />
    <glyph glyph-name="emdash" unicode="&#x2014;" horiz-adv-x="686" 
d="M668 229l-17.999 -42.999c-2.66699 -7.33301 -5.16699 -12 -7.5 -14s-6.5 -3.66699 -12.5 -5c-18.667 -4 -66.334 -6.5 -143.001 -7.5s-163 -1.5 -259 -1.5h-61c-36.667 0 -55 4.66699 -55 14c0 3.33301 1.33301 7.66602 4 12.999l21 36c5.33301 8.66699 11.333 13 18 13
h33h71c100 0 178.167 2.16699 234.5 6.5s108.833 8.83301 157.5 13.5c14 0 21 -4 21 -12c0 -2.66699 -0.5 -5 -1.5 -7s-1.83301 -4 -2.5 -6z" />
    <glyph glyph-name="quoteleft" unicode="&#x2018;" horiz-adv-x="308" 
d="M448 660c0 -4 -9.99707 -19.667 -29.9971 -47c-12.667 -17.333 -24.334 -36 -35.001 -56l-13 -26l-7 -17c-3.33301 -6 -9 -9 -17 -9c-4.66699 0 -8.33398 0.333008 -11.001 1l-31 3c-12.667 0 -20.334 4.33301 -23.001 13c0 1.33301 -0.333008 3.66602 -1 6.99902
c0 20.667 17.833 52.167 53.5 94.5s62.167 63.5 79.5 63.5c9.33301 0 17.5 -3.16699 24.5 -9.5s10.5 -12.166 10.5 -17.499z" />
    <glyph glyph-name="quoteright" unicode="&#x2019;" horiz-adv-x="308" 
d="M448 664c0 -20.667 -18.333 -52.334 -55 -95.001s-63 -64 -79 -64c-6 0 -12.833 2.83301 -20.5 8.5s-12.167 12.167 -13.5 19.5v6c1.33301 6 12.333 21.333 33 46c14 17.333 27.333 40 40 68c6 14.667 10.833 24.167 14.5 28.5s7.5 6.5 11.5 6.5
c1.33301 0 6 -0.666992 14 -2l31 -3c8 -0.666992 14 -2.16699 18 -4.5s6 -7.16602 6 -14.499z" />
    <glyph glyph-name="quotesinglbase" unicode="&#x201a;" horiz-adv-x="350" 
d="M238 76c0 -20.667 -18.333 -52.334 -55 -95.001s-63 -64 -79 -64c-6 0 -12.833 2.83301 -20.5 8.5s-12.167 12.167 -13.5 19.5v6c1.33301 6 12.333 21.333 33 46c14 17.333 27.333 40 40 68c6 14.667 10.833 24.167 14.5 28.5s7.5 6.5 11.5 6.5
c1.33301 0 6 -0.666992 14 -2l31 -3c8 -0.666992 14 -2.16699 18 -4.5s6 -7.16602 6 -14.499z" />
    <glyph glyph-name="quotedblleft" unicode="&#x201c;" horiz-adv-x="441" 
d="M581 652c-5.33301 -19.333 -12.667 -33.668 -22 -43.001c-26 -24.667 -43.333 -48 -52 -70c-5.33301 -13.333 -9.83301 -22.5 -13.5 -27.5s-7.16699 -7.5 -10.5 -7.5c-6 1.33301 -11 2 -15 2l-31 2c-7.33301 0.666992 -13 2.33398 -17 5.00098s-6 8.33398 -6 17.001
c0 15.333 16.667 44.333 50 87c36 46 63.667 69 83 69c8 0 15.167 -2.83301 21.5 -8.5s10.5 -11.834 12.5 -18.501v-7zM447.999 658.998c0 -4 -9.99902 -19.332 -29.999 -45.999c-13.333 -18 -25 -36.667 -35 -56c-6 -12 -10.5 -21.5 -13.5 -28.5
s-4.83301 -11.167 -5.5 -12.5c-4 -7.33301 -10 -11 -18 -11c-4.66699 0.666992 -8.33398 1 -11.001 1l-31 2c-9.33301 0 -15.333 1.66699 -18 5s-4.66699 9 -6 17c0 19.333 17.833 50.166 53.5 92.499s62.167 63.5 79.5 63.5c8.66699 0 16.667 -3 24 -9s11 -12 11 -18z" />
    <glyph glyph-name="quotedblright" unicode="&#x201d;" horiz-adv-x="441" 
d="M581 661c-4 -18 -21.333 -47.3311 -52 -87.998c-34 -45.333 -60.667 -68 -80 -68c-8.66699 0 -16.667 3 -24 9s-11 12 -11 18c0 4 10 19.333 30 46c14 19.333 25.667 38 35 56c7.33301 13.333 12.166 23.166 14.499 29.499s3.83301 10.166 4.5 11.499
c4 7.33301 10 11 18 11c4.66699 -0.666992 8.33398 -1 11.001 -1l31 -2c11.333 0 19 -4 23 -12v-10zM448 661.002c0 -18.667 -17.833 -49.333 -53.5 -92s-62.167 -64 -79.5 -64c-7.33301 0 -15 3 -23 9s-12 12 -12 18c0 4 10 19.333 30 46c13.333 18 25 36.667 35 56l19 41
c3.33301 7.33301 9.33301 11 18 11c5.33301 -0.666992 9.33301 -1 12 -1l31 -2c15.333 0 23 -7.33301 23 -22z" />
    <glyph glyph-name="quotedblbase" unicode="&#x201e;" horiz-adv-x="483" 
d="M371 74c0 -20 -18.166 -51.167 -54.499 -93.5s-62.5 -63.5 -78.5 -63.5c-8 0 -15.833 3.16699 -23.5 9.5s-11.5 12.5 -11.5 18.5c0 3.33301 9.33301 17.333 28 42c13.333 17.333 25.666 37.333 36.999 60l19 41c3.33301 7.33301 9.33301 11 18 11
c4.66699 -0.666992 8.33398 -1 11.001 -1l31 -3c9.33301 -0.666992 15.666 -3 18.999 -7s5 -8.66699 5 -14zM237.001 74c0 -20 -18.167 -51.168 -54.5 -93.501s-62.5 -63.5 -78.5 -63.5c-7.33301 0 -14.833 3.16699 -22.5 9.5s-11.5 12.5 -11.5 18.5
c0 3.33301 9.33301 17.333 28 42c14 18.667 26.667 38.667 38 60c4.66699 9.33301 8.5 17.833 11.5 25.5s5.16699 12.834 6.5 15.501c4 7.33301 10 11 18 11c5.33301 -0.666992 9 -1 11 -1l31 -3c15.333 -1.33301 23 -8.33301 23 -21z" />
    <glyph glyph-name="dagger" unicode="&#x2020;" horiz-adv-x="546" 
d="M630 479c0 -12.667 -6.66797 -28 -20.001 -46c-15.333 -20.667 -30 -32 -44 -34h-19c-15.333 0 -28.666 0.666992 -39.999 2s-37 4.66602 -77 9.99902l-183 -504l-32 -89c-6.66699 -13.333 -18.667 -20 -36 -20c-22 0 -36.333 2.16699 -43 6.5s-10 11.166 -10 20.499
c0 10 2 20.667 6 32c14 31.333 26.333 61 37 89l188 465c-36 -5.33301 -71.667 -8 -107 -8c-20 0 -36.667 1.66699 -50 5s-20 10 -20 20c0 17.333 5.66699 34.333 17 51c9.33301 14 21 21 35 21c2.66699 0 20.834 -2.66699 54.501 -8s65.834 -9.66602 96.501 -12.999l34 139
c4 16 10.333 28.333 19 37c13.333 12.667 32.666 19 57.999 19c13.333 0 22.5 -2.16699 27.5 -6.5s7.5 -10.166 7.5 -17.499c0 -4 -0.5 -7.5 -1.5 -10.5s-2.5 -6.83301 -4.5 -11.5l-74 -150c55.333 0 90.333 2 105 6s34 6 58 6c5.33301 0 9.16602 -0.833008 11.499 -2.5
s4.5 -4.5 6.5 -8.5z" />
    <glyph glyph-name="daggerdbl" unicode="&#x2021;" horiz-adv-x="591" 
d="M703 625l-74.9961 -27.999c-4.66699 13.333 -12.834 23 -24.501 29s-24.167 9 -37.5 9c-34.667 0 -66.667 -23 -96 -69c-18.667 -29.333 -41.334 -79.333 -68.001 -150h38c46 0 88.333 -7.66699 127 -23l-48 -71c-16.667 10 -36.834 18.333 -60.501 25
s-51.167 10 -82.5 10c-27.333 -70 -57.333 -130.333 -90 -181c-22 -34 -46 -65 -72 -93l5 -7c15.333 6 31.166 11 47.499 15s30.833 6 43.5 6c26.667 0 51.334 -3.33301 74.001 -10l40 -10.5c11.333 -3 21.333 -4.5 30 -4.5c16.667 0 31.167 5 43.5 15s22.166 24 29.499 42
l69 -37c-11.333 -28 -26.333 -50.667 -45 -68c-28 -26 -62.333 -39 -103 -39c-19.333 0 -41.666 3 -66.999 9s-49.333 12 -72 18c-10.667 2 -21.667 3.66699 -33 5s-22.333 2 -33 2c-30 0 -60.333 -4 -91 -12c-7.33301 -2 -28 -8.33301 -62 -19l-20 59
c36.667 12.667 69.167 40.5 97.5 83.5s62.166 115.5 101.499 217.5c-18.667 -3.33301 -37.167 -8 -55.5 -14s-40.833 -14.667 -67.5 -26l-20 63c33.333 13.333 65 23.5 95 30.5s54.667 10.5 74 10.5c34.667 92 71 160.667 109 206c48 57.333 103.667 86 167 86
c25.333 0 47.333 -3.66699 66 -11c32 -12.667 54 -35.334 66 -68.001z" />
    <glyph glyph-name="bullet" unicode="&#x2022;" horiz-adv-x="672" 
d="M570 313c0 -41.333 -14.667 -76.666 -44 -105.999s-64.666 -44 -105.999 -44s-76.666 14.667 -105.999 44s-44 64.666 -44 105.999s14.667 76.666 44 105.999s64.666 44 105.999 44s76.666 -14.667 105.999 -44s44 -64.666 44 -105.999z" />
    <glyph glyph-name="ellipsis" unicode="&#x2026;" horiz-adv-x="1050" 
d="M1038 69c0 -16.667 -8.16602 -33.833 -24.499 -51.5s-33.833 -26.5 -52.5 -26.5c-8.66699 0 -15.334 1 -20.001 3c-10 4 -15 12 -15 24c0 16.667 4.5 33.5 13.5 50.5s20.167 25.5 33.5 25.5h34c10.667 0 18.5 -2.16699 23.5 -6.5s7.5 -10.5 7.5 -18.5zM688.001 69.001
c0 -16.667 -8.16602 -33.833 -24.499 -51.5s-33.833 -26.5 -52.5 -26.5c-8.66699 0 -15.334 1 -20.001 3c-10 4 -15 12 -15 24c0 16 4.5 32.5 13.5 49.5s20.167 25.5 33.5 25.5h34c8 0 13.667 -0.666992 17 -2c9.33301 -4 14 -11.333 14 -22zM338.002 69.002
c0 -16.667 -8.16602 -33.833 -24.499 -51.5s-33.833 -26.5 -52.5 -26.5c-8.66699 0 -15.334 1 -20.001 3c-10 4 -15 12 -15 24c0 16 4.5 32.5 13.5 49.5s20.167 25.5 33.5 25.5h34c8 0 13.667 -0.666992 17 -2c9.33301 -4 14 -11.333 14 -22z" />
    <glyph glyph-name="perthousand" unicode="&#x2030;" horiz-adv-x="1055" 
d="M1041 156c0 -42.667 -14.665 -81.6689 -43.998 -117.002c-32.667 -40 -73.334 -60 -122.001 -60c-30.667 0 -55.167 8.83301 -73.5 26.5s-27.5 41.834 -27.5 72.501c0 49.333 19.667 93 59 131s87.666 57 144.999 57c10 0 17.667 -0.333008 23 -1l3 -47
c-56.667 -6 -99.667 -25.333 -129 -58c-22.667 -25.333 -34 -53 -34 -83c0 -16 4.16699 -28.167 12.5 -36.5s18.833 -12.5 31.5 -12.5c21.333 0 40 11 56 33s24 47.333 24 76c0 14.667 -2.66699 28.334 -8 41.001l70 27c4 -5.33301 7.33301 -13 10 -23s4 -18.667 4 -26z
M681.002 611.998c-80.667 -96 -160.669 -202.333 -240.002 -319c-84.667 -124.667 -153.667 -239.667 -207 -345l-94 27c33.333 64.667 71 127 113 187c30 43.333 74 101.666 132 174.999l174 226l-4 6c-6.66699 -5.33301 -16.5 -10 -29.5 -14s-29.5 -6 -49.5 -6
c-8 0 -15.667 1.33301 -23 4s-11.666 4.33398 -12.999 5.00098c-3.33301 -39.333 -21.833 -73.166 -55.5 -101.499s-69.5 -42.5 -107.5 -42.5c-29.333 0 -53.166 10.167 -71.499 30.5s-27.5 47.5 -27.5 81.5c0 45.333 19.333 85.666 58 120.999s85.667 53 141 53
c9.33301 0 16.666 -0.333008 21.999 -1v-47c-52 -6 -92 -26 -120 -60c-21.333 -26.667 -32 -54 -32 -82c0 -12.667 2.83301 -23 8.5 -31s11.167 -12 16.5 -12c24.667 0 46.834 9.5 66.501 28.5s29.5 44.833 29.5 77.5c0 8 -0.5 14 -1.5 18s-2.83301 10.333 -5.5 19l61 31
c8.66699 -8 15.667 -16.667 21 -26c8 -4 17.333 -6.66699 28 -8s21.667 -2 33 -2c19.333 0 40.333 5.66699 63 17c18 8.66699 36.333 21 55 37zM700 155.998c0 -42.667 -14.665 -81.6689 -43.998 -117.002c-32.667 -40 -73.334 -60 -122.001 -60
c-30.667 0 -55.167 8.83301 -73.5 26.5s-27.5 41.834 -27.5 72.501c0 49.333 19.667 93 59 131s87.666 57 144.999 57c10 0 17.667 -0.333008 23 -1l3 -47c-56.667 -6 -99.667 -25.333 -129 -58c-22.667 -25.333 -34 -53 -34 -83c0 -16 4.16699 -28.167 12.5 -36.5
s18.833 -12.5 31.5 -12.5c21.333 0 40 11 56 33s24 47.333 24 76c0 14.667 -2.66699 28.334 -8 41.001l70 27c4 -5.33301 7.33301 -13 10 -23s4 -18.667 4 -26z" />
    <glyph glyph-name="guilsinglleft" unicode="&#x2039;" horiz-adv-x="324" 
d="M310 317c-26 -25.333 -53.167 -50.333 -81.5 -75s-42.5 -38.667 -42.5 -42c0 -6 6.66699 -18.333 20 -37l76 -102l-58 -42c-20 34.667 -47 76.667 -81 126c-20.667 30.667 -31 49 -31 55s9.33301 18 28 36c63.333 60.667 104.333 102 123 124z" />
    <glyph glyph-name="guilsinglright" unicode="&#x203a;" horiz-adv-x="325" 
d="M283 179c0 -4 -20.998 -26 -62.998 -66c-32.667 -30.667 -62.334 -62 -89.001 -94l-47 43c26 25.333 53.167 50.333 81.5 75s42.5 38.667 42.5 42c0 6 -6.66699 18.333 -20 37l-76 102l58 42c21.333 -36.667 44.666 -73.667 69.999 -111c28.667 -42.667 43 -66 43 -70z
" />
    <glyph glyph-name="trademark" unicode="&#x2122;" horiz-adv-x="829" 
d="M873 366h-71v212l3 43h-4l-98 -255h-50l-97 255h-5l3 -43v-212h-71v334h96l90 -230l8 -34l11 34l90 230h95v-334zM410 648h-109v-282h-72v282h-108v52h289v-52z" />
    <glyph glyph-name="periodcentered" unicode="&#x2219;" horiz-adv-x="350" 
d="M293 245c0 -13.333 -6.33203 -28.333 -18.999 -45c-16.667 -22 -36 -33 -58 -33c-9.33301 0 -16.333 1 -21 3c-10 4.66699 -15 12.667 -15 24c0 15.333 4.66699 31.666 14 48.999s20.666 26 33.999 26h34c12 0 20.167 -2.16699 24.5 -6.5s6.5 -10.166 6.5 -17.499z" />
    <glyph glyph-name=".null" horiz-adv-x="0" 
 />
    <glyph glyph-name="nonmarkingreturn" horiz-adv-x="351" 
 />
  </font>
</defs>
</svg>
